<svg xmlns="http://www.w3.org/2000/svg" xmlns:xlink="http://www.w3.org/1999/xlink" width="1258" height="643" viewBox="0 0 1258 643">
  <defs>
    <clipPath id="clip-path">
      <rect width="1257.239" height="648.097" fill="none"/>
    </clipPath>
    <clipPath id="clip-custom_8">
      <rect width="1258" height="643"/>
    </clipPath>
  </defs>
  <g id="custom_8" data-name="custom – 8" clip-path="url(#clip-custom_8)">
    <rect width="1258" height="643" fill="none"/>
    <g id="Repeat_Grid_2" data-name="Repeat Grid 2" transform="translate(0)" clip-path="url(#clip-path)">
      <g id="Group_129" data-name="Group 129" transform="translate(-160.492 -297.442)">
        <path id="Path_1" data-name="Path 1" d="M456.183,420.7c.054,1.4.225,4,4.862,4,4.193,0,4.724-2.6,4.724-3.606,0-2.264-1.816-2.713-4.641-3.411-3.071-.752-4.437-1.088-5.472-1.787a4.546,4.546,0,0,1-2.1-3.968c0-4.105,3.885-5.9,7.683-5.9,1.346,0,4.055.225,5.672,1.986a5.168,5.168,0,0,1,1.23,3.436h-2.9c-.141-2.514-2.265-3.071-4.247-3.071-2.792,0-4.471,1.255-4.471,3.266,0,1.787,1.176,2.406,3.636,2.992,4.8,1.23,5.335,1.338,6.507,2.123a4.613,4.613,0,0,1,2.011,4.022c0,3.577-2.8,6.291-7.965,6.291-1.537,0-4.666-.258-6.257-2.294a6.3,6.3,0,0,1-1.172-4.08Zm16.683-14.277h4.948l5.7,16.625,5.838-16.625h4.612V426.6h-2.738V408.435L484.6,426.6h-2.655l-6.374-18.049V426.6h-2.709Z" transform="translate(923.765 342.601)" fill="#fff"/>
        <g id="Group_4" data-name="Group 4" transform="translate(160.492 297.442)">
          <g id="Group_1" data-name="Group 1" transform="translate(9.815 308.619)">
            <path id="Path_2" data-name="Path 2" d="M454.264,505.077v-1.5c3.831-.8,7.6-3.424,7.849-7.271V429.659c-.245-3.765-4.018-6.362-7.849-7.159v-1.508h57.527l2.672,15.295h-1.525c-1.458-3.12-5.788-9.507-16.338-9.507H477.89a1.37,1.37,0,0,0-.956,1.533v29.243h15.893c9.257,0,13.084-5.788,13.566-9.266h1.259V472.4h-1.259c-.482-3.349-4.309-9.154-13.566-9.154H476.935v34.234a1.389,1.389,0,0,0,.889,1.5h16.334c13.895,0,18.025-6.923,20.418-11.925h1.454l-2.942,18.016Zm473.093,0v-1.5c3.86-.8,7.658-3.424,7.87-7.271V429.659c-.212-3.765-4.01-6.362-7.87-7.159v-1.508H984.9l2.676,15.295h-1.512c-1.458-3.12-5.792-9.507-16.342-9.507H951.012a1.376,1.376,0,0,0-.96,1.533v29.243h15.9c9.274,0,13.072-5.788,13.541-9.266h1.284V472.4h-1.284c-.47-3.349-4.267-9.154-13.541-9.154h-15.9v34.234a1.376,1.376,0,0,0,.877,1.5h16.346c13.907,0,18.033-6.923,20.435-11.925h1.442l-2.95,18.016ZM816.4,496.306c.229,3.848,3.977,6.469,7.841,7.271v1.5H793.721v-1.5c3.864-.8,7.645-3.424,7.874-7.271V429.659c-.228-3.765-4.01-6.362-7.874-7.159v-1.508H824.24V422.5c-3.864.8-7.612,3.395-7.841,7.159Zm369.822,0c.233,3.848,3.981,6.469,7.861,7.271v1.5h-30.54v-1.5c3.873-.8,7.637-3.424,7.878-7.271V429.659c-.241-3.765-4.006-6.362-7.878-7.159v-1.508h30.54V422.5c-3.881.8-7.629,3.395-7.861,7.159ZM248.38,505.077v-.989c3.154-.553,7.3-2.655,7.3-7.23V428.491c-.058-.756-.536-1.974-1.762-1.974H241.043c-10.288,0-15.266,8.073-17,11.747h-.981l3.241-17.256h73.852l3.22,17.256H302.4c-1.737-3.673-6.673-11.747-16.94-11.747H272.438c-1.213,0-1.6,1.218-1.65,1.974v68.368c0,4.575,4.138,6.677,7.271,7.23v.989Zm977.876,0v-.989c3.154-.553,7.288-2.655,7.288-7.23V428.491c-.05-.756-.532-1.974-1.753-1.974h-12.918c-10.246,0-15.241,8.073-16.978,11.747h-.976l3.233-17.256h73.877l3.208,17.256h-.956c-1.753-3.673-6.694-11.747-16.961-11.747H1250.3c-1.205,0-1.612,1.218-1.658,1.974v68.368c0,4.575,4.142,6.677,7.284,7.23v.989Zm-835.847,0v-.989c3.154-.553,7.292-2.655,7.292-7.23V428.491c-.05-.756-.536-1.974-1.762-1.974H383.051c-10.267,0-15.27,8.073-17,11.747h-.968l3.228-17.256h73.869l3.228,17.256h-.972c-1.77-3.673-6.685-11.747-16.961-11.747H414.459c-1.226,0-1.612,1.218-1.662,1.974v68.368c0,4.575,4.147,6.677,7.288,7.23v.989Zm-201.966,2.314c-9.307,0-20.967-3.806-23.726-3.806l-1.849-20.326h1.65c3.029,8.559,10.911,18.477,25.815,18.477,12.827,0,18.8-9.432,18.8-17.551,0-8.5-3.461-13.574-14.368-21.374l-6.037-4.438c-14.4-10.591-22.084-19.176-22.084-32.2,0-14.8,12.644-24.773,32.41-24.773,7.783,0,16.159,1.616,19.683,1.891l2.019,18.852h-1.7c-2.855-9.008-10.915-15.316-21.76-15.316-10.512,0-16.674,6.5-16.674,14.63,0,8.231,4.329,12.69,15.228,20.522l3.685,2.514c15.748,11.485,25.683,20.651,25.683,33.311C225.224,496.933,207.968,507.391,188.443,507.391Zm926.748,0c-7.749,0-17.451-3.174-19.753-3.174l-1.55-16.924h1.379c2.51,7.114,9.091,14.539,21.5,14.539,10.708,0,15.681-6.789,15.681-12.777,0-6.328-1.965-10.857-11.929-17.991L1115,467c-13.155-9.652-17.979-15.876-17.979-26.725,0-12.332,10.554-21.212,27.029-21.212,6.482,0,13.462,1.325,16.4,1.583l1.674,15.706h-1.4c-2.368-7.525-9.12-12.174-18.133-12.174-8.78,0-14.011,4.828-13.911,11.6.1,5.186,2.888,9.1,12.827,16.263l3.37,2.281c14.4,10.5,20.967,16.483,20.967,27.9C1145.843,498.151,1131.467,507.391,1115.191,507.391Zm-338.186-86.28v1.5c-3.881.81-7.733,3.44-7.986,7.271v79.258h-4.355L701.08,436.3v60c.229,3.848,4,6.469,7.866,7.271v1.5H686.309v-1.5c3.864-.8,7.633-3.424,7.878-7.271V429.659c-.245-3.765-4.014-6.362-7.878-7.159v-1.491h23.5l52.4,59.833V429.887c-.224-3.831-3.989-6.461-7.853-7.271v-1.5Zm130.12,9.756c2.24-5.186-.307-7.612-4.184-8.431v-1.446h19.691V422.5c-3.864.8-6.378,3.183-8.115,7.168l-36,79.478h-2.1l-36.569-79.478c-1.729-3.985-4.018-6.37-7.878-7.168v-1.508h29.8V422.5c-3.881.8-6.9,3.038-4.483,8.7l24.681,55.362Zm-233.1-27.157v1.8c-4.662.972-8.971,4.084-9.241,8.6v50.127c0,29.277-15.793,43.122-45.764,43.122-30,0-45.806-13.845-45.806-43.122V414.11c-.278-4.512-4.591-7.625-9.216-8.6v-1.8h35.41v1.8c-4.633.972-9.2,4.084-9.478,8.6v52.213c0,25.059,10.516,35.144,29.09,35.144,18.536,0,29.056-10.084,29.056-35.144V414.11c-.274-4.512-4.849-7.625-9.474-8.6v-1.8ZM370.265,496.422l-36.087-79.495h-2.011l-32.912,79.495c-1.558,3.951-3.906,6.353-7.542,7.155v1.5h18.7v-1.433c-3.69-.819-6.137-3.27-4.134-8.443l7.014-16.994h33l7.346,16.67c2.381,5.643-.457,7.9-4.126,8.7v1.5h28.342v-1.5C374.188,502.775,371.952,500.374,370.265,496.422Zm-26.721-24.465H315.875l13.388-32.443Zm1015.92-50.941V422.5c-3.848.8-6.183,2.29-9.183,7.151l-21.062,34.15v32.539c.245,3.856,3.968,6.461,7.849,7.28v1.458h-30.54v-1.458c3.848-.818,7.633-3.424,7.907-7.28V467.948l-24.012-38.3c-2.705-4.114-5.107-6.353-9-7.151v-1.483h30.212V422.5c-3.835.8-8.007,2.664-4.479,8.7l17.8,29.53,18.918-29.854c3.129-5.713-.328-7.62-4.222-8.447v-1.413Zm-288.653,68.089c5.028,6.536,9.831,13.043,18.407,14.223v1.749H1076c-8.26,0-13.014-3.544-16.957-7.749l-18.407-27.507c-2.655-4.234-5.186-5.4-8.913-6.241v-1.666c7.026,0,25.952-.993,25.952-17.447,0-15.873-12.44-18.233-19.371-18.233-2.934,0-8.082.129-9.249.478-.81.22-1.105.673-1.105,1.6v67.993c.245,3.848,3.935,6.469,7.807,7.271v1.5h-30.531v-1.5c3.877-.8,7.641-3.424,7.874-7.271V429.659c-.233-3.765-4-6.362-7.874-7.159v-1.508h36.037c14.4,0,31.787,4.487,31.787,21.8,0,17.879-19.354,20.634-19.354,20.634Z" transform="translate(-162.807 -278.052)" fill="#fff"/>
            <path id="Path_3" data-name="Path 3" d="M310.574,472.606v-1.5c3.835-.811,7.633-3.44,7.874-7.288V397.192c-.241-3.777-4.039-6.374-7.874-7.176v-1.5h57.539l2.655,15.291h-1.492c-1.471-3.121-5.8-9.52-16.363-9.52H334.2a1.416,1.416,0,0,0-.956,1.55V425.08h15.906c9.27,0,13.093-5.788,13.562-9.278h1.259v24.112h-1.259c-.47-3.345-4.292-9.145-13.562-9.145H333.239v34.242a1.4,1.4,0,0,0,.9,1.5h16.338c13.907,0,18.029-6.927,20.422-11.917h1.45l-2.942,18.008Zm657.279-8.788c.228,3.848,3.985,6.478,7.849,7.288v1.5H945.178v-1.5c3.868-.811,7.633-3.44,7.861-7.288V397.192c-.229-3.777-3.993-6.374-7.861-7.176v-1.5H975.7v1.5c-3.864.8-7.621,3.4-7.849,7.176Zm-561.691,8.788v-1c3.174-.536,7.317-2.659,7.317-7.229V396.016c-.058-.756-.544-1.978-1.762-1.978H398.836c-10.276,0-15.262,8.077-17.011,11.763h-.972L384.1,388.52h73.861l3.2,17.281h-.952c-1.745-3.686-6.681-11.763-16.948-11.763H430.24c-1.242,0-1.6,1.222-1.666,1.978v68.364c0,4.57,4.155,6.694,7.292,7.229v1Zm604.8,0v-.989c3.162-.544,7.317-2.668,7.317-7.238V396.016c-.062-.756-.536-1.978-1.77-1.978h-12.868c-10.3,0-15.262,8.077-17.023,11.763h-.96L988.9,388.52h73.844l3.228,17.281h-.976c-1.749-3.686-6.669-11.763-16.945-11.763h-13.022c-1.23,0-1.6,1.222-1.67,1.978v68.364c0,4.57,4.155,6.694,7.288,7.238v.989ZM610.969,386.6c-30.378,0-48.939,19.649-48.939,44.019,0,24.39,17.879,44.3,48.939,44.3,31.026,0,48.926-19.907,48.926-44.3C659.895,406.245,641.355,386.6,610.969,386.6Zm0,82.516c-20.161,0-31.953-17.622-31.953-38.5,0-20.763,12.245-38.485,31.953-38.485,19.691,0,31.944,17.721,31.944,38.485C642.913,451.49,631.1,469.112,610.969,469.112ZM807.72,386.6c-30.357,0-48.926,19.649-48.926,44.019,0,24.39,17.888,44.3,48.926,44.3,31.055,0,48.943-19.907,48.943-44.3C856.663,406.245,838.106,386.6,807.72,386.6Zm0,82.516c-20.16,0-31.948-17.622-31.948-38.5,0-20.763,12.237-38.485,31.948-38.485s31.944,17.721,31.944,38.485C839.664,451.49,827.876,469.112,807.72,469.112Zm71.147-72.369c0-4.587-4.126-6.69-7.284-7.234v-.989h29.667l.017.989c-3.146.544-7.288,2.646-7.288,7.234V465.1c.05.772.457,1.982,1.662,1.982h18.777c14.531,0,19.251-11.622,21.008-15.324h1.292l-3.781,20.85H871.014v-1.5c3.848-.811,7.629-3.44,7.853-7.288ZM191.8,371.717l36.448,78.269,36.569-78.269h25.973V373.5c-4.633.985-9.125,4.093-9.411,8.6v79.972c.287,4.613,4.778,7.782,9.411,8.759v1.783h-35.4v-1.783c4.633-.977,9.154-4.146,9.428-8.759V390.232l-41,87.252h-1.878l-41.326-87.431v72.011c.266,4.613,4.8,7.782,9.424,8.759v1.783H162.869v-1.783c4.641-.977,9.166-4.146,9.444-8.759V382.092c-.278-4.5-4.8-7.612-9.444-8.6v-1.778Zm1053.353,16.919v1.5c-3.847.8-7.724,3.432-7.953,7.288v79.25h-4.35l-63.585-72.863v60.007c.216,3.848,3.976,6.478,7.861,7.288v1.5h-22.662v-1.5c3.872-.811,7.629-3.44,7.869-7.288V397.192c-.241-3.777-4-6.374-7.869-7.176v-1.488h23.489l52.416,59.845V397.424c-.216-3.856-3.98-6.486-7.845-7.288v-1.5Zm-106.873,75.294L1102.2,384.448h-2.011l-32.9,79.482c-1.575,3.98-3.914,6.365-7.55,7.159v1.517h18.7v-1.45c-3.706-.819-6.174-3.245-4.138-8.435l6.993-16.994h33.02l7.334,16.662c2.389,5.651-.436,7.907-4.1,8.7v1.517h28.338v-1.517C1142.183,470.3,1139.976,467.911,1138.277,463.931Zm-26.709-24.453h-27.677l13.379-32.443Zm-406.952-6.81c7.031,0,25.961-1.164,25.961-19.221,0-15.868-12.436-19.658-19.363-19.658-2.962,0-8.086.1-9.274.437-.823.237-1.1.694-1.1,1.616v67.977c.237,3.848,3.943,6.478,7.8,7.288v1.5H678.123v-1.5c3.881-.811,7.633-3.44,7.878-7.288V397.192c-.245-3.777-4-6.374-7.878-7.176v-1.5h36.058c14.368,0,31.77,6.137,31.77,23.451,0,28.138-35.1,25.379-41.335,22.35ZM537.939,456.642c4.99,6.519,9.818,13.034,18.39,14.206v1.758H543.108c-8.24,0-13.009-3.544-16.953-7.758l-18.411-27.5c-2.647-4.238-5.173-5.414-8.908-6.258v-1.65c7.026,0,25.944-1.005,25.944-17.456,0-15.86-12.411-18.232-19.342-18.232-2.942,0-8.094.129-9.282.469-.831.237-1.089.694-1.089,1.616v67.977c.233,3.848,3.935,6.478,7.807,7.288v1.5H472.347v-1.5c3.877-.811,7.62-3.44,7.853-7.288V397.192c-.233-3.777-3.976-6.374-7.853-7.176v-1.5h36.029c14.4,0,31.791,4.488,31.791,21.8,0,17.875-19.35,20.626-19.35,20.626Z" transform="translate(-162.807 -371.717)" fill="#fff"/>
            <path id="Path_4" data-name="Path 4" d="M274.8,440.473v10.051H253.189v11.9h20.289V472.48H253.189v24.087H242.606V440.473Zm296.253,0H559.526l-15.091,35.638-15.087-35.638h-11.51l24.677,56.094h3.848Zm-78.028,0v33.885l-29.455-33.885h-5.252v56.094H468.9v-33.9l29.468,33.9h5.24V440.473Zm-159.4,56.094V440.473h17.8c9.839,0,30.34,2.855,30.34,28.047s-20.5,28.047-30.34,28.047ZM371.1,468.52c0-13.6-7.737-18-19.944-18h-6.952v35.987h6.952C362.846,486.511,371.1,482.116,371.1,468.52Zm249.234,28.047V486.511H596.39V472.48h22.633V462.425H596.39v-11.9h23.946V440.473H585.807v56.094Zm-183.5,0V486.511H412.894V472.48h22.629V462.425H412.894v-11.9H436.84V440.473H402.307v56.094Zm232.713-20.983c5.726-2.439,11.073-7.429,11.073-16.562,0-14.331-12.336-18.548-20.3-18.548h-18.76v56.094h10.587V450.525h7.932c6.129,0,9.765,3.473,9.765,8.5s-4.051,8.493-9.765,8.493h-6.86v.707L670.5,496.567h11.846ZM221.6,468.657c0,16.724-12.66,29.381-29.372,29.381s-29.376-12.656-29.376-29.381,12.661-29.38,29.376-29.38S221.6,451.937,221.6,468.657Zm-10.89,0c0-10.732-7.965-19.238-18.482-19.238s-18.482,8.506-18.482,19.238,7.969,19.23,18.482,19.23S210.712,479.377,210.712,468.657Z" transform="translate(-162.854 -158.56)" fill="#fff"/>
          </g>
          <g id="Group_3" data-name="Group 3">
            <path id="Path_5" data-name="Path 5" d="M709.34,393.346,603.98,299.3c-4.687-4.114-11.672-1.06-10.209,5.83l1.454,5.294c.166.44-.224.511-.428.436a130.055,130.055,0,0,0-44.314-8.007c-24.1-.1-44.949,6.258-65.093,12.428-16.944,4.986-32.929,9.893-48.477,9.823-17.667-.071-32.908-6.677-48.369-20.152-5.51-4.824-12.257-1.969-10.786,5.418,2.107,9.777,5.792,19.055,12.058,27.157.283.349.108.632-.224.669a226.217,226.217,0,0,1-27.9,1.783c-18.39-.079-34.491-2.7-47.916-7.77-6.81-2.614-12.635,3.386-7.047,9.241C317,352.772,326.1,359.69,333.667,363.937a.455.455,0,0,1-.083.844,171.68,171.68,0,0,1-36.6,3.482c-13.126-.054-38.592-2.771-44.754-3.748s-9.166,6.864-4.961,10.255c13.142,10.546,25.732,16.392,36.286,19.176a.4.4,0,0,1,.12.765c-67.32,27.876-108.215,55.026-116.138,60.809-12.893,9.058-7.1,20.6,9.291,17.215,8.464-1.733,70.017-14.68,121.661-19.5.665-.067.781.2.174.4-38.368,12.424-69.448,26.838-83.521,38.094-5.867,4.824-1.168,12.494,5.776,10.064,18.029-6.224,59.023-15.12,91.308-19.712.569-.079.706.233.2.482-17.651,8.327-38.14,20.908-55.092,37.092-5.3,5.173-.922,13.583,7.2,9.378,35.858-18.565,71.7-28.537,94.146-33.7.428-.1.715.254.449.54a111.887,111.887,0,0,0-17.077,21.162c-4.724,7.6-2.127,13.23,13.886,10.267,98.317-18.025,196.867,9.395,263.727,80.019,6.428,6.8,12.54,3.785,12-2.718-.486-5.726-1.845-14.9-1.492-25.25,1.33-38.866,10.3-63.265,60.277-73.308,52.288-10.275,138.634-13.778,172.531-15.39l22.4-15.178c-47.056-8.348-144.277-18.237-203.736-17.505-6.145.071-6.781-1.234-.457-2.032,29.256-3.673,129.688-13.562,222.691,14.78l26.833-8.863C878.73,426.246,804.973,406.651,709.34,393.346Z" transform="translate(-160.492 -297.442)" fill="#fff"/>
            <g id="Group_2" data-name="Group 2" transform="translate(9.886 5.91)">
              <path id="Path_6" data-name="Path 6" d="M347.214,517.026c70.6-30.228,240.521-84.414,516.044-42.6l-9.686,6.64s-118.411,4.953-171.563,15.419c-38.247,7.633-64.694,23.077-64.9,79.545.075,7.9.669,16.238,1.625,24.943.079.673-.7.81-.972.116-6.058-15.527-29.106-60.839,15.158-103.914,5.605-5.256,4.525-18.569-12.985-19.209-60.8-2.186-151.943,10.209-195.716,23.776-1.995.611-1.8,1.383.137,1.147,81.709-9.661,136.789-6.175,173.154,3.636,1.01.27.972,1.047-.386.952-6.656-.47-62.663-3.773-98.255,8.131-1.662.565-1.475,1.625.166,1.55,58.956-2.535,85.69,5.576,92.866,8.585.931.395.818.931-.386.893-6.827-.233-27.12-.008-46.77,6.341-1.371.436-1.234,1.5.158,1.579,31.358,2.443,44.9,8.809,49.267,11.368,1.155.669,1.022,1.134-.05,1.251-3.935.453-13.832,1.8-20.2,4.641-.989.432-.7,1.438.262,1.529,23.684,1.99,31.417,29.11,33.016,35.9.229.981-.4.777-.781.386-28.554-29.277-121-97.05-258.986-71.9C346.346,517.936,346.18,517.475,347.214,517.026ZM585.94,396.192c-10.94-.927-17.983,3.864-18.623,11.655-.636,7.612,7.861,14.9,18.744,16.068,9.59,1.035,17.688-2.846,20.214-8.917l-9.449-.042s-.254.046-.175-.3c1.325-6.345-3.943-11.568-12.827-13.612-.445-.1-.079-.274-.079-.274l15.644.062C597.188,398.548,590.028,396.529,585.94,396.192Zm22.325-52.836c-4.579-3.091-25.034-15.839-42.074-20.231-41.172-10.525-85.221,5.663-96.6,9.079-36.868,10.973-60.859,2.46-69.614-1.513-1.5-.706-1.641-.1-.615.69,5.169,3.715,15.947,11.526,31.678,14.875,12.241,2.667,28.745,1.425,48-2.4,12.557-2.476,42.531-12.577,63.56-6.715.524.146.519.628.013.7-24.332,3.823-35.189,14.5-46.716,27.266-167.62,16.2-317.693,84.14-332.564,90.817-.436.208-.711.066-.166-.337,7.749-5.16,55.516-37.466,135.838-68.376.623-.245.64-.532-.216-.478-7,.436-30.536.644-55.354-20.3-.345-.3-.008-.777.5-.694,51.24,7.342,77.11,2.88,101.139-4.442.6-.183,1.155-.5-.125-.611-5.285-.474-20.746-3.952-41.463-27.012-.47-.486.008-.956.723-.7,36.153,13.936,80.305,6.436,88.063,4.924.827-.158.71-.769.287-1.2a59.038,59.038,0,0,1-16.795-31.446c-.15-.789.7-1.122,1.446-.465,68.875,61.167,122.163-31.645,218.121,10.832.765.337.873,0,.723-.548l-4.334-15.552c-.158-.694.291-.877.918-.395L699.307,394.14c88.956,12.12,164.009,31.695,211.464,61.923l-14.505,4.724c-108.107-31.275-214.552-16.33-262.942-9.17-33.951,4.816-69.714-2.248-82.728-15.129-.578-.569.133-1.2,1.01-.943,39.149,11.385,73.055-9.964,61.017-36.93l-32.2-11.776c-16.184-2.314-29.273,5.107-29.846,18.241-.465,11.136,5.9,20.933,17.58,25.2.989.361,1.051.989.013.91-15.291-1.051-32.725-15.32-24.727-36.037.075-.2-.282-.407-.548-.3-6.44,2.422-14.36,3.719-20.53,2.169-.632-.154-.627-.656.021-.785,13.978-2.555,38.218-24.985,63.319-17l34.313,11.838a36.611,36.611,0,0,0,21.773.694c.607-.2.474-.524.187-.69l-52.254-22.5c-55.653-20.281-91.046,10.928-96.888,16.89-.607.6-.636-.016-.486-.494,9.635-30.531,54.531-48.22,100.586-31.3l77.409,34.587c.482.283.769-.091.349-.49l-64.138-55.42c-.449-.445-.885-.32-.657.278l3.067,10.371C609.188,343.647,608.868,343.755,608.265,343.356ZM657.083,428.3c59.659-13.471,141.169-2.356,158.076.183,2.015.291,1.172-.208.183-.536-42.116-14.405-109.067-22.134-117.672-23.123a1.928,1.928,0,0,0-1.492.706c-8.335,11.589-34.687,20.011-39.652,21.607C655.168,427.575,654.848,428.8,657.083,428.3Z" transform="translate(-162.871 -298.864)" fill="#00366a"/>
              <path id="Path_7" data-name="Path 7" d="M208.043,416.3c25.658-8.044,97.042-23.8,125.99-22.558,1.276.062,1.413.918.27,1.28-20.821,6.424-58.4,22.1-84.049,47.941-.64.653-.307,1.151.5.752,53.268-26.979,105.547-36.39,117.024-38.871,1.126-.237,1.4.179.245.927-5.1,3.428-19.213,13.466-32.351,33.531-.532.818-.062,1.055.482.71C395.4,402.375,449.124,384.5,501.972,372.733c1.591-.366,1.442-1.267-.283-1.342-47.069-1.932-125.093,10.03-156.617,20.451-1.28.44-1.421-.233-.266-.993,36.365-22.691,113.542-37.425,136.27-42.008,2.684-.515,1.662-1.2-.141-1.342-37.591-2.88-96.261,4.762-142.394,16.142-1.413.353-1.546-.494-.1-1.246,27.793-14.435,86.758-32.942,129.8-36.045,1.421-.1,1.35-.869-.17-1.122-60.876-10.359-211.651,17.09-303.674,61.425-.345.162-.64.407.066.253,11.489-2.439,111.194-23.285,164.184-21.361,1.3.038,1.338.819.1,1.147-55.57,14.489-104.022,34.275-121.054,48.71C206.526,416.373,207.261,416.54,208.043,416.3Z" transform="translate(-159.221 -222.581)" fill="#c30032"/>
            </g>
          </g>
        </g>
      </g>
    </g>
  </g>
</svg>
