<?xml version="1.0" encoding="utf-8"?>
<!-- Generator: Adobe Illustrator 19.0.0, SVG Export Plug-In . SVG Version: 6.00 Build 0)  -->
<svg version="1.1" id="Layer_1" xmlns="http://www.w3.org/2000/svg" xmlns:xlink="http://www.w3.org/1999/xlink" x="0px" y="0px"
	 viewBox="0 0 565.4 74.8" style="enable-background:new 0 0 565.4 74.8;" xml:space="preserve">
<style type="text/css">
	.st0{fill:#FFFFFF;}
	.st1{fill:#00457C;}
	.st2{fill:#D11242;}
</style>
<g>
	<path class="st0" d="M558.6,13c0,0.2,0,0.7,0.9,0.7c0.8,0,0.8-0.5,0.8-0.6c0-0.4-0.3-0.5-0.8-0.6c-0.5-0.1-0.8-0.2-1-0.3
		c-0.3-0.2-0.4-0.5-0.4-0.7c0-0.7,0.7-1.1,1.4-1.1c0.2,0,0.7,0,1,0.4c0.2,0.2,0.2,0.5,0.2,0.6h-0.5c0-0.4-0.4-0.5-0.8-0.5
		c-0.5,0-0.8,0.2-0.8,0.6c0,0.3,0.2,0.4,0.7,0.5c0.9,0.2,1,0.2,1.2,0.4c0.3,0.2,0.4,0.6,0.4,0.7c0,0.6-0.5,1.1-1.4,1.1
		c-0.3,0-0.8,0-1.1-0.4c-0.2-0.3-0.2-0.6-0.2-0.7H558.6z M561.6,10.4h0.9l1,3l1-3h0.8V14h-0.5v-3.2l-1.2,3.2h-0.5l-1.1-3.2V14h-0.5
		V10.4z"/>
	<path class="st0" d="M160.1,35.1v1.8h-3.9V39h3.6v1.8h-3.6v4.3h-1.9v-10H160.1z M213.1,35.1H211l-2.7,6.4l-2.7-6.4h-2.1l4.4,10h0.7
		L213.1,35.1z M199.1,35.1v6.1l-5.3-6.1h-0.9v10h1.9V39l5.3,6.1h0.9v-10H199.1z M170.6,45.1v-10h3.2c1.8,0,5.4,0.5,5.4,5
		c0,4.5-3.7,5-5.4,5H170.6z M177.3,40.1c0-2.4-1.4-3.2-3.6-3.2h-1.2v6.4h1.2C175.8,43.3,177.3,42.5,177.3,40.1 M221.9,45.1v-1.8
		h-4.3v-2.5h4V39h-4v-2.1h4.3v-1.8h-6.2v10H221.9z M189.1,45.1v-1.8h-4.3v-2.5h4V39h-4v-2.1h4.3v-1.8h-6.2v10H189.1z M230.7,41.4
		c1-0.4,2-1.3,2-3c0-2.6-2.2-3.3-3.6-3.3h-3.4v10h1.9v-8.2h1.4c1.1,0,1.7,0.6,1.7,1.5c0,0.9-0.7,1.5-1.7,1.5h-1.2V40l3.1,5.1h2.1
		L230.7,41.4z M150.6,40.1c0,3-2.3,5.3-5.3,5.3c-3,0-5.3-2.3-5.3-5.3c0-3,2.3-5.3,5.3-5.3C148.3,34.9,150.6,37.1,150.6,40.1
		 M148.6,40.1c0-1.9-1.4-3.4-3.3-3.4c-1.9,0-3.3,1.5-3.3,3.4c0,1.9,1.4,3.4,3.3,3.4C147.2,43.6,148.6,42,148.6,40.1"/>
	<path class="st0" d="M394.4,25.4v-0.3c0.7-0.1,1.4-0.6,1.4-1.3V11.9c0-0.7-0.7-1.1-1.4-1.3v-0.3h10.3l0.5,2.7h-0.3
		c-0.3-0.6-1-1.7-2.9-1.7h-3.3c-0.1,0-0.2,0.1-0.2,0.3v5.2h2.8c1.7,0,2.3-1,2.4-1.7h0.2v4.3h-0.2c-0.1-0.6-0.8-1.6-2.4-1.6h-2.8v6.1
		c0,0.1,0,0.2,0.2,0.3h2.9c2.5,0,3.2-1.2,3.6-2.1h0.3l-0.5,3.2H394.4z M479,25.4v-0.3c0.7-0.1,1.4-0.6,1.4-1.3V11.9
		c0-0.7-0.7-1.1-1.4-1.3v-0.3h10.3l0.5,2.7h-0.3c-0.3-0.6-1-1.7-2.9-1.7h-3.3c-0.1,0-0.2,0.1-0.2,0.3v5.2h2.8c1.7,0,2.3-1,2.4-1.7
		h0.2v4.3h-0.2c-0.1-0.6-0.8-1.6-2.4-1.6h-2.8v6.1c0,0.1,0,0.2,0.2,0.3h2.9c2.5,0,3.2-1.2,3.7-2.1h0.3l-0.5,3.2H479z M459.2,23.9
		c0,0.7,0.7,1.2,1.4,1.3v0.3h-5.5v-0.3c0.7-0.1,1.4-0.6,1.4-1.3V11.9c0-0.7-0.7-1.1-1.4-1.3v-0.3h5.5v0.3c-0.7,0.1-1.4,0.6-1.4,1.3
		V23.9z M525.3,23.9c0,0.7,0.7,1.2,1.4,1.3v0.3h-5.5v-0.3c0.7-0.1,1.4-0.6,1.4-1.3V11.9c0-0.7-0.7-1.1-1.4-1.3v-0.3h5.5v0.3
		c-0.7,0.1-1.4,0.6-1.4,1.3V23.9z M357.6,25.4v-0.2c0.6-0.1,1.3-0.5,1.3-1.3V11.7c0-0.1-0.1-0.3-0.3-0.3h-2.3c-1.8,0-2.7,1.4-3,2.1
		H353l0.6-3.1h13.2l0.6,3.1h-0.2c-0.3-0.7-1.2-2.1-3-2.1h-2.3c-0.2,0-0.3,0.2-0.3,0.3V24c0,0.8,0.7,1.2,1.3,1.3v0.2H357.6z
		 M532.5,25.4v-0.2c0.6-0.1,1.3-0.5,1.3-1.3V11.7c0-0.1-0.1-0.3-0.3-0.3h-2.3c-1.8,0-2.7,1.4-3,2.1h-0.2l0.6-3.1h13.2l0.6,3.1h-0.2
		c-0.3-0.7-1.2-2.1-3-2.1h-2.3c-0.2,0-0.3,0.2-0.3,0.3V24c0,0.8,0.7,1.2,1.3,1.3v0.2H532.5z M383,25.4v-0.2c0.6-0.1,1.3-0.5,1.3-1.3
		V11.7c0-0.1-0.1-0.3-0.3-0.3h-2.3c-1.8,0-2.7,1.4-3,2.1h-0.2l0.6-3.1h13.2l0.6,3.1h-0.2c-0.3-0.7-1.2-2.1-3-2.1h-2.3
		c-0.2,0-0.3,0.2-0.3,0.3V24c0,0.8,0.7,1.2,1.3,1.3v0.2H383z M346.8,25.9c-1.7,0-3.8-0.7-4.2-0.7l-0.3-3.6h0.3
		c0.5,1.5,1.9,3.3,4.6,3.3c2.3,0,3.4-1.7,3.4-3.1c0-1.5-0.6-2.4-2.6-3.8l-1.1-0.8c-2.6-1.9-3.9-3.4-3.9-5.8c0-2.6,2.3-4.4,5.8-4.4
		c1.4,0,2.9,0.3,3.5,0.3l0.4,3.4h-0.3c-0.5-1.6-2-2.7-3.9-2.7c-1.9,0-3,1.2-3,2.6c0,1.5,0.8,2.3,2.7,3.7l0.7,0.4
		c2.8,2.1,4.6,3.7,4.6,6C353.4,24,350.3,25.9,346.8,25.9 M512.6,25.9c-1.4,0-3.1-0.6-3.5-0.6l-0.3-3h0.2c0.4,1.3,1.6,2.6,3.8,2.6
		c1.9,0,2.8-1.2,2.8-2.3c0-1.1-0.4-1.9-2.1-3.2l-1-0.7c-2.4-1.7-3.2-2.8-3.2-4.8c0-2.2,1.9-3.8,4.8-3.8c1.2,0,2.4,0.2,2.9,0.3
		l0.3,2.8h-0.3c-0.4-1.3-1.6-2.2-3.2-2.2c-1.6,0-2.5,0.9-2.5,2.1c0,0.9,0.5,1.6,2.3,2.9l0.6,0.4c2.6,1.9,3.7,3,3.7,5
		C518.1,24.2,515.5,25.9,512.6,25.9 M452.1,10.4v0.3c-0.7,0.1-1.4,0.6-1.4,1.3v14.2h-0.8l-11.4-13v10.7c0,0.7,0.7,1.2,1.4,1.3v0.3
		h-4v-0.3c0.7-0.1,1.4-0.6,1.4-1.3V11.9c0-0.7-0.7-1.1-1.4-1.3v-0.3h4.2l9.4,10.7V12c0-0.7-0.7-1.2-1.4-1.3v-0.3H452.1z M475.4,12.2
		c0.4-0.9-0.1-1.4-0.8-1.5v-0.3h3.5v0.3c-0.7,0.1-1.1,0.6-1.5,1.3l-6.4,14.2h-0.4l-6.5-14.2c-0.3-0.7-0.7-1.1-1.4-1.3v-0.3h5.3v0.3
		c-0.7,0.1-1.2,0.5-0.8,1.6l4.4,9.9L475.4,12.2z M433.7,7.3v0.3c-0.8,0.2-1.6,0.7-1.7,1.5v9c0,5.2-2.8,7.7-8.2,7.7
		c-5.4,0-8.2-2.5-8.2-7.7v-9c-0.1-0.8-0.8-1.4-1.7-1.5V7.3h6.3v0.3c-0.8,0.2-1.6,0.7-1.7,1.5v9.3c0,4.5,1.9,6.3,5.2,6.3
		c3.3,0,5.2-1.8,5.2-6.3V9.2c-0.1-0.8-0.9-1.4-1.7-1.5V7.3H433.7z M379.4,23.9l-6.5-14.2h-0.4l-5.9,14.2c-0.3,0.7-0.7,1.1-1.4,1.3
		v0.3h3.3v-0.3c-0.7-0.1-1.1-0.6-0.7-1.5l1.3-3h5.9l1.3,3c0.4,1-0.1,1.4-0.7,1.6v0.3h5.1v-0.3C380.1,25,379.7,24.6,379.4,23.9
		 M374.6,19.5h-5l2.4-5.8L374.6,19.5z M556.3,10.4v0.3c-0.7,0.1-1.1,0.4-1.6,1.3l-3.8,6.1v5.8c0,0.7,0.7,1.2,1.4,1.3v0.3h-5.5v-0.3
		c0.7-0.1,1.4-0.6,1.4-1.3v-5.1l-4.3-6.8c-0.5-0.7-0.9-1.1-1.6-1.3v-0.3h5.4v0.3c-0.7,0.1-1.4,0.5-0.8,1.6l3.2,5.3l3.4-5.3
		c0.6-1-0.1-1.4-0.8-1.5v-0.3H556.3z M504.7,22.6c0.9,1.2,1.8,2.3,3.3,2.5v0.3h-2.4c-1.5,0-2.3-0.6-3-1.4l-3.3-4.9
		c-0.5-0.8-0.9-1-1.6-1.1v-0.3c1.3,0,4.6-0.2,4.6-3.1c0-2.8-2.2-3.3-3.5-3.3c-0.5,0-1.4,0-1.7,0.1c-0.1,0-0.2,0.1-0.2,0.3v12.2
		c0,0.7,0.7,1.2,1.4,1.3v0.3h-5.5v-0.3c0.7-0.1,1.4-0.6,1.4-1.3V11.9c0-0.7-0.7-1.1-1.4-1.3v-0.3h6.4c2.6,0,5.7,0.8,5.7,3.9
		c0,3.2-3.5,3.7-3.5,3.7L504.7,22.6z"/>
	<path class="st0" d="M166.5,25.4v-0.3c0.7-0.1,1.4-0.6,1.4-1.3V11.9c0-0.7-0.7-1.1-1.4-1.3v-0.3h10.3l0.5,2.7H177
		c-0.3-0.6-1-1.7-2.9-1.7h-3.3c-0.1,0-0.2,0.1-0.2,0.3v5.2h2.8c1.7,0,2.3-1,2.4-1.7h0.2v4.3h-0.2c-0.1-0.6-0.8-1.6-2.4-1.6h-2.8v6.1
		c0,0.1,0,0.2,0.2,0.3h2.9c2.5,0,3.2-1.2,3.7-2.1h0.3l-0.5,3.2H166.5z M284,23.9c0,0.7,0.7,1.2,1.4,1.3v0.3H280v-0.3
		c0.7-0.1,1.4-0.6,1.4-1.3V11.9c0-0.7-0.7-1.1-1.4-1.3v-0.3h5.5v0.3c-0.7,0.1-1.4,0.6-1.4,1.3V23.9z M183.6,25.4v-0.2
		c0.6-0.1,1.3-0.5,1.3-1.3V11.7c0-0.1-0.1-0.4-0.3-0.4h-2.3c-1.8,0-2.7,1.4-3,2.1h-0.2l0.6-3.1h13.2l0.6,3.1h-0.2
		c-0.3-0.7-1.2-2.1-3-2.1h-2.3c-0.2,0-0.3,0.2-0.3,0.4V24c0,0.8,0.7,1.2,1.3,1.3v0.2H183.6z M291.8,25.4v-0.2
		c0.6-0.1,1.3-0.5,1.3-1.3V11.7c0-0.1-0.1-0.4-0.3-0.4h-2.3c-1.8,0-2.7,1.4-3,2.1h-0.2l0.6-3.1H301l0.6,3.1h-0.2
		c-0.3-0.7-1.2-2.1-3-2.1h-2.3c-0.2,0-0.3,0.2-0.3,0.4V24c0,0.8,0.7,1.2,1.3,1.3v0.2H291.8z M220.2,10.1c-5.4,0-8.8,3.5-8.8,7.9
		c0,4.4,3.2,7.9,8.8,7.9c5.6,0,8.8-3.6,8.8-7.9C229,13.6,225.6,10.1,220.2,10.1 M220.2,24.8c-3.6,0-5.7-3.2-5.7-6.9
		c0-3.7,2.2-6.9,5.7-6.9c3.5,0,5.7,3.2,5.7,6.9C225.9,21.7,223.8,24.8,220.2,24.8 M255.4,10.1c-5.4,0-8.8,3.5-8.8,7.9
		c0,4.4,3.2,7.9,8.8,7.9c5.6,0,8.8-3.6,8.8-7.9C264.2,13.6,260.8,10.1,255.4,10.1 M255.4,24.8c-3.6,0-5.7-3.2-5.7-6.9
		c0-3.7,2.2-6.9,5.7-6.9c3.5,0,5.7,3.2,5.7,6.9C261.1,21.7,259,24.8,255.4,24.8 M268.1,11.9c0-0.8-0.7-1.2-1.3-1.3v-0.2h5.3l0,0.2
		c-0.6,0.1-1.3,0.5-1.3,1.3v12.2c0,0.1,0.1,0.4,0.3,0.4h3.4c2.6,0,3.4-2.1,3.8-2.7h0.2l-0.7,3.7h-11.1v-0.3c0.7-0.1,1.4-0.6,1.4-1.3
		V11.9z M145.2,7.4l6.5,14l6.5-14h4.6v0.3c-0.8,0.2-1.6,0.7-1.7,1.5v14.3c0.1,0.8,0.9,1.4,1.7,1.6v0.3h-6.3v-0.3
		c0.8-0.2,1.6-0.7,1.7-1.6V10.7L151,26.3h-0.3l-7.4-15.6v12.9c0,0.8,0.9,1.4,1.7,1.6v0.3h-4.9v-0.3c0.8-0.2,1.6-0.7,1.7-1.6V9.2
		c0-0.8-0.9-1.4-1.7-1.5V7.4H145.2z M333.6,10.4v0.3c-0.7,0.1-1.4,0.6-1.4,1.3v14.2h-0.8l-11.4-13v10.7c0,0.7,0.7,1.2,1.4,1.3v0.3
		h-4.1v-0.3c0.7-0.1,1.4-0.6,1.4-1.3V11.9c0-0.7-0.7-1.1-1.4-1.3v-0.3h4.2l9.4,10.7V12c0-0.7-0.7-1.2-1.4-1.3v-0.3H333.6z
		 M314.5,23.9l-6.5-14.2h-0.4l-5.9,14.2c-0.3,0.7-0.7,1.1-1.4,1.3v0.3h3.3v-0.3c-0.7-0.1-1.1-0.6-0.7-1.5l1.2-3h5.9l1.3,3
		c0.4,1-0.1,1.4-0.7,1.6v0.3h5.1v-0.3C315.2,25,314.8,24.6,314.5,23.9 M309.8,19.5h-4.9l2.4-5.8L309.8,19.5z M237,18.3
		c1.3,0,4.6-0.2,4.6-3.4c0-2.8-2.2-3.5-3.5-3.5c-0.5,0-1.4,0-1.7,0.1c-0.1,0-0.2,0.1-0.2,0.3v12.2c0,0.7,0.7,1.2,1.4,1.3v0.3h-5.5
		v-0.3c0.7-0.1,1.4-0.6,1.4-1.3V11.9c0-0.7-0.7-1.1-1.4-1.3v-0.3h6.4c2.6,0,5.7,1.1,5.7,4.2c0,5-6.3,4.5-7.4,4V18.3z M207.1,22.6
		c0.9,1.2,1.8,2.3,3.3,2.5v0.3h-2.4c-1.5,0-2.3-0.6-3-1.4l-3.3-4.9c-0.5-0.8-0.9-1-1.6-1.1v-0.3c1.3,0,4.6-0.2,4.6-3.1
		c0-2.8-2.2-3.3-3.5-3.3c-0.5,0-1.5,0-1.7,0.1c-0.1,0-0.2,0.1-0.2,0.3v12.2c0,0.7,0.7,1.2,1.4,1.3v0.3h-5.5v-0.3
		c0.7-0.1,1.4-0.6,1.4-1.3V11.9c0-0.7-0.7-1.1-1.4-1.3v-0.3h6.4c2.6,0,5.7,0.8,5.7,3.9c0,3.2-3.5,3.7-3.5,3.7L207.1,22.6z"/>
	<path class="st0" d="M98.2,17.2L79.3,0.3c-0.8-0.7-2.1-0.2-1.8,1l0.3,1c0,0.1,0,0.1-0.1,0.1C75.1,1.5,72.4,1,69.8,1
		c-4.3,0-8,1.1-11.6,2.2c-3,0.9-5.9,1.8-8.7,1.8c-3.2,0-5.9-1.2-8.7-3.6c-1-0.9-2.2-0.4-1.9,1c0.4,1.7,1,3.4,2.2,4.9
		c0,0.1,0,0.1,0,0.1c-1.2,0.1-3,0.3-5,0.3c-3.3,0-6.2-0.5-8.6-1.4c-1.2-0.5-2.3,0.6-1.3,1.7c1.8,2,3.5,3.3,4.8,4
		c0.1,0,0.1,0.1,0,0.2c-1.8,0.4-3.9,0.6-6.5,0.6c-2.3,0-6.9-0.5-8-0.7c-1.1-0.2-1.6,1.2-0.9,1.8c2.4,1.9,4.6,2.9,6.5,3.4
		c0.1,0,0.1,0.1,0,0.1c-12,5-19.4,9.8-20.8,10.9C-1,29.9,0,32,2.9,31.4c1.5-0.3,12.5-2.6,21.8-3.5c0.1,0,0.1,0,0,0.1
		c-6.9,2.2-12.4,4.8-14.9,6.8c-1,0.9-0.2,2.2,1,1.8c3.2-1.1,10.6-2.7,16.3-3.5c0.1,0,0.1,0,0,0.1c-3.2,1.5-6.8,3.7-9.9,6.6
		c-0.9,0.9-0.2,2.4,1.3,1.7c6.4-3.3,12.8-5.1,16.8-6c0.1,0,0.1,0,0.1,0.1c-0.9,0.9-2.1,2.2-3.1,3.8c-0.8,1.4-0.4,2.4,2.5,1.8
		c17.6-3.2,35.2,1.7,47.2,14.3c1.2,1.2,2.2,0.7,2.1-0.5c-0.1-1-0.3-2.7-0.3-4.5c0.2-7,1.8-11.3,10.8-13.1c9.4-1.8,24.8-2.5,30.9-2.8
		l4-2.7c-8.4-1.5-25.8-3.3-36.4-3.1c-1.1,0-1.2-0.2-0.1-0.4c5.2-0.7,23.2-2.4,39.8,2.6l4.8-1.6C128.5,23,115.3,19.5,98.2,17.2"/>
	<path class="st1" d="M34.7,40.1c12.6-5.4,43-15.1,92.3-7.6l-1.7,1.2c0,0-21.2,0.9-30.7,2.8c-6.8,1.4-11.6,4.1-11.6,14.2
		c0,1.4,0.1,2.9,0.3,4.5c0,0.1-0.1,0.1-0.2,0c-1.1-2.8-5.2-10.9,2.7-18.6c1-0.9,0.8-3.3-2.3-3.4c-10.9-0.4-27.2,1.8-35,4.3
		c-0.4,0.1-0.3,0.2,0,0.2c14.6-1.7,24.5-1.1,31,0.7c0.2,0,0.2,0.2-0.1,0.2c-1.2-0.1-11.2-0.7-17.6,1.5c-0.3,0.1-0.3,0.3,0,0.3
		c10.5-0.5,15.3,1,16.6,1.5c0.2,0.1,0.1,0.2-0.1,0.2c-1.2,0-4.9,0-8.4,1.1c-0.2,0.1-0.2,0.3,0,0.3c5.6,0.4,8,1.6,8.8,2
		c0.2,0.1,0.2,0.2,0,0.2c-0.7,0.1-2.5,0.3-3.6,0.8c-0.2,0.1-0.1,0.3,0,0.3c4.2,0.4,5.6,5.2,5.9,6.4c0,0.2-0.1,0.1-0.1,0.1
		C76,47.8,59.5,35.7,34.8,40.2C34.6,40.2,34.6,40.2,34.7,40.1 M77.4,18.5c-2-0.2-3.2,0.7-3.3,2.1c-0.1,1.4,1.4,2.7,3.4,2.9
		c1.7,0.2,3.2-0.5,3.6-1.6l-1.7,0c0,0,0,0,0-0.1c0.2-1.1-0.7-2.1-2.3-2.4c-0.1,0,0,0,0,0l2.8,0C79.5,18.9,78.2,18.5,77.4,18.5
		 M81.4,9c-0.8-0.6-4.5-2.8-7.5-3.6c-7.4-1.9-15.2,1-17.3,1.6C50,9,45.7,7.5,44.2,6.7c-0.3-0.1-0.3,0-0.1,0.1
		c0.9,0.7,2.9,2.1,5.7,2.7c2.2,0.5,5.1,0.3,8.6-0.4c2.2-0.4,7.6-2.3,11.4-1.2c0.1,0,0.1,0.1,0,0.1c-4.4,0.7-6.3,2.6-8.4,4.9
		C31.4,15.8,4.5,28,1.9,29.1c-0.1,0-0.1,0,0-0.1c1.4-0.9,9.9-6.7,24.3-12.2c0.1,0,0.1-0.1,0-0.1c-1.3,0.1-5.5,0.1-9.9-3.6
		c-0.1-0.1,0-0.1,0.1-0.1c9.2,1.3,13.8,0.5,18.1-0.8c0.1,0,0.2-0.1,0-0.1c-0.9-0.1-3.7-0.7-7.4-4.8c-0.1-0.1,0-0.2,0.1-0.1
		C33.5,9.7,41.4,8.3,42.8,8c0.1,0,0.1-0.1,0.1-0.2c-0.8-0.8-2.5-2.7-3-5.6c0-0.1,0.1-0.2,0.3-0.1c12.3,10.9,21.8-5.7,39,1.9
		c0.1,0.1,0.2,0,0.1-0.1l-0.8-2.8c0-0.1,0.1-0.2,0.2-0.1l19.1,17c15.9,2.2,29.3,5.7,37.8,11.1l-2.6,0.8c-19.3-5.6-38.4-2.9-47-1.6
		c-6.1,0.9-12.5-0.4-14.8-2.7c-0.1-0.1,0-0.2,0.2-0.2c7,2,13.1-1.8,10.9-6.6l-5.8-2.1c-2.9-0.4-5.2,0.9-5.3,3.3
		c-0.1,2,1.1,3.7,3.1,4.5c0.2,0.1,0.2,0.2,0,0.2c-2.7-0.2-5.9-2.7-4.4-6.4c0,0,0-0.1-0.1-0.1c-1.2,0.4-2.6,0.7-3.7,0.4
		c-0.1,0-0.1-0.1,0-0.1c2.5-0.5,6.8-4.5,11.3-3l6.1,2.1c1.8,0.6,3.4,0.3,3.9,0.1c0.1,0,0.1-0.1,0-0.1l-9.3-4c-10-3.6-16.3,2-17.3,3
		c-0.1,0.1-0.1,0-0.1-0.1c1.7-5.5,9.8-8.6,18-5.6L92.5,17c0.1,0.1,0.1,0,0.1-0.1L81.1,7C81,7,81,7,81,7.1L81.6,9
		C81.6,9.1,81.5,9.1,81.4,9 M90.2,24.2c10.7-2.4,25.2-0.4,28.3,0c0.4,0,0.2,0,0-0.1c-7.5-2.6-19.5-4-21-4.1c-0.1,0-0.2,0.1-0.3,0.1
		c-1.5,2.1-6.2,3.6-7.1,3.9C89.8,24.1,89.8,24.3,90.2,24.2"/>
	<path class="st2" d="M10.5,35.7c4.6-1.4,17.4-4.3,22.5-4c0.2,0,0.3,0.2,0,0.2c-3.7,1.1-10.4,4-15,8.6c-0.1,0.1-0.1,0.2,0.1,0.1
		c9.5-4.8,18.9-6.5,20.9-7c0.2,0,0.3,0,0,0.2c-0.9,0.6-3.4,2.4-5.8,6c-0.1,0.1,0,0.2,0.1,0.1c10.6-6.7,20.2-9.9,29.7-12
		c0.3-0.1,0.3-0.2,0-0.2c-8.4-0.3-22.4,1.8-28,3.7c-0.2,0.1-0.3,0,0-0.2c6.5-4.1,20.3-6.7,24.4-7.5c0.5-0.1,0.3-0.2,0-0.2
		c-6.7-0.5-17.2,0.9-25.5,2.9c-0.3,0.1-0.3-0.1,0-0.2c5-2.6,15.5-5.9,23.2-6.4c0.3,0,0.2-0.2,0-0.2c-10.9-1.9-37.9,3.1-54.3,11
		c-0.1,0-0.1,0.1,0,0c2.1-0.4,19.9-4.2,29.4-3.8c0.2,0,0.2,0.1,0,0.2c-9.9,2.6-18.6,6.1-21.7,8.7C10.2,35.7,10.4,35.7,10.5,35.7"/>
	<g>
		<path class="st0" d="M141.4,73.2h6.6v1.3h-8V60.4h1.4V73.2z"/>
		<path class="st0" d="M151.4,74.5H150V60.4h1.4V74.5z"/>
		<path class="st0" d="M159.5,72.3L159.5,72.3l4.7-11.9h1.6l-5.5,14.1h-1.4l-5.4-14.1h1.6L159.5,72.3z"/>
		<path class="st0" d="M169.1,73.2h7.5v1.3h-9V60.4h8.7v1.3h-7.3v4.8h6.8v1.3h-6.8V73.2z"/>
		<path class="st0" d="M186.3,62.7c-0.6-0.9-1.5-1.4-2.7-1.4c-1.5,0-3,0.8-3,2.5c0,3.8,7.2,1.8,7.2,6.9c0,2.6-2.4,4.1-4.6,4.1
			c-1.7,0-3.4-0.6-4.4-2.1l1.3-0.9c0.6,1,1.7,1.7,3.2,1.7c1.4,0,3-0.9,3-2.6c0-4-7.2-1.8-7.2-6.9c0-2.7,2.3-4,4.6-4
			c1.6,0,2.9,0.4,4,1.7L186.3,62.7z"/>
	</g>
	<g>
		<path class="st0" d="M198.6,63.1h-4v-2.7h11.1v2.7h-4v11.3h-3.1V63.1z"/>
		<path class="st0" d="M207.3,60.4h5.4c2.9,0,5.3,1,5.3,4.3c0,2-1.1,3.5-3,3.9l3.6,5.9h-3.7l-2.9-5.6h-1.5v5.6h-3.1V60.4z
			 M210.4,66.2h1.8c1.1,0,2.6,0,2.6-1.6c0-1.4-1.3-1.6-2.4-1.6h-2V66.2z"/>
		<path class="st0" d="M224.8,60.4h2.6l6.1,14.1H230l-1.2-3h-5.5l-1.2,3h-3.4L224.8,60.4z M226,64.5l-1.7,4.4h3.4L226,64.5z"/>
		<path class="st0" d="M235,60.4h4.2l6,9.8h0v-9.8h3.1v14.1h-4.1l-6.1-10h0v10H235V60.4z"/>
		<path class="st0" d="M258.1,63.8c-0.5-0.6-1.5-0.9-2.2-0.9c-0.9,0-2.1,0.4-2.1,1.5c0,2.6,6.5,0.9,6.5,5.8c0,3.1-2.5,4.6-5.4,4.6
			c-1.8,0-3.4-0.5-4.7-1.8l2.2-2.4C253,71.5,254,72,255,72c1,0,2.1-0.5,2.1-1.5c0-2.6-6.6-1.2-6.6-5.9c0-3,2.6-4.6,5.4-4.6
			c1.6,0,3.1,0.4,4.3,1.5L258.1,63.8z"/>
		<path class="st0" d="M262.7,60.4h9.4v2.9h-6.3v2.9h5.9V69h-5.9v5.5h-3.1V60.4z"/>
		<path class="st0" d="M281.2,60c4.4,0,7.6,2.9,7.6,7.4c0,4.5-3.2,7.4-7.6,7.4s-7.6-2.9-7.6-7.4C273.6,62.9,276.8,60,281.2,60z
			 M281.2,72c2.6,0,4.4-1.9,4.4-4.5c0-2.6-1.7-4.5-4.4-4.5s-4.4,1.9-4.4,4.5C276.9,70.1,278.6,72,281.2,72z"/>
		<path class="st0" d="M291,60.4h5.5c2.9,0,5.3,1,5.3,4.3c0,2-1.1,3.5-3,3.9l3.6,5.9h-3.7l-2.9-5.6h-1.5v5.6H291V60.4z M294.1,66.2
			h1.8c1.1,0,2.6,0,2.6-1.6c0-1.4-1.3-1.6-2.4-1.6h-2V66.2z"/>
		<path class="st0" d="M303.8,60.4h4.7l3.2,9.2h0l3.3-9.2h4.7v14.1h-3.1V63.7h0l-3.7,10.8h-2.4L307,63.7h0v10.8h-3.1V60.4z"/>
		<path class="st0" d="M322.8,60.4h9.6v2.9h-6.5v2.6h6.1v2.9h-6.1v2.9h6.8v2.9h-9.9V60.4z"/>
		<path class="st0" d="M335.2,60.4h4.7c4.5,0,8.3,1.9,8.3,7.1c0,4.6-3.7,7-7.9,7h-5.1V60.4z M338.3,71.6h1.6c2.9,0,5.1-1.1,5.1-4.3
			c0-2.8-2.2-4.1-4.8-4.1h-1.8V71.6z"/>
	</g>
</g>
</svg>
