<?xml version="1.0" standalone="no"?><!DOCTYPE svg PUBLIC "-//W3C//DTD SVG 1.1//EN" "http://www.w3.org/Graphics/SVG/1.1/DTD/svg11.dtd" ><svg xmlns="http://www.w3.org/2000/svg" xmlns:xlink="http://www.w3.org/1999/xlink"><defs><svg viewBox="0 0 0 0" id="fonts--font-awesome--fonts--fontawesome-webfont"/><svg id="line" viewBox="0 0 239.8 19"><style>.bst0{fill:#9a9a9a}</style><path id="bXMLID_110_" class="bst0" d="M238.4 4.8c-.2-.2-.4-.4-.7-.5-3.2-1.2-6.2-3.2-9.9-2.7-2.4.3-4.9.2-7.3.3-6 .5-11.8-.8-17.7-1.4-9.2-.9-18.4-.1-27.6-.1-19.6.1-39.3-1.4-58.9.3-8.8.8-17.6-.4-26.3.8-8.2 1.1-16.4 1.4-24.7 2-5.4.4-10.8.8-16.2 1-4.2.1-8.3-.2-12.5 0-6.2.2-12.3.5-18.5.8-4.9.1-9.7.3-14.6.5-2 .1-3.3 1-3.5 3.6 4.6 3.3 10.1 1.4 15.3 1.8-.1 2.6-2 2.4-3.2 3.2-1.1.7-2.2 1.6-1.4 2.9.6.8 1.9 1.2 2.9 1.7.2.1.5-.1.8-.2 10.5-1.7 21-3.5 31.6-5 6.3-.9 12.6-1.2 18.9-1.8 8.4-.8 16.7-1.7 25.1-2.2 11.9-.7 23.8-1 35.7-1.4 16.4-.5 32.7-1 49.1-1.3 4.2-.1 8.5.1 12.7.8 4 .7 7.8 1.1 11.4-1.2.5-.3 1.3-.3 2-.3 8 0 16 0 23.9.1 3.9 0 7.8.4 11.6 1.9.8.3 2.3 0 2.8-.6 1.2-1.2.2-2.2-.8-3zm-162.1.7c2.3-.1 4.5-.2 6.8-.2-2.3 1.4-4.5 1.8-6.8.2z"/></svg><svg viewBox="0 0 296.6 249.3" style="version:1" id="msudenver_informal"><style>.cst0{fill:#fff}.cst1{fill:#00447c}.cst2{fill:#d11242}</style><switch><g><path class="cst0" d="M211.3 36.9L170.8.7c-1.8-1.6-4.5-.4-3.9 2.2l.6 2c.1.2-.1.2-.2.2-5.6-2-11.3-3.1-17.1-3.1-9.3 0-17.3 2.4-25.1 4.8-6.5 1.9-12.7 3.8-18.7 3.8-6.8 0-12.7-2.6-18.6-7.8-2.1-1.8-4.7-.7-4.1 2.2.8 3.8 2.2 7.3 4.6 10.5.1.1 0 .2-.1.3-2.7.3-6.4.7-10.7.7-7.1 0-13.3-1-18.5-3-2.6-1-4.9 1.3-2.7 3.6 4 4.4 7.5 7 10.4 8.7.1.1.1.3 0 .3-3.9.8-8.4 1.4-14.1 1.3-5.1 0-14.9-1.1-17.2-1.4-2.4-.4-3.5 2.6-1.9 4 5.1 4.1 9.9 6.3 14 7.4.2 0 .2.2 0 .3-26 10.5-41.7 20.9-44.8 23.2-5 3.5-2.7 7.9 3.6 6.6 3.3-.7 27-5.7 46.8-7.5.3 0 .3.1.1.2C38.4 64.9 26.5 70.5 21 74.8c-2.3 1.9-.5 4.8 2.2 3.9 6.9-2.4 22.7-5.8 35.2-7.6.2 0 .3.1.1.2-6.8 3.2-14.7 8.1-21.2 14.3-2 2-.4 5.2 2.8 3.6 13.8-7.2 27.6-11 36.3-13 .2 0 .3.1.2.2-2 2-4.5 4.7-6.6 8.2-1.8 2.9-.8 5.1 5.3 4 37.9-6.9 75.8 3.6 101.6 30.8 2.5 2.6 4.8 1.5 4.6-1-.2-2.2-.7-5.7-.6-9.7.5-15 4-24.4 23.2-28.2 20.1-4 53.4-5.3 66.4-5.9l8.6-5.8c-18.1-3.2-55.6-7-78.5-6.7-2.4 0-2.6-.5-.2-.8 11.3-1.4 49.9-5.2 85.8 5.7l10.3-3.4c-19.9-14-48.3-21.5-85.2-26.7z"/><path class="cst1" d="M74.8 86.3c27.2-11.6 92.6-32.5 198.7-16.4l-3.7 2.6s-45.6 1.9-66.1 5.9c-14.7 2.9-24.9 8.9-25 30.6 0 3 .3 6.3.6 9.6 0 .3-.3.3-.4 0-2.3-6-11.2-23.4 5.8-40 2.2-2 1.7-7.2-5-7.4-23.4-.8-58.5 3.9-75.4 9.2-.8.2-.7.5.1.4 31.5-3.7 52.7-2.4 66.7 1.4.4.1.4.4-.1.4-2.6-.2-24.1-1.5-37.8 3.1-.6.2-.6.6.1.6 22.7-1 33 2.1 35.8 3.3.4.2.3.4-.1.3-2.6-.1-10.4 0-18 2.4-.5.2-.5.6.1.6 12.1.9 17.3 3.4 19 4.4.4.3.4.4 0 .5-1.5.2-5.3.7-7.8 1.8-.4.2-.3.6.1.6 9.1.8 12.1 11.2 12.7 13.8.1.4-.2.3-.3.1-11-11.3-46.6-37.4-99.7-27.7-.6.2-.7.1-.3-.1zm91.9-46.5c-4.2-.4-6.9 1.5-7.2 4.5-.2 2.9 3 5.7 7.2 6.2 3.7.4 6.8-1.1 7.8-3.4h-3.6s-.1 0-.1-.1c.5-2.4-1.5-4.5-4.9-5.2-.2 0 0-.1 0-.1h6c-.9-1-3.6-1.8-5.2-1.9zm8.6-20.4c-1.8-1.2-9.6-6.1-16.2-7.8-15.9-4.1-32.8 2.2-37.2 3.5-14.2 4.2-23.4.9-26.8-.6-.6-.3-.6 0-.2.3 2 1.4 6.1 4.4 12.2 5.7 4.7 1 11.1.5 18.5-.9 4.8-1 16.4-4.8 24.5-2.6.2.1.2.2 0 .3-9.4 1.5-13.5 5.6-18 10.5C67.5 34 9.7 60.2 4 62.8c-.2.1-.3 0-.1-.1 3-2 21.4-14.4 52.3-26.3.2-.1.2-.2-.1-.2-2.7.2-11.8.2-21.3-7.8-.1-.1 0-.3.2-.3 19.7 2.8 29.7 1.1 38.9-1.7.2-.1.4-.2 0-.2-2-.2-8-1.5-16-10.4-.2-.2 0-.4.3-.3 13.9 5.4 30.9 2.5 33.9 1.9.3-.1.3-.3.1-.5-1.7-1.9-5.3-5.9-6.4-12.2-.1-.3.3-.4.6-.2 26.5 23.6 47-12.2 84 4.2.3.1.3 0 .3-.2l-1.7-6c-.1-.3.1-.3.4-.2l41 36.7c34.3 4.7 63.2 12.2 81.4 23.8l-5.6 1.8c-41.6-12-82.6-6.3-101.3-3.5-13.1 1.9-26.8-.9-31.9-5.8-.2-.2.1-.5.4-.4 15.1 4.4 28.1-3.8 23.5-14.2l-12.4-4.5c-6.2-.9-11.3 2-11.5 7-.2 4.3 2.3 8.1 6.8 9.7.4.1.4.4 0 .4-5.9-.4-12.6-5.9-9.5-13.9 0-.1-.1-.2-.2-.1-2.5.9-5.5 1.4-7.9.8-.2-.1-.2-.3 0-.3 5.4-1 14.7-9.6 24.4-6.5l13.2 4.6c4 1.4 7.4.6 8.4.3.2-.1.2-.2.1-.3l-20.1-8.7c-21.4-7.8-35.1 4.2-37.3 6.5-.2.2-.2 0-.2-.2 3.7-11.8 21-18.6 38.7-12.1l29.8 13.3c.2.1.3 0 .1-.2l-24.7-21.3c-.2-.2-.3-.1-.3.1l1.2 4c.2.2 0 .3-.2.1zm18.8 32.7c23-5.2 54.4-.9 60.9.1.8.1.5-.1.1-.2-16.2-5.5-42-8.5-45.3-8.9-.2 0-.5.2-.6.3-3.2 4.5-13.4 7.7-15.3 8.3-.5.1-.6.6.2.4z"/><path class="cst2" d="M22.6 76.4c9.9-3.1 37.4-9.2 48.5-8.7.5 0 .5.4.1.5-8 2.5-22.5 8.5-32.4 18.5-.2.3-.1.4.2.3 20.5-10.4 40.6-14 45.1-15 .4-.1.5.1.1.4-2 1.3-7.4 5.2-12.5 12.9-.2.3 0 .4.2.3 22.8-14.5 43.5-21.4 63.9-25.9.6-.1.6-.5-.1-.5-18.1-.8-48.2 3.8-60.3 7.8-.5.2-.5-.1-.1-.4 14-8.7 43.7-14.4 52.5-16.2 1-.2.6-.5-.1-.5-14.5-1.1-37.1 1.8-54.8 6.2-.5.1-.6-.2 0-.5 10.7-5.6 33.4-12.7 50-13.9.5 0 .5-.3-.1-.4-23.5-3.9-81.6 6.6-117 23.7-.1.1-.2.2 0 .1 4.4-.9 42.8-9 63.2-8.2.5 0 .5.3 0 .4-21.3 5.6-40 13.2-46.5 18.8-.5.3-.2.4.1.3z"/><g><path class="cst0" d="M152.3 195.6c-6.1 0-13.8-2.5-15.7-2.5l-1.2-13.4h1.1c2 5.6 7.2 12.2 17 12.2 8.5 0 12.4-6.2 12.4-11.6 0-5.6-2.3-9-9.5-14.1l-4-2.9c-9.5-7-14.6-12.6-14.6-21.2 0-9.8 8.4-16.4 21.4-16.4 5.1 0 10.7 1.1 13 1.3l1.3 12.4h-1.1c-1.9-5.9-7.2-10.1-14.4-10.1-6.9 0-11 4.3-11 9.7 0 5.4 2.9 8.4 10 13.6l2.4 1.7c10.4 7.6 16.9 13.6 16.9 22 .3 12.4-11.1 19.3-24 19.3zm104-68.4v1.2c-3.1.6-5.9 2.7-6.1 5.7v33.1c0 19.3-10.4 28.5-30.2 28.5-19.8 0-30.2-9.1-30.2-28.5V134c-.2-3-3-5-6.1-5.7v-1.2h23.4v1.2c-3.1.6-6.1 2.7-6.3 5.7v34.5c0 16.5 7 23.2 19.2 23.2 12.3 0 19.2-6.7 19.2-23.2V134c-.2-3-3.2-5-6.2-5.7v-1.2h23.3zM59.4 127.2l24 51.7 24.2-51.7h17.1v1.2c-3.1.6-6 2.7-6.2 5.7v52.8c.2 3.1 3.2 5.1 6.2 5.8v1.2h-23.4v-1.2c3-.6 6-2.7 6.2-5.8v-47.4l-27 57.5h-1.3L52 139.3v47.5c.2 3.1 3.2 5.1 6.2 5.8v1.2H40.3v-1.2c3.1-.6 6-2.7 6.2-5.8V134c-.2-3-3.2-5-6.2-5.7v-1.2h19.1zM186.9 216H180l-9 21.2-9-21.2h-6.8l14.7 33.3h2.3l14.7-33.3zm-48.1 0v20.1L121.3 216h-3.1v33.3h6.3v-20.1l17.5 20.1h3.1V216h-6.3zm-98.5 33.3V216h10.6c5.9 0 18 1.7 18 16.7s-12.2 16.7-18 16.7H40.3zm22.3-16.7c0-8.1-4.6-10.7-11.9-10.7h-4.1v21.4h4.1c7 0 11.9-2.6 11.9-10.7zm155.1 16.7v-6h-14.3V235h13.5v-6h-13.5v-7.1h14.3v-6h-20.5v33.3h20.5zm-114.3 0v-6H89.1V235h13.5v-6H89.1v-7.1h14.2v-6H82.8v33.3h20.6zm145.3-12.5c3.4-1.5 6.6-4.4 6.6-9.8 0-8.5-7.3-11-12.1-11h-11.1v33.3h6.3v-27.4h4.7c3.7 0 5.8 2.1 5.8 5 0 3-2.4 5.1-5.8 5.1H239v.4l10.3 16.8h7l-7.6-12.4zM265.2 132.7c0 .5.1 1.5 1.9 1.5 1.6 0 1.8-1 1.8-1.4 0-.9-.7-1-1.8-1.3-1.2-.3-1.7-.4-2.1-.7-.6-.4-.8-1-.8-1.5 0-1.6 1.5-2.3 3-2.3.5 0 1.6.1 2.2.8.4.5.5 1 .5 1.3h-1.1c-.1-1-.9-1.2-1.6-1.2-1.1 0-1.7.5-1.7 1.3 0 .7.5.9 1.4 1.2 1.9.5 2.1.5 2.5.8.7.5.8 1.2.8 1.5 0 1.4-1.1 2.4-3.1 2.4-.6 0-1.8-.1-2.4-.9-.4-.6-.5-1.2-.5-1.6h1zm6.4-5.5h1.9l2.2 6.4 2.2-6.4h1.8v7.8h-1.1v-7l-2.5 7h-1l-2.5-7v7h-1v-7.8z"/></g></g></switch></svg><svg id="runyourownroad" viewBox="0 0 436.5 265.8"><style>.dst0{fill:#fff}</style><g id="dXMLID_2_"><path id="dXMLID_65_" class="dst0" d="M231 100.2c-.9 1.4-1.3 3.2-3.1 3.8-.7.2-1.3.5-2 .8-.5.2-1 .4-1.3.8-2.1 2.5-4.2 5.1-6.1 7.7-1.6 2.1-3 4.4-4.5 6.7-1.3 2-2.6 4-3.8 6.1-1.7 2.7-2.7 5.7-2.9 8.9-.1 1.7.6 2.9 2.2 3.7.8.4 1.7.8 2.5 1.2.9.4 1.7.3 2.4-.3 1.8-1.7 3.4-3.5 4.5-5.8.8-1.6 1.5-3.3 2.3-4.9 1.4-2.8 3-5.6 4.1-8.5 1.8-4.7 4.1-9.2 5.1-14.2.2-.8.6-1.9 1.1-2.1 1.6-.6 2.5-2.1 3.8-3 .7-.4 1.5-1 1.4-2.2H235c.6-.7 1.1-1.3 1.6-1.8 1.9-2 3.9-4 5.8-6l6-6.3c.5-.6 1-1.2 1.4-1.9-.3 1.5-.8 2.9-1.6 4.1-1.8 2.9-3.2 5.9-4.1 9.2-.8 2.9.7 5.8 2.9 6.8 2.6 1.2 5.2.8 7.6-.5 2.3-1.3 4.2-3.3 5.7-5.4 1.6-2.3 3-4.9 4.3-7.4.9-1.7 1.6-3.5 2.2-5.3.4-1.2.6-2.5.9-3.8 2.9 0 5.3-1.5 7.6-3 1-.6 1.9-1.4 2.9-2 .2-.2.6-.1 1.2-.3-.4.8-.6 1.4-1 2-1.7 2.8-2.7 5.8-3.7 8.9-.3 1-.2 1.9.4 2.8 1.1 1.6 2.7 2.6 4.4 3.4 1.2.6 2.7.8 4.1 0 1.6-1 3.2-1.9 4.7-3 1-.7 1.7-1.7 2.7-2.5.4-.3.8-1 1.4-.2-.8 1.6-.1 2.6 1.7 2.6h.2c1.4.1 2.6-.5 3.7-1.3 1.5-1.1 3.1-2.3 4.5-3.6 1.1-1 2-2.3 2.9-3.5 1.7-2 3.6-4 4.8-6.4.8-1.5 1.5-3 2.4-4.5.5-.9.8-1.6-.1-2.8.8-.1 1.3-.1 2.2-.2-.8 1.3-.2 1.7.6 2.1 1.1.5 2 .3 3-.2s2.1-1 3.3-.7c-.1.3 0 .4-.1.6-1.4 2.5-2.7 5-4.2 7.5-1.2 1.9-1.7 4.1-2.3 6.2-.4 1.5-.2 3 .3 4.5.8 2.2 2.3 3.6 4.5 3.9 1.9.3 3.8.1 5.7.1.3 0 .9-.5 1-.8.3-1-.7-2.1-1.8-1.9-.8.2-1.4-.1-2-.5-2.2-1.4-2.9-3.1-2.2-5.7.3-1 .5-2 .2-3.1-.2-.8-.2-1.7.1-2.4 1.4-3.8 3.5-7.1 6.3-10 .9-.9 1.8-1.7 2.6-2.6 1-1 1-2.3.1-2.9-.9-.6-2.9-.3-3.7.5-1.8 1.7-4.2 2.4-6.5 3.2-.5.2-1 0-1.4 0-.5-.7-.2-1.1.1-1.6 1.6-2.6 3.2-5.1 4.8-7.7.2-.4.5-.9.5-1.3 0-.6-.2-1.2-1-1.5-.8-.3-1.4 0-1.9.6s-.8 1.6-1.4 2c-1.3.8-2 1.9-2.7 3.1-.2.5-.6.8-1 1.2-3.8 4-6.9 8.6-9.9 13.3-2 3.1-3.8 6.4-6.2 9.3-1.6 1.9-3.3 1.7-5.3 1.5.8-1.7 1.4-3.2 2.2-4.7 2.4-4.2 4.8-8.3 7.2-12.4.5-.8.8-1.7 1.2-2.5.4-.8 0-1.3-.7-1.8-.6-.4-1.1-.2-1.6.2-.3.3-.7.6-1 .9-.4.4-.6.9-.9 1.4-.2.3-.3.7-.5 1-1.4 2-2.9 4-4.4 5.9-.7 1-1.6 1.9-2.4 2.8-1.3 1.4-2.6 2.8-3.9 4.3-2.8 3-5.6 6.1-8.5 9.1-.3.4-.8.6-1.4 1.1-.3-.7-.7-1.2-.7-1.8-.4-3.2.4-6.1 2.3-8.8.5-.7.9-1.4 1.2-2.1 1.2-2.8 2.8-5.3 5.1-7.2 1.5-1.2 1.8-2.8 2.4-4.4.2-.7 0-1.3-.6-1.6-.7-.4-1.2-.2-1.8.3-.2.1-.3.4-.4.6-1.1 1.5-2.4 2.7-3.9 3.7-1.3.8-2.6 1.8-3.7 2.9-2.4 2.4-5.3 4.2-8.3 5.6L269 75v-1.3c0-.4-.1-.8-.2-1.2-.2-.7-.5-1.3-1.4-1.3-.8 0-1.6.6-1.7 1.4 0 .9-.5 1.1-1.2 1.2h-.5c-1.8.3-2.5 1.6-1.7 3.2.3.7.9 1.2 1.4 1.8l1.4 1.4c-.3 1.5-.5 2.8-.9 4-.4 1.3-1 2.5-1.6 3.7-.7 1.2-1.7 2.3-2.3 3.5-.6 1.3-1.9 1.8-2.8 2.6-1.1 1-2.4 1.7-3.6 2.4-1 .6-2.2.5-3.3.3-1.5-.3-1.7-1.1-1.2-2.6 1.2-3.4 2.5-6.7 4.4-9.7 1.1-1.8 2-3.9 3.4-5.5 1.9-2.1 3.8-4.3 6.3-5.8.8-.5 1.5-1.1 2.2-1.8.5-.6.4-1.5-.1-2.1-.5-.6-1.1-.5-1.8-.2-.3.1-.6.3-.9.6-1.9 1.5-3.7 3-5.6 4.5-.8.7-1.6 1.4-2.7 1.9-1.2.6-2.1 1.6-3.1 2.5-2.5 2.6-5 5.3-7.6 7.9-1.7 1.7-3.5 3.4-5.2 5.1-.7.7-1.3 1.6-1.9 2.4-.2-.7-.2-1.3.1-1.7.5-.9 1.1-1.7 1.8-2.4 3.1-3 5.8-6.4 8.3-10 1.9-2.7 3.6-5.6 5.5-8.3 2.1-3.2 4.3-6.3 6.5-9.4.9-1.3 1.1-2.7 1.2-4.3-1.3-.1-1.5.7-1.7 1.5-.2.8-.4 1.7-1.7 2.3.7-1.4 1.2-2.5 1.8-3.5.1-.2.5-.5.7-.5.7 0 1.1-.3 1.2-1 .1-.6.3-1.2.2-1.7-.2-1.2-.9-1.5-2-1-.4.2-.7.4-1 .6-2 1.4-3.7 3-5 5-1.5 2.3-3.4 4.5-4.8 6.9-1 1.6-1.7 3.4-2.9 5-.7.9-.9 2.2-1.6 3.1-2.3 3.1-4.1 6.5-7 9.2-1.7 1.5-3 3.5-4.6 5-2.2 2.1-4.7 4.1-7 6.2-.6.6-1.3.9-2 .4-.9-.5-2.1-.8-1.9-2.2.1-1.2.2-2.3.5-3.4 1.3-4.9 3.8-9.3 6.1-13.7 2.2-4.1 4.7-7.9 7.1-11.8.8-1.3 1.7-2.5 2.5-3.8 1.3-1.8 2.6-3.6 3.8-5.5.4-.6.9-1.4.3-2.1-.6-.7-1.5-1-2.3-1.6-.6-.5-1.1.3-1.5.8-3.1 3.5-5.1 7.7-7.4 11.7-1.8 3.1-3.4 6.2-5.1 9.4-1 1.8-1.8 3.7-2.8 5.5-1.5 2.8-2.1 5.9-3.1 8.9-.7 2.3-1.2 4.6-1.7 7-.2.8-.2 1.8-.1 2.6.2 2.2 2.6 3.2 4.4 2.6 1-.3 2.2-.7 3.2-.5 1.7.3 3.1-.1 4.4-1.1 1-.8 2.1-1.6 3.1-2.4.5.7.2 1.4-.1 2-.1.6-.6 1.6-1.2 2.5m-5.8 12.6c-.8 2.1-1.6 4.2-2.5 6.3-1.4 3.2-2.7 6.5-4.1 9.7-.7 1.5-1.3 3-2 4.5-1 2-2.4 3.7-4 5.3-2.2-1.2-3.2-3.6-2.5-6 .6-1.9 1.4-3.7 2.6-5.4 1.3-1.8 2.5-3.8 3.7-5.7l.1-.1c2.7-3.4 5.4-6.9 8.1-10.3.3-.4.6-1.1 1.4-.6-.3.7-.6 1.5-.8 2.3m82.4-38.4c.1.1.3.1.4.2l-.6.9c-.1 0-.1-.1-.2-.1.1-.4.2-.7.4-1m-14.4 2.7c-1.6 4.9-5.3 9.8-8.8 11 3.1-3.7 5.9-7.4 8.8-11m-41.6 22.4c.9-.2 1.8-.6 2.9-1-2 2.5-5.8 2.6-7.5.4-.7-1-.7-2.6 0-3.7.5-.7.9-1.5 1.4-2.3.2 1.6.2 1.6-1.2 2.6.1.4.2.7.2.9 0 .9.1 1.7 1 2.2 1 .8 2 1.2 3.2.9m-1.3-28.9l.3.3c-1.7 2.4-3.5 4.9-5.4 7.6.2-2.2 3.5-7 5.1-7.9m-19.4 22.3c2.2-2.5 4.2-4.7 6.3-7-1.2 3-3.1 5.4-6.3 7"/><path id="dXMLID_49_" class="dst0" d="M390.9 97.3c-.9-.6-1.8-.5-2.7.1-3 2-5.8 4.2-7.9 7.1-3 4-5.9 8.2-8.8 12.3-.4.6-.9.8-1.6.7-.9 0-1.7 0-2.6.1-4.7.9-8.3 3.7-11.7 6.7-3.1 2.8-5.8 6-8.4 9.4-2.9 3.8-5.9 7.5-8.9 11.1-1.7 2-3.6 3.9-5.8 5.3-1.2.7-2.4 1.3-3.7.5-.2-.8-.2-1.5.6-1.9.4-.2.6-.7.8-1.1.3-.6.4-1.2.8-1.7l5.4-7.8c2.5-3.7 6-6.5 8.2-10.5.1-.2.3-.3.5-.5.2-.3.5-.7.6-1 .5-1.1.1-1.8-1-2.1-.4-.1-.9-.3-1.3-.5-.9-.4-1.7-.2-2 .7-.4 1.4-1.1 2.4-2.7 2.6-.3.1-.7.6-.8 1 0 .3.5.6.7.8-.3.7-.5 1.3-.8 1.9-.1.2-.4.4-.6.6-.5.5-1.2 1-1.6 1.6-1.5 2-2.8 4.2-4.3 6.2-.6.9-1.1 1.9-2.4 2.2-.5.1-.8.6-1.2 1-2.9 3-5.8 6-8.8 9-.5.5-1.2.9-1.9 1.2-.6.3-1.1.2-1.6-.4-.7-.9-1-1.9-.6-3.1.8-2.2 2.2-4.1 3.2-6.2 1.2-2.5 2.9-4.4 5.2-5.8.8-.5 1.7-1 2.2-1.7 1-1.5 2.5-2.5 4-3.3 1.4-.8 2.8-2 4.6-2 .8 0 1.5-.6 1.7-1.4.2-1.4 1.3-1.7 2.3-2.1.5-.2 1.1-.4 1.6-.7.7-.4 1.1-1.1.9-1.9-.3-.8-1-1.1-1.8-1-.2 0-.3.1-.5.1-2.8.6-5.4 1.6-7.7 3.4-2.5 1.9-4.9 3.8-7.3 5.7-.6.5-1.3 1.1-1.9 1.5-.9.6-1.8 1.3-2.8 1.8-1.4.7-2.8 1.2-4.2 1.8-.6.3-1.2.7-2 .2.3-.5.7-.9.8-1.3.4-2 .5-4.1.3-6.2 0-.3-.2-.6-.4-.8-.9-1-1.9-2-3.4-1.7-.4.1-.8.1-1.2 0-3.6-.8-6.7.5-9.6 2.3-2.1 1.3-4 2.9-5.9 4.4-.6.5-1.1 1-1.6 1.6-1.2 1.4-2.3 2.8-3.5 4.2-1.6 1.9-3.2 3.7-4.7 5.6-1.8 2.2-2.8 4.8-2.9 7.7 0 .8 0 1.6-.1 2.5-.4 4 2 5.3 4.6 5.8.7.1 1.6 0 2.2.3 1.5.7 2.9.3 4.2-.3.6-.3 1.3-.5 2-.8 1.8-.7 3.8-1.3 5.5-2.3 2.8-1.8 5.2-4.1 7.3-6.8 1.5-2 2.7-4.1 4.1-6.1.4-.5.8-1 1.4-1.3 1.3-.7 2.6-1.3 3.9-2 0 .7-.3 1.1-.6 1.6-1.5 2.3-2.8 4.7-3.3 7.5-.1.3-.2.7-.3 1-.5 1.5-1 3-1.4 4.5-.4 1.5.7 2.4 2.2 2.2 1.3-.2 2.4-.9 3.4-1.6.5-.4 1-.8 1.6-1.1 1.8-.9 3.7-1.8 5.5-2.8 1.2-.6 2.3-1.3 3.3-1.9.3.8.3 1.6.8 2.1 1.6 1.8 3.8 1.8 5.6.7 2.3-1.5 4.6-3 6.3-5.2.2-.2.6-.3 1.1-.6-.3 1.1-.7 2-.8 2.8-.4 2 1.2 3.4 3 2.8 1-.3 2-.9 2.9-1.6 2.6-1.8 5.2-3.6 7.7-5.4.5-.3.9-.8 1.3-1.1.3-.2.5-.4 1.2-.8-.2.9-.3 1.5-.4 2-.4 1.7-.9 3.4-1.3 5.1-.4 1.6.3 2.2 2 2.1h.6c1.3 3.7 4.2 4.8 7.8 5.1 1.1.1 2.1-.1 3.1.2 1.1.3 2-.2 2.9-.5.9-.4 1.2-1.7.3-2.1-.9-.5-1-1.2-1.4-2.4-.6.4-.9.7-1.3.9-.7.5-2.5.6-2.8.1-.3-.8-1.1-1-1.7-1.4-2.6-1.9-2.9-5.1-2.2-7.4.6-1.9 1.6-3.6 2.5-5.4 1.4-2.8 2.9-5.5 4.7-8 .5-.6.6-1.5 1.1-2.2 1.1-1.6 2.3-3.1 3.5-4.6 2.6-3.5 5.1-7 7.8-10.4 3.3-4.3 5.9-9.1 9.4-13.3.7-.8 1.1-1.8 1.5-2.7.8-1.5.7-2.4 0-2.9m-89.6 39.1c-.2.5-.3.8-.4 1.1-.1.3-.2.7-.4 1.2.4.3.8.6 1.5 1.1-1 .1-1.5.2-2 .3-.2-3.1-.2-3.1 1.3-3.7m-6.1-2.8l.3.3c-.3.2-.5.5-.8.7l-.2-.2c.2-.3.4-.6.7-.8m-1 24.4c.8-.5 1.3-.9 1.9-1.3l.3.3c-.6.4-.9 1.4-2.2 1m7.4-9.1c-1.6 2.4-4.1 3.8-6.4 5.4-1.2.9-2.6 1.5-4 2.2-1 .5-2 .9-3 1.3-.8.3-1.4-.1-1.8-.7-.8-.9-1.6-1.8-2.4-2.8-.7-.8-.8-1.6-.2-2.6 1.7-3.1 4-5.7 6.2-8.4 2.2-2.6 4.7-4.9 7.2-7.1.2-.2.4-.3.7-.6-.1 1.6-.3 3-.2 4.4.1 1.6.7 3.1 2.5 3.4 1.4.2 2.5 1.7 4.1.7l.4.3c-.2.5-.2 1.1-.5 1.4-.9 1.1-1.9 2-2.6 3.1m2.2.8c-.6-1.1 0-1.5 1.1-1.6-.2 1-.2 1-1.1 1.6m2-2.4c-.1-.6-.2-1-.3-1.5.5 0 .9.1 1.6.1-.5.6-.9 1-1.3 1.4m5-14c-.2 1.4-.5 2.7-.8 4.1-1.9 1.8-3.9 3.4-7 3.4.1-1.4.1-2.6.2-3.7.3-2.6 2.2-4.3 4-5.9.8-.7 1.7-.5 2.6-.1 1.1.4 1.1 1.3 1 2.2m1 22.2c1.1-.7 1.2-2.8 3.5-1.8-1.1 1-2 1.9-3.5 1.8m12.4-5.7c-.2-.2-.3-.4-.3-.4.2-.4.4-.7.5-1.1.1.1.2.1.3.2-.1.4-.3.8-.5 1.3m17 1.2c.4-1.6.7-2.9 1-4.5.8 1 .8 2.5 2.5 2.3-1.1.9-2 2-3.5 2.2m10.7-7.8c-1.2 1.1-2.5 2.2-3.9 2.9-1 .6-2.3.6-3.2-.4-.3-.3-.8-.5-1.5-.9.5-.7 1-1.3 1.4-1.9.4-.5.6-1.1 1-1.6 1.5-1.9 3-3.9 4.7-5.7 1.6-1.8 3.4-3.6 5.2-5.2 1.8-1.6 3.8-3 5.7-4.6 1.4-1.1 2.8-2.3 4.1-3.5.8-.7 1.6-1 2.8-.7-2.3 2.3-3.7 5.1-5.3 7.8l-.3.6c-.8 2.8-2.7 4.9-4.6 6.9-2 2.1-4 4.3-6.1 6.3m11.9-7c-2.2 1.9-3.2 4.6-4.4 7.1-.5 1-.8 2 .3 3-.5.4-.8.6-1.1.8-.1-.1-.2-.2-.2-.3 0-.8.1-1.7 0-2.4-.2-1.4.2-2.5.9-3.6 1-1.4 1.9-2.8 3-4.1.4-.5.9-.8 1.7-1.5-.1.5 0 .8-.2 1m8.5-14.4c-1.2 1.4-2.6 2.8-3.9 4.2-.2.2-.7.2-1.3.4.2-.5.2-.7.3-.9.8-1 1.7-1.9 2.5-2.8.6-.6 1.1-1.3 2-1.6.2-.1.4-.4.6-.7.1.5.1 1.1-.2 1.4m9.9-13.4c-.9 1.6-2.4 2.9-3.3 4.5-1.3 2.3-3.3 4.1-4.6 6.4-.3.5-.6 1.3-1.5 1.1 1.4-3.6 4-6.3 6.2-9.4.8-1.1 1.5-2.2 2.4-3.2 1.6-1.9 3.3-3.7 5.1-5.5.6-.6 1.3-1.2 2.4-.9-2.8 1.8-5.1 4.1-6.7 7"/><path id="dXMLID_39_" class="dst0" d="M103.2 113c-1.8 3.6-3.6 7.2-5.3 10.9-.7 1.5-1.3 3-1.8 4.6-.4 1.1-.1 1.8.7 2 .8.2 1.2-.1 1.6-1.2l1.8-4.2c.3-.7.8-1.2 1.2-1.8 2.3 1 2.6 1 4.3-.9 1.8-1.9 3.4-4 5-6.1.4-.6.4-1.1-.4-1.4-.3.2-.6.4-.8.7-1.8 1.9-3.6 3.8-5.5 5.7-.4.4-.8 1-1.6.5 1.3-1.6 2.7-3.2 3.4-5.2.1-.2.3-.5.5-.5 1 .2 1.3-.7 1.7-1.3.9-1.2 1.7-2.5 2.5-3.7 1.2-1.8 2.5-3.5 3.6-5.2 1.2.4 2.1.9 3.1 1.2 3.2.7 6.3 1.8 9.4 2.9.8.3 1.5.7 2.2 1 2.6 1.4 5.1 2.8 7.4 4.5.5.4 1.3.6 1.9.8.7.2 1.4.4 2.2.7.9.3 1.8.7 2.9 1.1.1.2.2.7.4 1 .2.3.6.5 1 .8.2-.3.5-.6.7-.9.5-1.3.6-1.4 1.9-1.3.2 0 .4.1.5.1.3-.1.6-.4 1-.6-.2-.3-.4-.8-.7-.9-.8-.2-1.6-.3-2.4-.4-.3-.1-.7-.1-.9-.3-1.2-.9-2.9-1.6-4.2-1.6-.2-.5-.3-1.1-.7-1.5-1.8-1.8-4.1-2.9-6.4-3.9-1.8-.8-3.7-1.5-5.5-2.2-1.9-.8-3.7-1.7-5.6-2.5-2-.8-4.1-1.3-6.5-.8.1-.5 0-1 .2-1.3.6-.7 1.2-1.4 1.9-2.1.3-.3.8-.4 1.2-.6 2-.6 4-1.1 6-1.8 2.5-.9 5-2.1 7.6-2.7 4-1 7.7-2.4 11.3-4.2 3-1.5 5-4 7.2-6.3.8-.8.9-1.9.5-3.3-.9-2.6-3.3-3.9-4.8-5.9-.3-.4-.8-.7-1.3-.9-3.4-1.5-6.8-2.7-10.5-3.2-2.3-.3-4.5-.2-6.8-.4s-4.6-.1-7 .2c-1.4.2-2.9.2-4.4.4-2.5.4-5.1.7-7.6 1.4-2.8.8-5.5 1.8-8.1 3.2-1.5.8-3.1 1.3-4.7 2-.9.3-1.8.6-2.7.8-.9.3-1.9.5-2.8.8-.5.2-1.1.6-.8 1.3.3.6.6 1.2 1.4 1.1 2.5-.4 5.2-.4 7.4-1.9 1.6-1.1 3.4-1.6 5.2-2l2.7-.6c1.7-.3 3.4-.6 5.2-.9 0 .4 0 .7.1 1 1.2.2 1.9-.4 2.3-1.3.6.1 1.1.3 1.6.3 1.6-.1 3.2-.5 4.9-.5 2.7-.1 5.4-.7 8.2-.2 4.5.8 9.1 1.4 13.7 2.2 1.7.3 3.4.8 4.4 2.6.2.3.8.4 1.1.6.1.1.2.2.3.4-.4.1-.8.2-1.4.3.4.7.7 1.3 1.1 1.9-1.2.9-2.3 2.1-3.7 2.9-2.8 1.5-5.5 3.3-8.6 4.3-.4.1-.8.4-1.3.5-2.1.6-4.2 1.3-6.4 1.9-2.1.5-4.2.8-6.4 1.3-.5.1-1.3.3-1.1 1.1.1.4.6.7.9 1-1 .5-2 .9-3 1.4.1-.5.3-.8.6-1.1.4-.5 1-1 1.1-1.5.2-1.3.9-2.2 1.5-3.3.8-1.4 1.5-2.8 1.4-4.4 0-.4.2-.9.4-1.3 1.2-2.1 2.5-4.2 3.7-6.3.2-.4.4-.9.4-1.3s-.1-.9-.3-1.1c-.4-.2-1-.2-1.5-.1-.3.1-.6.4-.8.7-1.2 1.7-2.5 3.4-3.6 5.1-1 1.5-2.1 2.9-2.5 4.8-.2.9-.8 1.9-1.5 2.5-1.9 1.6-2.3 2.1-3.7 4.4-.5.8-1.2 1.6-2.5 1.7-2.3.1-4.7 0-7 .5-3.9.8-7.8 2-11.7 3.1-1.7.5-3.5 1.1-5.2 1.4-1.7.2-3.4.3-4 2.4-2.9-1.1-5.5.4-8.4.4.1-.5.2-.9.4-1.2.9-1.4 1.8-2.7 2.8-4 .3-.4.8-.9 1.4-1 2-.4 3.5-1.9 5.6-2 .2 0 .5-.1.6-.3.2-.3.6-.7.5-1-.1-.4-.5-.9-.8-1h-1.8c-.4 0-.9.1-1.7.1.3-.7.5-1.3.7-1.7 1.5-2.3 3-4.6 4.4-7 .4-.7.3-1.7.1-2.5-.2-.8-1-.1-1.7-.1.1-.5.3-.8.3-1.2.1-.7.1-1.5-.8-1.7-.7-.2-1.4.2-1.7 1.1-.2.8-.3 1.6-.5 2.4-.3 1.2-.5 2.4-1.1 3.5-.7 1.3-1.7 2.5-2.7 3.7-1 1.3-2.5 2.2-3.3 3.8-.3.6-1.3 1.1-2 1.2-1.8.4-3.7.7-5.5 1-.3 0-.5-.1-1-.2.4-.8.7-1.5 1.1-2.1 1.4-2 3-3.9 4.4-5.9.4-.5.7-1.1.9-1.7.2-.6.1-1.2-.6-1.5-.6-.3-1.1-.2-1.6.3-.3.3-.5.7-.6.8-1 .3-1.8.4-2.2.8-1.1 1.1-2.1 2.4-3 3.6-.4.5-.5 1.5-.9 1.8-1.5 1-2.1 2.7-3.2 3.9-.5.6-1.3 1.1-2 1.3-1.6.4-3.3.7-5 .9-2.4.3-4.9.4-7.3.6-1 .1-1.9.2-2.1 1.4-.1.3-.2.5-.4.9-.5 0-1.1-.1-1.6 0s-1.1.3-1.5.7c-1 .9-.9 1.8.4 2.2.8.2 1.8.2 2.6 0 1.6-.4 3.1-1.1 4.7-1.5 2.5-.6 5-1.1 7.5-1.7.2 0 .7.1.7.2.1.3.1.7 0 1-.7 1.2-1.5 2.4-2.3 3.5-.2.3-.8.6-1.2.6-3.5.4-7.1.7-10.6 1.1-1.5.2-2 .7-1.9 2.2-.8.4-1.5.8-2.3 1.2-.7.4-1.4.9-1.1 1.8.3.8 1.1.7 1.8.8.2 0 .3 0 .5-.1 3.1-.6 6.3-1.3 9.4-1.9.6-.1 1.2-.4 1.8.2-1.1 2.4-2.2 4.7-3.3 7-.2.5-.5 1.1-.6 1.6-.1.4 0 1 .3 1.2.3.2 1 .2 1.3 0 .6-.5 1.2-1.1 1.6-1.8 1.4-2.3 2.7-4.6 4.2-6.9 1.6-2.5 1.9-2.6 4.2-2.9 1.4-.2 2.8-.3 4.2-.4.7-.1 1.3-.2 2.1-.3-.1.5-.1.8-.2 1-1 1.9-2 3.8-2.9 5.8-.6 1.3-1.2 2.6-1.8 4-.2.6-.2 1.2.3 1.6.5.4 1.1.4 1.6 0 .5-.3.9-.8 1.3-1.2.3-.3.5-.7.8-.9 2-1 3.2-2.9 3.8-4.8.6-1.8 1.6-3.3 2.6-4.9.3-.5 1-1 1.6-1.2.9-.3 2-.2 2.9-.4 2-.5 4.1-.6 5.7-2.1.4-.4.9-.5 1.4-.1 1.2.9 2.5.9 3.8.6 1.4-.3 2.7-.6 4.1-1 4.4-1 8.8-1.2 13.2-1.6 1.1-.1 2.3.2 3.6.3-.4.8-.7 1.3-1 1.8-.9 2.4-2.3 4.5-3.4 6.8m12.3-39v-.3c.9-.1 1.8-.1 2.8-.2v.5h-2.8zm4.2-.3v-.3h2.3v.1c-.7.1-1.5.2-2.3.2m4.6-.2c4-.8 7.9-.4 11.8.3.9.2 2-.5 3 1-5.2-.5-9.9-2.1-14.8-1.3M143 75c.9.2 2-.1 3 1l-3-1m-71 25.9c-.4.6-.9 1.2-1.4 1.8-.4.5-.9 1-1 1.6-.2.9-.8 1.2-1.4 1.3-2.6.2-5.2.4-7.8.5-.1-.1-.2-.2-.3-.4.5-.8.8-1.7 1.4-2.3.6-.5.8-1 1.1-1.7.4-.9 1-1.5 2.2-1.5 1.3 0 2.7-.1 4-.2 1-.1 2-.1 3.2-.2 0 .4.1.8 0 1.1m20.1 1.5v-.4h.9v.2c-.3.1-.6.1-.9.2m16.1 10.3c-.1 0-.2 0-.3-.1l.3-1.2c.1 0 .2 0 .3.1l-.3 1.2m-7.2-11c-1.7.2-3.3.5-5 .7-.7.1-1.3 0-2-.1v-.4c5.8-1.1 11.6-2.1 17.6-3.3-.6 1.4-1.5 2.4-2.8 2.3-2.6 0-5.2.5-7.8.8"/><path id="dXMLID_31_" class="dst0" d="M289.6 167.4c-.8-.4-1.5-.6-2.3-1-.2-1.7-1.2-2.1-2.8-1.2.3-.5.5-.7.7-1.1-.3-.2-.5-.4-.8-.5-3.7-2.2-7.8-3.3-11.5-5.5-4.8-2.7-9.9-5-15.2-6.9-1.6-.6-3.2-1.1-4.8-1.6-.7-.2-1.5-.3-2.2-.4-1.4-.3-2.8-.5-4.2-.8.2-1.5.8-2.2 1.7-2.1 2.2.2 4.3-.2 6.4-.8 2.7-.7 5.3-1.7 8-2.5 1.4-.5 2.9-1 4.2-1.6 1.7-.8 3.3-1.7 5-2.5 2.5-1.2 4.7-2.8 6.7-4.7 2.3-2.3 4.4-4.7 4.8-8.1.1-1.1.1-2.1-.2-3.1-1-2.9-3.3-4.7-5.8-6.1-3.5-2-7.5-2.6-11.4-3.4-.6-.1-1.2-.1-1.8-.1-1.9-.1-3.7-.1-5.5-.2-1.1-.1-2.2-.2-3.3-.4-2.5-.4-5 0-7.5 0-.4 0-.8 0-1.2.1-4.1.6-7.8 2.2-11.7 3.4-1.5.5-3 1-4.5 1.4-1.1.3-1.7.9-1.6 1.7.1.9 1 1.5 2.1 1.4.3 0 .6-.2.9-.2 1.6-.1 3.3-.4 4.9-.2 4.4.4 8.6 0 12.8-1.3.8-.3 1.7-.4 2.1-1.7-2.3.4-4.4.8-6.5 1-2.1.2-4.3.3-6.8.5.4-.3.6-.5.7-.5 2.3-.5 4.6-1 6.8-1.5.8-.2 1.6-.3 2.4-.5 2.7-.6 5.4-.9 8.2-.5 1.1.1 2.1.4 3.4.7-.1.3-.2.8-.5 1.1-1 1-1.5 2.2-2 3.4-.8 1.8-1.7 3.6-2.7 5.3-1.8 3.3-3.7 6.5-5.6 9.7-1.2 2.1-2.5 4.2-3.8 6.3-.5.8-1.2 1.2-2.1 1.3-2.8.3-5.5.8-8.2 1.6-2.3.7-2.4.6-2.7 3-1.3-.7-2.6-.6-3.9 0-.4.2-.8.9-.8 1.4 0 .4.4 1.1.7 1.2.8.3 1.8.6 2.7.6 2.2-.1 4.3-.4 6.4-.7.9-.1 1.6.1 2.4.6-.1.3-.2.5-.3.7l-5.4 8.4c-1.6 2.7-3.2 5.4-4.8 8.2-1.2 2.2-2.4 4.4-3.5 6.7-1.3 2.5-2.5 5-3.7 7.6-.5 1.1-.2 1.9.6 2.2.8.3 1.6-.1 2.1-1.1.1-.3.2-.6.3-.8.3-.7.7-1.5 1.1-2.3.5.2.9.4 1.3.6 1.8-.9 2.5-2 1.6-3.9-.1-.3-.2-.7 0-1 .8-1.6 1.7-3.2 2.6-4.8.1-.2.5-.2 1-.4-.3.7-.5 1.1-.7 1.5-.3 1 0 1.7.8 2 .7.2 1.1-.1 1.5-1 .7-1.6 1.3-3.2 2-4.9 1-2.4 1.8-4.9 2.9-7.3 1.4-3 2.9-5.9 4.3-8.8.4-.8.9-.9 1.9-.4 3 1.4 6 2.9 9 4.4 3.4 1.7 6.9 2.8 10.6 3.8 3.5.9 7.1 1.6 10.6 2.5.6.1 1.1.3 1.6.6 3 1.5 5.9 3 8.9 4.6.2.1.3.2.4.3.8 1.3 2.2 1.4 3.4 2.1.2-.5.4-.8.7-1.4.2.6.3 1 .4 1.3.2.3.5.9.6.9.4-.1.8-.3 1.1-.7.5-.8.3-2.1-.3-2.8-.9-1.4-1.9-1.5-2.7-.8m-25.3-27.5c-.6.2-1.3.3-2 .5-.1-1 .2-1.6.8-2 1.8-1.5 3.6-2.9 5.4-4.4l3-2.7c.3-.3.8-.2 1.5-.4-1 1.2-1.8 2.1-2.7 3-.4.4-1.1.6-1.6.9l-3.6 2.7c-1 .5-.7 1.4-.8 2.4m2.4-.6c.2-.5.4-1 1.2-.8-.3.4-.5.8-.8 1.2l-.4-.4m9.9-19.3c-.1-.2-.2-.4-.4-.7 4.1 1.4 5.8 5.5 4 9.3-1.1 2.2-2.8 3.8-4.7 5.2-2 1.6-4.2 2.9-6.4 4.3-.3.2-.8.3-1.2.4 1.3-1 2.5-2.2 3.8-3.1 2.3-1.6 3.1-4 3.9-6.5.2-.6.3-1.3.7-1.7 2-2.4 1.7-4.8.3-7.2m-5-2.4c1 1 2.2 1.7 2.7 3.1.6 1.5 1.5 2.9 1.3 4.6-.8-.4-.8-.4-.9-.8-.4-1.1-.8-2.1-1.3-3.2-.3-.7-.8-1.4-1.3-2-.5-.5-1.1-1-1.7-1.5.4-.5.9-.6 1.2-.2m-21.3 23.2c2.4-4.6 4.9-9.2 7.4-13.7 1.1-2.1 2.4-4.1 3.6-6.2.5-.8.9-1.6 1.3-2.5.5-.8 2.2-1.3 2.6-.5.8 1.3 1.9 1.4 2.9 1 .6.7 1 1.5 1.6 1.9 1 .7 1.6 1.5 2 2.6.4 1.4 1 2.7.8 4.2-3.9 3.2-7.6 6.5-11.5 9.5-3.3 2.6-6.1 4.1-11 4.9.2-.5.2-.9.3-1.2m.5 10.8c.5.1 1.1.1 1.6.3l15.3 6c.2.1.3.3.6.7-6.4-1.2-12.1-3.9-17.5-7"/><path id="dXMLID_26_" class="dst0" d="M139.4 102.6c-.4.3-.9.6-1.2 1-.3.4-.6.9-.7 1.3-.1.3.2.7.5 1.3 1.3-.5 2.5-.9 3.6-1.5 2-1.2 4.6-1.7 5.5-4.3 0-.1.2-.2.2-.3 1.3-1.4 2.6-2.8 4-4.2.5-.5.8-1.3 2-1.2-1.3 3.1-2.7 6.1-2.4 9.5.8 1.1 1.9 1.4 3.2 1.1 1.9-.4 3.6-1.1 5.1-2.2 2-1.5 3.8-3.1 5.2-5.2.3-.4.5-1.2 1.4-1-.1.7-.2 1.3-.3 2-.2 1.6.5 2.8 2 3.5 1.7.8 5.6.1 6.8-1.3 1.8-2 3.5-4.1 5.1-6.2 1.4-1.7 2.6-3.5 4-5.1 1.7-2 3.4-3.8 5.2-5.7 1-1 2.1-1.9 3-2.9 1.1-1.1 2.4-2 3.2-3.4-.3-.4-.5-.6-.8-1 1.1-.5 1.6-.4 1.7.5.1.6 0 1.3-.1 1.9-.5 2.2-1.7 4.1-3.1 5.8-2.8 3.5-5.5 7-8.2 10.5-.6.8-1 1.7-1.4 2.6-.5 1.3-.3 1.7 1.1 2.2.1 0 .3.1.5.2-.3.4-.5.8-.8 1.2-.6 1-.4 2 .5 2.5.7.4 1.6.1 2.2-.8 1-1.6 2-3.1 3-4.7 2-3.2 3.7-6.6 6.2-9.5 1.5-1.8 2.9-3.7 4.4-5.5 1.5-1.9 3.3-3.6 4.4-5.9.2-.4.7-.7 1.1-.8 1.1-.2 2.3-.2 3.6-.3 0 .7.1 1.2 0 1.7-.5 1.7-1.1 3.5-1.7 5.1-1.5 3.8-3.9 7.2-5.3 11-.5 1.5-1.3 2.9-1.9 4.3-.4.7-.5 1.6 0 2.1.7.7 1.6 1 2.6.6.5-.2.9-.4 1.2-.5 1.3 1.1 2.5 2 3.6 3 .5.5 1.2.8 1.7.1.5-.6.1-1.2-.4-1.7-.6-.5-1.3-1.1-1.8-1.7-.2-.3-.3-.8-.3-1.2 0-.5.2-1.1.1-1.5-.2-.4-.8-.6-1.2-.9-.3-2 .1-3.9 1.1-5.8 1.8-3.7 3.7-7.3 5-11.2 1-3.2.5-6.1-.6-9.1-.5-1.3-1.4-1.5-2.4-.6-1.2 1.1-2.9 1.6-3.7 3.1-.1.2-.4.3-.6.4-1.8.5-3.2 1.5-4.5 2.8-.5-1.2-.8-2.4-1.3-3.5-.5-1.3-1.9-1.8-3-1.1-2.2 1.4-4.4 2.8-6.5 4.4-2.8 2.2-5 4.9-7 7.8-1.1 1.6-2.4 3.2-3.6 4.8-1.1 1.4-2.2 2.7-3.3 4.1-1.3 1.6-2.6 3.3-4 4.9-1 1.2-2 1.2-3.1.1.4-.9.9-1.8 1.4-2.7.9-1.8 2-3.4 2.8-5.3 1.2-2.7 2.6-5.2 4.4-7.5 1.6-2 3.1-4.1 4.7-6.1.3-.4.6-.8.7-1.2.2-.6.2-1.3-.4-1.7-.6-.4-1.3-.4-1.8.1-.7.7-1.5 1.3-2.1 2.1-2.4 3.2-4.6 6.5-7.1 9.6-2.7 3.4-5.6 6.6-8.2 10.1-1.4 1.9-3.2 3.2-4.9 4.7-1 .9-2.2 1.6-3.8.9.3-1.1.5-2.2 1-3.2 1.4-3.2 2.9-6.4 4.4-9.5.6-1.1 1.4-2.1 2.2-3.1l3-3.9c1.1-1.5 2.1-3 3.1-4.5.4-.6.4-1.4-.2-1.9-.5-.5-1.5-.4-2.1.1-.6.6-1 1.3-1.5 1.9-1.2 1.6-2.3 3.4-3.7 4.9-3.1 3.7-6.4 7.2-9.6 10.9-3.4 3.8-7.1 7-11.1 9.7m62-3.3c.6-.8 1-1.3 1.6-2.1.1.9.1 1.5.2 2.1h-1.8zm-.7-20c.1.1.2.2.4.3-.3.4-.6.7-.8 1.1l-.3-.2c.2-.4.5-.8.7-1.2m-10.6-.2c-.3 1.5-1.8 2-2.7 2.9.6-1.3 1.6-2.1 2.7-2.9"/><path id="dXMLID_20_" class="dst0" d="M141.3 155c1.2-2.6 2.6-5.1 3.7-7.8.9-2.3 2.2-4.6 2.1-7.1.3-1.6 0-3.1-.9-4.2-1.7-2-3.9-3.4-6.4-4.1-4.1-1-7.8.3-11.4 2.3-.7.4-1.3 1.1-2 1.5-2.8 1.6-5.1 3.9-7.4 6.2-.6.6-1.2 1.3-1.8 1.9-.4.4-1 .8-1.4 1.3-.6.7-1.1 1.6-1.7 2.2-2.4 2.2-3.7 5.1-5.5 7.7-1.5 2.1-2.8 4.5-4 6.8-1.5 2.6-2.9 5.3-4.3 8 0 .1-.1.1-.1.2-1.5 4.1-3 8.2-3.6 12.6-.3 1.8-.5 3.6-.5 5.4 0 3.4 1.7 5.7 5.1 6.4 1.6.4 3.2 0 4.6-.5 2.3-.8 4.7-1.6 6.9-2.7 2-1 4.2-2 5.8-3.6 1.9-2 4.5-3.2 6-5.5 2.2-1.2 3.2-3.5 4.7-5.3 1.7-2 2.6-4.7 4.5-6.6.2-.2.2-.5.4-.8 1.1-2 2.2-4 3.2-6l2.4-4.8c.6-1.3 1.1-2.4 1.6-3.5m-12.6-16.6c-1.8 1.7-3.4 3.2-5.1 4.8-1.6 1.6-3.2 3.2-4.7 4.8 1.7-5.2 6.7-10.1 9.8-9.6m-11.5 8.6c-.5 1.7-1 3-1.9 4.2-1.3 1.6-2.5 3.2-3.7 4.9-.9 1.3-1.8 2.5-2.7 3.9-.5.7-.9 1.5-1.3 2.2-1.8 3.6-3.7 7.2-5.5 10.8-.3.6-.5 1.3-.8 2-.2.5-.5.9-.7 1.3.1-4.6 12.4-26 16.6-29.3m-14 44.2c-1.3.2-2.6-.2-3.5-1.2-.6-.6-1-1.5-1.1-2.3-.3-2.2-.1-4.4.4-6.6 1.3-.9.2-2.3.7-3.5.4.7.6 1.2.9 1.7-.5 1.3-1.2 2.6-1.5 3.9-.2.8.2 1.7.1 2.6-.2 2 .8 3.3 2.4 4.3.6.4 1.2.6 1.9.2.5-.3 1.1-.1 1.7 0-.7.4-1.3.8-2 .9m33.7-33.2c-1.9 3.2-3.9 6.3-5.9 9.3-1.1 1.6-2.3 3.1-3.5 4.6-2.1 2.7-4.2 5.3-6.3 8-.8 1.1-1.5 2.3-2.3 3.3-1.8 2.1-4.1 3.7-6.6 4.8-.4.2-.8.2-1.2.4-3.1 1.3-5.9.7-8.6-1.1-.4-.3-.8-.9-.8-1.3 0-2.1 0-4.3.4-6.3.5-2.1 1.3-4.2 2.3-6.2 2-4 4.1-8 6.4-11.9 1.4-2.3 3.2-4.4 4.9-6.6 3.1-4.2 7.2-7.5 11-11.1 2.2-2.1 4.8-3.8 7.3-5.6.7-.5 1.7-.7 2.6-.9.9-.2 1.8-.3 2.7-.5.2 0 .4 0 .6.1h2.1s.1.2.3.2c2 .7 1.8 2.4 1.7 4 0 .2 0 .4-.1.5-1.5 2.9-1.5 6.2-3.1 9-1.2 2.4-2.5 4.9-3.9 7.3"/><path id="dXMLID_17_" class="dst0" d="M185.1 154.7c.8-1.5 1.2-3.1 1.8-4.7-.5-.8-1.1-1.1-2-.8-1.5.5-1.5 1.8-1.6 3-.7.3-1.6.5-1.9 1-.8 1.5-3.3 1.6-3.2 3.8 0 .1-.2.2-.3.2-1.3.4-1.6 1.7-2.2 2.6-1.2 1.7-2.2 3.4-3.8 4.8-1.4 1.2-2.9 2.5-4 3.9-2.1 2.5-3.9 5.2-6 7.8-1 1.2-2.2 2.4-4.3 2.2.1-.8.2-1.4.3-2.3.4.6.7 1 .9 1.4.2-.1.4-.2.4-.3 1-2.1 2-4.2 2.9-6.3.2-.4 0-1 .2-1.2 1.3-.7 1.4-2.1 2.2-3.1 1.3-1.6 2.8-3 4-4.6 1.9-2.5 3.7-5.1 5.5-7.7.1-.1.2-.3.2-.5.3-.9-1.1-3.5-2-3.6-.4-.1-.9 0-1.2.2-.5.3-.9.8-1.2 1.2-.6.8-1 1.7-1.5 2.6-1.2 1.7-2.5 3.4-3.6 5.2-1.1 1.7-2.1 3.5-3.3 5.2-.8 1.2-1.5 2.5-2.6 3.6-1.5 1.7-2.9 3.5-4 5.5-1.1 1.8-2.5 3.3-4.2 4.4-1.4.8-2.6 2.4-4.6 2-.1.3-.3.6-.6 1.3-.4-1-1.3-1.3-.5-2.3.4.2.8.3 1.3.6.2-.8.4-1.5.7-2.3.4.3.7.6 1.2 1 .3-.8.6-1.4.9-2 .5-1.3.9-2.7 1.4-4 .7-1.7 1.8-3.3 2-5.2 0-.2.2-.4.3-.6 1.3-1.9 2.4-3.9 3.9-5.6 2.8-3.2 5.4-6.5 7.5-10.3-2.2-.7-4-.1-5.4 1.7-1.3 1.7-2.5 3.3-3.7 4.9-.4.1-.9.1-1.2.4-.9.8-1.8 1.7-2.6 2.6-2.3 2.7-4.5 5.5-6.8 8.2-1.8 2.1-3.5 4.2-5.3 6.3-.8.9-.8 1.7-.3 2.7l2.7.3c.9-1.1 1.8-2.2 2.8-3.3 1.4-1.6 2.5-2.4 3.6-2.6-1 1-1 2.7-2.8 2.6-.1 0-.4.3-.4.5-.6 1.9-1.5 3.7-1.2 5.8.2 1.8 2.4 3.3 4 2.6 1.8-.8 3.5-1.8 5.3-2.8.7-.4 1.3-.9 2.3-1.6-.2 1.7.4 2.6 1.5 3.2 1.1.6 2.2.6 3.2-.4.4-.4 1.1-.7 1.6-1 2.7-1.3 4.8-3.3 6.8-5.4 3.6-4.1 7.2-8.3 11.1-12.2 1-1 1.7-2.3 2.5-3.6.2-.3 0-.9-.1-1.4 2-.3 2.6-2.1 3.4-3.6m-9.4 9.6c-.1-.1-.2-.1-.3-.2 0-.2-.1-.5 0-.6 1.5-1 2.2-2.5 3.2-3.8.6-.7 1-.9 2.1-1-1.1 2.3-3.4 3.6-5 5.6"/><path id="dXMLID_14_" class="dst0" d="M204.6 153.6c1.4-1.3 2.9-2.5 4.5-3.9.3.6.7 1.2.9 1.5-.8 1.3-1.4 2.2-1.9 3.1-.4.6-.5 1.3-1 1.9-1.9 2.4-2.5 5.2-3.3 8-.6 2.4-.7 5-.8 7.5-.1 1.9.3 2.9 1.9 3.7.9.4 1.9.8 2.5 1.1 1-.2 1.7-.3 2.4-.4.7-.1 1.4-.1 2.1-.2.7-.1 1.2-.4 1.2-1.2-.1-.9-.7-.9-1.4-.8-1.6.2-2.9-.3-4-1 .2-.8.4-1.4.5-2 .1-.7 0-1.5.2-2.3.3-2.1.7-4.3 1.1-6.4.6-3.3 1.3-6.5 3.1-9.4 1-1.6 1.9-3.2 2.7-4.9.6-1.2 1-2.5 1.4-3.8.2-.5.1-1.2-.6-1.5-.6-.3-1.2-.2-1.6.2-.5.4-.9.9-1.4 1.5-1.3-1.1-2.6-.6-3.8.1-1.2.7-2.4 1.5-3.5 2.3-.9.6-1.7 1.4-2.7 2.2 0-.6.1-1 .1-1.4 0-1.3-.7-2.2-1.9-2.7-1.1-.5-1.8 0-2.7.7-.9.8-2 1.4-3 2-1 .7-2.1 1.3-3.1 2-.3.2-.8.6-.8.8 0 .9-.7 1.3-1.3 1.8-1.1 1-1.4 2.4-2 4 1.9-.5 3.4-1.1 4.6-2.2 1.1-1 2.2-2 3.4-3 .2-.2.7-.2 1-.2-.6 1.2-1.1 2.3-1.6 3.3-.6 1.3-1.2 2.5-2 3.7-1.5 2.6-3.3 5-4.7 7.6-.8 1.4-1.8 2.5-2.8 3.6-.9 1-1.8 2.2-2.6 3.3-.5.7-.3 1.3.2 1.9.6.6 1.2.7 1.9.2.4-.3.7-.4 1.2-.2 1.1.5 1.7.2 2.3-.9.3-.5.4-1.1.7-1.6.9-1.5 1.9-2.9 2.8-4.4 1.5-2.4 2.9-4.9 5-7 2.3-2 4.5-4.4 6.8-6.6m4-6.1c-.2 1.3-1.2 1.5-1.7 1.9-.7.5-1.3 1.1-1.9 1.6.5-1.7 2.1-2.3 3.6-3.5"/><path id="dXMLID_11_" class="dst0" d="M418.8 54.6c-1.3.2-2.6.2-3.8.7-.9.3-1.7 1.2-2.5 1.8-1.5 1.1-2.9 2.3-4.5 3.1-3.1 1.5-5.9 3.3-8.7 5.3-2.2 1.6-4.3 3.2-6.5 4.8-4.4 3.1-9 6-13.3 9.2-5 3.6-9.9 7.5-14.8 11.3-2.7 2.1-5.2 4.3-7.8 6.5-1.9 1.5-3.7 3-5.6 4.5-1.3 1-2.8 1.9-4.1 2.9-1.4 1.1-2.8 2.2-4.3 3.3-2.2 1.7-4.5 3.4-6.7 5.1-.4.3-.8.6-1 1-.2.4-.2.9 0 1.3.1.2.7.3 1.1.2.7-.2 1.4-.6 2-1 1-.6 1.9-1.4 2.8-2.1.7.8.2 1.2-.1 1.7-.3.5-.6 1.1 0 1.6s1.2.3 1.7-.2c3.1-3 6.1-6.1 9.3-9 2.2-2.1 4.6-4 6.9-6 3.2-2.7 6.4-5.4 9.7-8.1 1.2-1 2.6-1.8 3.8-2.8 2.7-2.1 5.4-4.3 8.1-6.4 5.1-3.9 10.3-7.7 15.5-11.5 1.8-1.4 3.7-2.6 5.9-3.5 1.1-.5 2-1.4 3-2.1.1-1.7 1.7-1.9 2.6-2.7.5-.4 1.1-.7 1.6-1.1 3-2.2 5.8-4.5 9.4-5.6.2-.1.5-.1.6-.3.2-.3.4-.6.4-.9-.1-.6-.5-1-.7-1m-57.5 41l-.3-.3c.8-.6 1.7-1.2 2.5-1.8.1.1.2.2.2.3l-2.4 1.8"/><path id="dXMLID_8_" class="dst0" d="M274.7 171.6h-.3c-1.4.5-3 .5-4.1 1.7-.7.8-1.6 1.3-2.4 2-1.9 1.7-4.3 2.8-6.5 4.2-3.4 2.1-6.3 4.8-9.5 7.3-6.7 5.2-13.8 9.9-20.1 15.6-2.8 2.6-6.1 4.4-8.8 7.2-2.5 2.5-5.3 4.8-7.9 7.2-1.7 1.6-3.5 3.1-5.3 4.6-1.4 1.1-2.9 2.1-4.3 3.3-2.1 1.7-4.1 3.4-6.1 5.2-1.6 1.4-3.2 2.7-4.8 4.1-.7.6-.9 1.2-.3 2.1 2.5-.1 3.8-2.2 5.7-3.4.7.9 0 1.4-.2 1.9s-.3 1.1.3 1.4c.4.1 1-.1 1.5-.2.1 0 .1-.2.2-.3 3.2-3.4 6.3-6.8 9.5-10.1 1.9-2 4-3.8 6-5.6 2.7-2.5 5.3-5 8-7.4 3.9-3.4 7.9-6.6 11.9-9.9 5.5-4.5 10.9-9 16.5-13.4 1.4-1.1 2.9-2.2 4.6-3.1 1.6-.8 3-1.7 3.6-3.4.1-.2.4-.4.6-.6 2.7-2.1 5.5-4.2 8.2-6.3 1.4-1 2.8-1.9 4.5-2.4.3-.1.8-.6.8-.9-.2-.7-.8-.8-1.3-.8m-55.4 43.1c.8-.6 1.5-1.3 2.3-1.9-.4 1.1-1.1 1.8-2.3 1.9"/><path id="dXMLID_7_" class="dst0" d="M79.5 137.4c-.2-1.4-.3-1.5-1.2-1.2-1.6.5-3.2 1-4.9 1.4-.5.2-1.1.5-1.5-.2-.9.5-1.5 1.1-2.3 1.4-3.7 1.3-7.4 2.4-11.1 3.7-4.6 1.5-9.3 2.7-13.6 4.9-2.1 1.1-4.4 2-6.6 2.9-2.2.9-4.3 1.8-6.5 2.5-.8.3-1.5.4-1.1 1.5 0 .1-.1.4-.3.5-.6.3-.7.7-.3 1.3.4.5.8.3 1.3.1l2.1-.9c-.2.5-.6.7-.8.9-.2.2-.3.7-.2.9.1.2.6.4.9.3.5-.1 1-.4 1.4-.7 2.5-2.2 5.5-3.7 8.5-5.1 3.4-1.6 6.8-3.2 10.5-3.8 1.4-.2 2.9-.5 4.3-.9.5-.1.9-.2 1.3-.5.2-.1.3-.6.3-.9 0-.1-.5-.3-.7-.3-.4 0-.8.2-1.2.4-.6.2-1.3.5-1.9.7 1.6-1.5 3.6-2.2 5.7-2.5 3.6-.6 7-1.6 10.4-2.8 1.3-.5 2.6-1.1 3.9-1.4 1.7-.4 3.5-.5 5.3-.8.3 0 .6-.1.8-.3.3-.2.5-.6.7-.9-.3-.2-.6-.5-1-.5-.7.1-1.4.2-2.2.3"/><path id="dXMLID_6_" class="dst0" d="M332.6 79c.8.5 1.7 1 2.8.4 3.5-1.7 7.2-3.1 10.9-4.2 1.9-.6 3.7-1.4 5.6-2 3.8-1.1 7.6-2.2 11.5-3.2 3.1-.9 6.2-1.8 9.3-2.5 3.8-.8 7.6-1.4 11.4-2 .7-.1 1.3-.1 1.9-.7-.4-.2-.7-.3-.9-.4 1.3-.6 3-.2 3.8-1.8-.7-.8-1.5-.5-2.3-.3-2.6.5-5.2 1-7.8 1.4-.3.1-.8.1-1-.1-.7-.8-1.2-.3-1.9 0-.9.4-1.9 1-2.9 1.2-6.3 1.3-12.3 3.6-18.5 5.4-3.9 1.1-7.7 2.3-11.6 3.5L332.7 77c-.9.3-1 1.5-.1 2"/><path id="dXMLID_5_" class="dst0" d="M106 79.2c-1.8.2-3.5.4-5.4.6 1.2 1.2 4.3.8 5.4-.6"/><path id="dXMLID_4_" class="dst0" d="M108.2 79.3c.7-.3 1.2-.5 1.7-.7l-.1-.4c-1.2 0-1.2 0-1.6 1.1"/><path id="dXMLID_3_" class="dst0" d="M79.7 139.6v.2h1.1v-.5c-.4.2-.7.2-1.1.3"/></g></svg></defs></svg>