<?xml version="1.0" encoding="utf-8"?>
<!-- Generator: Adobe Illustrator 21.1.0, SVG Export Plug-In . SVG Version: 6.00 Build 0)  -->
<svg version="1.1" id="Layer_1" xmlns="http://www.w3.org/2000/svg" xmlns:xlink="http://www.w3.org/1999/xlink" x="0px" y="0px"
	 viewBox="0 0 302.6 156" style="enable-background:new 0 0 302.6 156;" xml:space="preserve">
<style type="text/css">
	.st0{fill:#FFFFFF;}
	.st1{fill:#00447C;}
	.st2{fill:#D11242;}
</style>
<g>
	<path class="st0" d="M293.5,112.1c0,0.3,0.1,1,1.2,1c1,0,1.1-0.6,1.1-0.9c0-0.5-0.4-0.7-1.1-0.8c-0.7-0.2-1.1-0.3-1.3-0.4
		c-0.4-0.3-0.5-0.6-0.5-1c0-1,0.9-1.4,1.8-1.4c0.3,0,1,0.1,1.4,0.5c0.3,0.3,0.3,0.6,0.3,0.8h-0.7c0-0.6-0.5-0.7-1-0.7
		c-0.7,0-1.1,0.3-1.1,0.8c0,0.4,0.3,0.6,0.9,0.7c1.2,0.3,1.3,0.3,1.6,0.5c0.5,0.3,0.5,0.8,0.5,1c0,0.9-0.7,1.5-1.9,1.5
		c-0.4,0-1.1-0.1-1.5-0.6c-0.3-0.4-0.3-0.7-0.3-1H293.5z M297.5,108.7h1.2l1.4,4l1.4-4h1.1v4.9h-0.7v-4.4l-1.6,4.4h-0.6l-1.5-4.3
		v4.3h-0.7V108.7z"/>
	<g>
		<g>
			<path class="st0" d="M72.5,128.9v-0.4c0.9-0.2,1.8-0.8,1.9-1.8v-16c-0.1-0.9-1-1.5-1.9-1.7v-0.4h13.8l0.6,3.7h-0.4
				c-0.4-0.8-1.4-2.3-3.9-2.3h-4.5c-0.2,0.1-0.2,0.2-0.2,0.4v7h3.8c2.2,0,3.1-1.4,3.3-2.2h0.3v5.8h-0.3c-0.1-0.8-1-2.2-3.3-2.2H78
				v8.2c0,0.2,0.1,0.3,0.2,0.4h3.9c3.3,0,4.3-1.7,4.9-2.9h0.4l-0.7,4.3H72.5z M186.4,128.9v-0.4c0.9-0.2,1.8-0.8,1.9-1.8v-16
				c-0.1-0.9-1-1.5-1.9-1.7v-0.4h13.8l0.6,3.7h-0.4c-0.4-0.8-1.4-2.3-3.9-2.3h-4.5c-0.2,0.1-0.2,0.2-0.2,0.4v7h3.8
				c2.2,0,3.1-1.4,3.3-2.2h0.3v5.8h-0.3c-0.1-0.8-1-2.2-3.3-2.2h-3.8v8.2c0,0.2,0.1,0.3,0.2,0.4h3.9c3.3,0,4.3-1.7,4.9-2.9h0.3
				l-0.7,4.3H186.4z M159.7,126.8c0.1,0.9,1,1.6,1.9,1.8v0.4h-7.3v-0.4c0.9-0.2,1.8-0.8,1.9-1.8v-16c-0.1-0.9-1-1.5-1.9-1.7v-0.4
				h7.3v0.4c-0.9,0.2-1.8,0.8-1.9,1.7V126.8z M248.7,126.8c0.1,0.9,1,1.6,1.9,1.8v0.4h-7.3v-0.4c0.9-0.2,1.8-0.8,1.9-1.8v-16
				c-0.1-0.9-1-1.5-1.9-1.7v-0.4h7.3v0.4c-0.9,0.2-1.8,0.8-1.9,1.7V126.8z M23,128.9v-0.2c0.8-0.1,1.8-0.6,1.8-1.7v-16.5
				c0-0.2-0.1-0.5-0.4-0.5h-3.1c-2.5,0-3.7,1.9-4.1,2.8h-0.2l0.8-4.2h17.8l0.8,4.2H36c-0.4-0.9-1.6-2.8-4.1-2.8h-3.1
				c-0.3,0-0.4,0.3-0.4,0.5v16.5c0,1.1,1,1.6,1.8,1.7v0.2H23z M258.3,128.9v-0.2c0.8-0.1,1.8-0.6,1.8-1.7v-16.5
				c0-0.2-0.1-0.5-0.4-0.5h-3.1c-2.5,0-3.7,1.9-4.1,2.8h-0.2l0.8-4.2h17.8l0.8,4.2h-0.2c-0.4-0.9-1.6-2.8-4.1-2.8h-3.1
				c-0.3,0-0.4,0.3-0.4,0.5v16.5c0,1.1,1,1.6,1.8,1.7v0.2H258.3z M57.1,128.9v-0.2c0.8-0.1,1.8-0.6,1.8-1.7v-16.5
				c0-0.2-0.1-0.5-0.4-0.5h-3.1c-2.5,0-3.7,1.9-4.1,2.8H51l0.8-4.2h17.8l0.8,4.2h-0.2c-0.4-0.9-1.6-2.8-4.1-2.8h-3.1
				c-0.3,0-0.4,0.3-0.4,0.5v16.5c0,1.1,1,1.6,1.8,1.7v0.2H57.1z M8.5,129.5c-2.2,0-5-0.9-5.7-0.9l-0.4-4.9h0.4
				c0.7,2.1,2.6,4.4,6.2,4.4c3.1,0,4.5-2.3,4.5-4.2c0-2-0.8-3.3-3.5-5.1l-1.5-1.1c-3.5-2.5-5.3-4.6-5.3-7.7c0-3.6,3-6,7.8-6
				c1.9,0,3.9,0.4,4.7,0.5l0.5,4.5h-0.4c-0.7-2.2-2.6-3.7-5.2-3.7c-2.5,0-4,1.6-4,3.5c0,2,1,3.1,3.7,4.9l0.9,0.6
				c3.8,2.8,6.2,5,6.2,8C17.4,127,13.2,129.5,8.5,129.5z M231.6,129.5c-1.9,0-4.2-0.8-4.8-0.8l-0.4-4.1h0.3c0.6,1.7,2.2,3.5,5.2,3.5
				c2.6,0,3.8-1.6,3.8-3.1c0-1.5-0.5-2.6-2.9-4.3l-1.3-1c-3.2-2.3-4.3-3.8-4.3-6.4c0-3,2.5-5.1,6.5-5.1c1.6,0,3.2,0.3,3.9,0.4
				l0.4,3.8h-0.3c-0.6-1.8-2.2-2.9-4.4-2.9c-2.1,0-3.4,1.2-3.3,2.8c0,1.2,0.7,2.2,3.1,3.9l0.8,0.5c3.5,2.5,5,4,5,6.7
				C238.9,127.2,235.5,129.5,231.6,129.5z M150.2,108.7v0.4c-0.9,0.2-1.9,0.8-1.9,1.8v19.1h-1l-15.3-17.5v14.4
				c0.1,0.9,1,1.6,1.9,1.8v0.4h-5.4v-0.4c0.9-0.2,1.8-0.8,1.9-1.8v-16c-0.1-0.9-1-1.5-1.9-1.7v-0.4h5.7l12.6,14.4v-12.3
				c-0.1-0.9-1-1.6-1.9-1.8v-0.4H150.2z M181.5,111.1c0.5-1.2-0.1-1.8-1-2v-0.3h4.7v0.4c-0.9,0.2-1.5,0.8-2,1.7l-8.7,19.1h-0.5
				l-8.8-19.1c-0.4-1-1-1.5-1.9-1.7v-0.4h7.2v0.4c-0.9,0.2-1.7,0.7-1.1,2.1l5.9,13.3L181.5,111.1z M125.4,104.5v0.4
				c-1.1,0.2-2.2,1-2.2,2.1v12.1c0,7-3.8,10.4-11,10.4c-7.2,0-11-3.3-11-10.4V107c-0.1-1.1-1.1-1.8-2.2-2.1v-0.4h8.5v0.4
				c-1.1,0.2-2.2,1-2.3,2.1v12.6c0,6,2.5,8.5,7,8.5c4.5,0,7-2.4,7-8.5V107c-0.1-1.1-1.2-1.8-2.3-2.1v-0.4H125.4z M52.3,126.8
				l-8.7-19.1h-0.5l-7.9,19.1c-0.4,1-0.9,1.5-1.8,1.7v0.4h4.5v-0.3c-0.9-0.2-1.5-0.8-1-2l1.7-4.1h7.9l1.8,4c0.6,1.4-0.1,1.9-1,2.1
				v0.4h6.8v-0.4C53.2,128.4,52.7,127.8,52.3,126.8z M45.9,120.9h-6.7l3.2-7.8L45.9,120.9z M290.4,108.7v0.4
				c-0.9,0.2-1.5,0.6-2.2,1.7l-5.1,8.2v7.8c0.1,0.9,1,1.6,1.9,1.8v0.4h-7.3v-0.4c0.9-0.2,1.8-0.8,1.9-1.8V120l-5.8-9.2
				c-0.7-1-1.2-1.5-2.2-1.7v-0.4h7.3v0.4c-0.9,0.2-1.9,0.6-1.1,2.1l4.3,7.1l4.6-7.2c0.8-1.4-0.1-1.8-1-2v-0.3H290.4z M220.9,125.1
				c1.2,1.6,2.4,3.1,4.4,3.4v0.4h-3.2c-2,0-3.1-0.9-4.1-1.9l-4.4-6.6c-0.6-1-1.2-1.3-2.1-1.5v-0.4c1.7,0,6.2-0.2,6.2-4.2
				c0-3.8-3-4.4-4.7-4.4c-0.7,0-1.9,0-2.2,0.1c-0.2,0.1-0.3,0.2-0.3,0.4v16.4c0.1,0.9,0.9,1.6,1.9,1.8v0.4h-7.3v-0.4
				c0.9-0.2,1.8-0.8,1.9-1.8v-16c-0.1-0.9-1-1.5-1.9-1.7v-0.4h8.7c3.5,0,7.6,1.1,7.6,5.2c0,4.3-4.7,5-4.7,5L220.9,125.1z"/>
			<path class="st0" d="M37.9,98.6v-0.4c0.9-0.2,1.8-0.8,1.9-1.8v-16c-0.1-0.9-1-1.5-1.9-1.7v-0.4h13.8l0.6,3.7h-0.4
				c-0.4-0.8-1.4-2.3-3.9-2.3h-4.5c-0.2,0.1-0.2,0.2-0.2,0.4v7h3.8c2.2,0,3.2-1.4,3.3-2.2h0.3v5.8h-0.3c-0.1-0.8-1-2.2-3.3-2.2h-3.8
				v8.2c0,0.2,0.1,0.3,0.2,0.4h3.9c3.3,0,4.3-1.7,4.9-2.9h0.3l-0.7,4.3H37.9z M196.1,96.4c0.1,0.9,1,1.6,1.9,1.8v0.4h-7.3v-0.4
				c0.9-0.2,1.8-0.8,1.9-1.8v-16c-0.1-0.9-1-1.5-1.9-1.7v-0.4h7.3v0.4c-0.9,0.2-1.8,0.8-1.9,1.7V96.4z M60.9,98.6v-0.2
				c0.8-0.1,1.8-0.6,1.8-1.7V80.1c0-0.2-0.1-0.5-0.4-0.5h-3.1c-2.5,0-3.7,1.9-4.1,2.8h-0.2l0.8-4.2h17.8l0.8,4.2h-0.2
				c-0.4-0.9-1.6-2.8-4.1-2.8h-3.1c-0.3,0-0.4,0.3-0.4,0.5v16.5c0,1.1,1,1.6,1.8,1.7v0.2H60.9z M206.5,98.6v-0.2
				c0.8-0.1,1.8-0.6,1.8-1.7V80.1c0-0.2-0.1-0.5-0.4-0.5h-3.1c-2.5,0-3.7,1.9-4.1,2.8h-0.2l0.8-4.2h17.8l0.8,4.2h-0.2
				c-0.4-0.9-1.6-2.8-4.1-2.8h-3.1c-0.3,0-0.4,0.3-0.4,0.5v16.5c0,1.1,1,1.6,1.8,1.7v0.2H206.5z M110.2,77.9
				c-7.3,0-11.8,4.7-11.8,10.6c0,5.9,4.3,10.7,11.8,10.7c7.5,0,11.8-4.8,11.8-10.7C122,82.6,117.5,77.9,110.2,77.9z M110.2,97.7
				c-4.9,0-7.7-4.2-7.7-9.3c0-5,2.9-9.3,7.7-9.3c4.7,0,7.7,4.3,7.7,9.3C117.9,93.5,115.1,97.7,110.2,97.7z M157.6,77.9
				c-7.3,0-11.8,4.7-11.8,10.6c0,5.9,4.3,10.7,11.8,10.7c7.5,0,11.8-4.8,11.8-10.7C169.4,82.6,164.9,77.9,157.6,77.9z M157.6,97.7
				c-4.9,0-7.7-4.2-7.7-9.3c0-5,2.9-9.3,7.7-9.3c4.7,0,7.7,4.3,7.7,9.3C165.3,93.5,162.4,97.7,157.6,97.7z M174.7,80.3
				c0-1.1-1-1.6-1.8-1.7v-0.2h7.1l0,0.2c-0.8,0.1-1.8,0.6-1.8,1.7v16.5c0,0.2,0.1,0.5,0.4,0.5h4.5c3.5,0,4.6-2.8,5.1-3.7h0.3l-0.9,5
				h-14.9v-0.4c0.9-0.2,1.8-0.8,1.9-1.8V80.3z M9.3,74.3l8.8,18.8l8.8-18.8l0,0h6.3v0.4c-1.1,0.2-2.2,1-2.3,2.1V96
				c0.1,1.1,1.2,1.9,2.3,2.1v0.4h-8.5v-0.4c1.1-0.2,2.2-1,2.3-2.1V78.7l-9.9,21h-0.5l-9.9-21V96c0.1,1.1,1.2,1.9,2.3,2.1v0.4H2.4
				v-0.4c1.1-0.2,2.2-1,2.3-2.1V76.8c-0.1-1.1-1.2-1.8-2.3-2.1v-0.4H9.3z M262.8,78.3v0.4c-0.9,0.2-1.9,0.8-1.9,1.8v19.1h-1
				L244.6,82v14.4c0.1,0.9,1,1.6,1.9,1.8v0.4H241v-0.4c0.9-0.2,1.8-0.8,1.9-1.8v-16c-0.1-0.9-1-1.5-1.9-1.7v-0.4h5.7l12.6,14.4V80.5
				c-0.1-0.9-1-1.6-1.9-1.8v-0.4H262.8z M237.1,96.5l-8.7-19.1H228L220,96.5c-0.4,1-0.9,1.5-1.8,1.7v0.4h4.5v-0.3
				c-0.9-0.2-1.5-0.8-1-2l1.7-4.1h7.9l1.8,4c0.6,1.4-0.1,1.9-1,2.1v0.4h6.8v-0.4C238.1,98,237.5,97.4,237.1,96.5z M230.7,90.6H224
				l3.2-7.8L230.7,90.6z M132.8,88.9c1.7,0,6.2-0.3,6.2-4.6c0-3.8-3-4.7-4.7-4.7c-0.7,0-1.9,0-2.2,0.1c-0.2,0.1-0.3,0.2-0.3,0.4
				v16.4c0.1,0.9,0.9,1.6,1.9,1.8v0.4h-7.3v-0.4c0.9-0.2,1.8-0.8,1.9-1.8v-16c-0.1-0.9-1-1.5-1.9-1.7v-0.4h8.7
				c3.5,0,7.6,1.5,7.6,5.6c0,6.8-8.4,6.1-9.9,5.4V88.9z M92.6,94.7c1.2,1.6,2.4,3.1,4.4,3.4v0.4h-3.2c-2,0-3.1-0.9-4.1-1.9l-4.4-6.6
				c-0.6-1-1.2-1.3-2.1-1.5v-0.4c1.7,0,6.2-0.2,6.2-4.2c0-3.8-3-4.4-4.7-4.4c-0.7,0-1.9,0-2.2,0.1c-0.2,0.1-0.3,0.2-0.3,0.4v16.4
				c0.1,0.9,0.9,1.6,1.9,1.8v0.4h-7.3v-0.4c0.9-0.2,1.8-0.8,1.9-1.8v-16c-0.1-0.9-1-1.5-1.9-1.7v-0.4h8.7c3.5,0,7.7,1.1,7.7,5.2
				c0,4.3-4.7,5-4.7,5L92.6,94.7z"/>
			<path class="st0" d="M29.3,142.1v2.4h-5.2v2.9H29v2.4h-4.9v5.8h-2.5v-13.5H29.3z M100.6,142.1h-2.8l-3.6,8.6l-3.6-8.6h-2.8
				l5.9,13.5h0.9L100.6,142.1z M81.8,142.1v8.2l-7.1-8.2h-1.3v13.5H76v-8.2l7.1,8.2h1.3v-13.5H81.8z M43.5,155.6v-13.5h4.3
				c2.4,0,7.3,0.7,7.3,6.8s-4.9,6.8-7.3,6.8H43.5z M52.5,148.9c0-3.3-1.9-4.3-4.8-4.3H46v8.7h1.7C50.5,153.2,52.5,152.1,52.5,148.9z
				 M112.5,155.6v-2.4h-5.8v-3.4h5.4v-2.4h-5.4v-2.9h5.8v-2.4h-8.3v13.5H112.5z M68.3,155.6v-2.4h-5.8v-3.4H68v-2.4h-5.4v-2.9h5.8
				v-2.4H60v13.5H68.3z M124.3,150.6c1.4-0.6,2.7-1.8,2.7-4c0-3.4-3-4.5-4.9-4.5h-4.5v13.5h2.5v-11.1h1.9c1.5,0,2.3,0.8,2.3,2
				c0,1.2-1,2-2.3,2h-1.7v0.2l4.2,6.8h2.9L124.3,150.6z M16.5,148.9c0,4-3,7.1-7.1,7.1c-4,0-7.1-3-7.1-7.1c0-4,3-7.1,7.1-7.1
				C13.5,141.8,16.5,144.9,16.5,148.9z M13.9,148.9c0-2.6-1.9-4.6-4.4-4.6c-2.5,0-4.4,2-4.4,4.6c0,2.6,1.9,4.6,4.4,4.6
				C12,153.5,13.9,151.5,13.9,148.9z"/>
		</g>
		<g>
			<path class="st0" d="M132.1,23.1L106.7,0.4c-1.1-1-2.8-0.3-2.5,1.4l0.3,1.3c0,0.1-0.1,0.1-0.1,0.1C101,2,97.5,1.3,93.9,1.3
				c-5.8,0-10.8,1.5-15.7,3c-4.1,1.2-7.9,2.4-11.7,2.4c-4.3,0-7.9-1.6-11.6-4.9c-1.3-1.2-3-0.5-2.6,1.3c0.5,2.4,1.4,4.6,2.9,6.5
				c0.1,0.1,0,0.2-0.1,0.2c-1.7,0.2-4,0.4-6.7,0.4c-4.4,0-8.3-0.6-11.5-1.9c-1.6-0.6-3,0.8-1.7,2.2c2.5,2.7,4.7,4.4,6.5,5.4
				c0.1,0,0.1,0.2,0,0.2c-2.4,0.5-5.2,0.9-8.8,0.8c-3.2,0-9.3-0.7-10.8-0.9c-1.5-0.2-2.2,1.7-1.2,2.5c3.2,2.5,6.2,3.9,8.7,4.6
				c0.1,0,0.1,0.1,0,0.2c-16.2,6.7-26,13.2-28,14.6c-3.1,2.2-1.7,5,2.2,4.1c2-0.4,16.9-3.5,29.3-4.7c0.2,0,0.2,0,0,0.1
				c-9.2,3-16.7,6.5-20.1,9.2c-1.4,1.2-0.3,3,1.4,2.4c4.3-1.5,14.2-3.6,22-4.7c0.1,0,0.2,0.1,0,0.1c-4.2,2-9.2,5-13.3,8.9
				c-1.3,1.2-0.2,3.3,1.7,2.3c8.6-4.5,17.3-6.9,22.7-8.1c0.1,0,0.2,0.1,0.1,0.1c-1.3,1.3-2.8,2.9-4.1,5.1c-1.1,1.8-0.5,3.2,3.3,2.5
				c23.7-4.3,47.4,2.3,63.5,19.3c1.5,1.6,3,0.9,2.9-0.7c-0.1-1.4-0.4-3.6-0.4-6.1c0.3-9.4,2.5-15.2,14.5-17.6
				c12.6-2.5,33.4-3.3,41.5-3.7l5.4-3.7c-11.3-2-34.7-4.4-49-4.2c-1.5,0-1.6-0.3-0.1-0.5c7-0.9,31.2-3.3,53.6,3.6l6.5-2.1
				C172.9,31,155.1,26.3,132.1,23.1z"/>
			<g>
				<path class="st1" d="M46.7,53.9c17-7.3,57.9-20.3,124.2-10.3l-2.3,1.6c0,0-28.5,1.2-41.3,3.7c-9.2,1.8-15.6,5.6-15.6,19.1
					c0,1.9,0.2,3.9,0.4,6c0,0.2-0.2,0.2-0.2,0c-1.5-3.7-7-14.6,3.6-25c1.3-1.3,1.1-4.5-3.1-4.6C97.7,44,75.8,47,65.3,50.2
					c-0.5,0.1-0.4,0.3,0,0.3C85,48.2,98.2,49,107,51.4c0.2,0.1,0.2,0.3-0.1,0.2c-1.6-0.1-15.1-0.9-23.6,2c-0.4,0.1-0.4,0.4,0,0.4
					c14.2-0.6,20.6,1.3,22.3,2.1c0.2,0.1,0.2,0.2-0.1,0.2c-1.6-0.1-6.5,0-11.3,1.5c-0.3,0.1-0.3,0.4,0,0.4
					c7.5,0.6,10.8,2.1,11.9,2.7c0.3,0.2,0.2,0.3,0,0.3c-0.9,0.1-3.3,0.4-4.9,1.1c-0.2,0.1-0.2,0.3,0.1,0.4c5.7,0.5,7.6,7,7.9,8.6
					c0.1,0.2-0.1,0.2-0.2,0.1c-6.9-7-29.1-23.4-62.3-17.3C46.5,54.1,46.5,54,46.7,53.9z M104.2,24.8c-2.6-0.2-4.3,0.9-4.5,2.8
					c-0.2,1.8,1.9,3.6,4.5,3.9c2.3,0.2,4.3-0.7,4.9-2.1l-2.3,0c0,0-0.1,0,0-0.1c0.3-1.5-0.9-2.8-3.1-3.3c-0.1,0,0-0.1,0-0.1l3.8,0
					C106.9,25.4,105.2,24.9,104.2,24.8z M109.6,12.1c-1.1-0.7-6-3.8-10.1-4.9c-9.9-2.5-20.5,1.4-23.2,2.2
					c-8.9,2.6-14.6,0.6-16.8-0.4c-0.4-0.2-0.4,0-0.1,0.2c1.2,0.9,3.8,2.8,7.6,3.6c2.9,0.6,6.9,0.3,11.6-0.6c3-0.6,10.2-3,15.3-1.6
					c0.1,0,0.1,0.2,0,0.2c-5.9,0.9-8.5,3.5-11.2,6.6c-40.3,3.9-76.5,20.2-80,21.9c-0.1,0-0.2,0,0-0.1c1.9-1.2,13.4-9,32.7-16.5
					c0.2-0.1,0.2-0.1-0.1-0.1c-1.7,0.1-7.3,0.2-13.3-4.9c-0.1-0.1,0-0.2,0.1-0.2c12.3,1.8,18.6,0.7,24.3-1.1c0.1,0,0.3-0.1,0-0.1
					c-1.3-0.1-5-1-10-6.5c-0.1-0.1,0-0.2,0.2-0.2c8.7,3.4,19.3,1.5,21.2,1.2c0.2,0,0.2-0.2,0.1-0.3c-1.1-1.1-3.3-3.6-4-7.6
					c0-0.2,0.2-0.3,0.3-0.1c16.6,14.7,29.4-7.6,52.5,2.6c0.2,0.1,0.2,0,0.2-0.1l-1-3.7c0-0.2,0.1-0.2,0.2-0.1l25.7,22.9
					c21.4,2.9,39.5,7.6,50.9,14.9l-3.5,1.1c-26-7.5-51.6-3.9-63.3-2.2c-8.2,1.2-16.8-0.5-19.9-3.6c-0.1-0.1,0-0.3,0.2-0.2
					c9.4,2.7,17.6-2.4,14.7-8.9l-7.7-2.8c-3.9-0.6-7,1.2-7.2,4.4c-0.1,2.7,1.4,5,4.2,6.1c0.2,0.1,0.3,0.2,0,0.2
					c-3.7-0.3-7.9-3.7-6-8.7c0,0-0.1-0.1-0.1-0.1c-1.5,0.6-3.5,0.9-4.9,0.5c-0.2,0-0.2-0.2,0-0.2c3.4-0.6,9.2-6,15.2-4.1l8.3,2.8
					c2.5,0.8,4.6,0.4,5.2,0.2c0.1,0,0.1-0.1,0-0.2l-12.6-5.4c-13.4-4.9-21.9,2.6-23.3,4.1c-0.1,0.1-0.2,0-0.1-0.1
					c2.3-7.3,13.1-11.6,24.2-7.5l18.6,8.3c0.1,0.1,0.2,0,0.1-0.1L109.2,9.5c-0.1-0.1-0.2-0.1-0.2,0.1l0.7,2.5
					C109.8,12.2,109.7,12.2,109.6,12.1z M121.3,32.6c14.4-3.2,34-0.6,38,0c0.5,0.1,0.3,0,0-0.1c-10.1-3.5-26.2-5.3-28.3-5.6
					c-0.1,0-0.3,0.1-0.4,0.2c-2,2.8-8.3,4.8-9.5,5.2C120.9,32.4,120.8,32.7,121.3,32.6z"/>
				<path class="st2" d="M14.1,48c6.2-1.9,23.4-5.7,30.3-5.4c0.3,0,0.3,0.2,0.1,0.3c-5,1.5-14.1,5.3-20.2,11.5
					c-0.2,0.2-0.1,0.3,0.1,0.2c12.8-6.5,25.4-8.8,28.2-9.4c0.3-0.1,0.3,0,0.1,0.2c-1.2,0.8-4.6,3.2-7.8,8.1c-0.1,0.2,0,0.3,0.1,0.2
					c14.3-9.1,27.2-13.4,39.9-16.2c0.4-0.1,0.3-0.3-0.1-0.3c-11.3-0.5-30.1,2.4-37.7,4.9c-0.3,0.1-0.3-0.1-0.1-0.2
					c8.8-5.5,27.3-9,32.8-10.1c0.6-0.1,0.4-0.3,0-0.3c-9-0.7-23.2,1.1-34.3,3.9c-0.3,0.1-0.4-0.1,0-0.3c6.7-3.5,20.9-7.9,31.2-8.7
					c0.3,0,0.3-0.2,0-0.3c-14.7-2.5-50.9,4.1-73.1,14.8c-0.1,0-0.2,0.1,0,0.1c2.8-0.6,26.8-5.6,39.5-5.1c0.3,0,0.3,0.2,0,0.3
					c-13.4,3.5-25,8.2-29.1,11.7C13.8,48.1,13.9,48.1,14.1,48z"/>
			</g>
		</g>
	</g>
</g>
</svg>
