<?xml version="1.0" encoding="utf-8"?>
<!-- Generator: Adobe Illustrator 19.0.0, SVG Export Plug-In . SVG Version: 6.00 Build 0)  -->
<svg version="1.1" id="Layer_1" xmlns="http://www.w3.org/2000/svg" xmlns:xlink="http://www.w3.org/1999/xlink" x="0px" y="0px"
	 viewBox="0 0 239.8 19" style="enable-background:new 0 0 239.8 19;" xml:space="preserve">
<style type="text/css">
	.st0{fill:#9A9A9A;}
</style>
<path id="XMLID_110_" class="st0" d="M238.4,4.8c-0.2-0.2-0.4-0.4-0.7-0.5c-3.2-1.2-6.2-3.2-9.9-2.7c-2.4,0.3-4.9,0.2-7.3,0.3
	c-6,0.5-11.8-0.8-17.7-1.4c-9.2-0.9-18.4-0.1-27.6-0.1c-19.6,0.1-39.3-1.4-58.9,0.3C107.5,1.5,98.7,0.3,90,1.5
	c-8.2,1.1-16.4,1.4-24.7,2c-5.4,0.4-10.8,0.8-16.2,1c-4.2,0.1-8.3-0.2-12.5,0c-6.2,0.2-12.3,0.5-18.5,0.8C13.2,5.4,8.4,5.6,3.5,5.8
	c-2,0.1-3.3,1-3.5,3.6c4.6,3.3,10.1,1.4,15.3,1.8c-0.1,2.6-2,2.4-3.2,3.2c-1.1,0.7-2.2,1.6-1.4,2.9c0.6,0.8,1.9,1.2,2.9,1.7
	c0.2,0.1,0.5-0.1,0.8-0.2c10.5-1.7,21-3.5,31.6-5c6.3-0.9,12.6-1.2,18.9-1.8c8.4-0.8,16.7-1.7,25.1-2.2c11.9-0.7,23.8-1,35.7-1.4
	c16.4-0.5,32.7-1,49.1-1.3c4.2-0.1,8.5,0.1,12.7,0.8c4,0.7,7.8,1.1,11.4-1.2c0.5-0.3,1.3-0.3,2-0.3c8,0,16,0,23.9,0.1
	c3.9,0,7.8,0.4,11.6,1.9c0.8,0.3,2.3,0,2.8-0.6C240.4,6.6,239.4,5.6,238.4,4.8z M76.3,5.5c2.3-0.1,4.5-0.2,6.8-0.2
	C80.8,6.7,78.6,7.1,76.3,5.5z"/>
</svg>
