<?xml version="1.0" encoding="utf-8"?>
<!-- Generator: Adobe Illustrator 19.0.0, SVG Export Plug-In . SVG Version: 6.00 Build 0)  -->
<svg version="1.1" id="Layer_1" xmlns="http://www.w3.org/2000/svg" xmlns:xlink="http://www.w3.org/1999/xlink" x="0px" y="0px"
	 viewBox="0 0 436.5 265.8" style="enable-background:new 0 0 436.5 265.8;" xml:space="preserve">
<style type="text/css">
	.st0{fill:#FFFFFF;}
</style>
<g id="XMLID_2_">
	<path id="XMLID_65_" class="st0" d="M231,100.2c-0.9,1.4-1.3,3.2-3.1,3.8c-0.7,0.2-1.3,0.5-2,0.8c-0.5,0.2-1,0.4-1.3,0.8
		c-2.1,2.5-4.2,5.1-6.1,7.7c-1.6,2.1-3,4.4-4.5,6.7c-1.3,2-2.6,4-3.8,6.1c-1.7,2.7-2.7,5.7-2.9,8.9c-0.1,1.7,0.6,2.9,2.2,3.7
		c0.8,0.4,1.7,0.8,2.5,1.2c0.9,0.4,1.7,0.3,2.4-0.3c1.8-1.7,3.4-3.5,4.5-5.8c0.8-1.6,1.5-3.3,2.3-4.9c1.4-2.8,3-5.6,4.1-8.5
		c1.8-4.7,4.1-9.2,5.1-14.2c0.2-0.8,0.6-1.9,1.1-2.1c1.6-0.6,2.5-2.1,3.8-3c0.7-0.4,1.5-1,1.4-2.2H235c0.6-0.7,1.1-1.3,1.6-1.8
		c1.9-2,3.9-4,5.8-6c2-2.1,4-4.2,6-6.3c0.5-0.6,1-1.2,1.4-1.9c-0.3,1.5-0.8,2.9-1.6,4.1c-1.8,2.9-3.2,5.9-4.1,9.2
		c-0.8,2.9,0.7,5.8,2.9,6.8c2.6,1.2,5.2,0.8,7.6-0.5c2.3-1.3,4.2-3.3,5.7-5.4c1.6-2.3,3-4.9,4.3-7.4c0.9-1.7,1.6-3.5,2.2-5.3
		c0.4-1.2,0.6-2.5,0.9-3.8c2.9,0,5.3-1.5,7.6-3c1-0.6,1.9-1.4,2.9-2c0.2-0.2,0.6-0.1,1.2-0.3c-0.4,0.8-0.6,1.4-1,2
		c-1.7,2.8-2.7,5.8-3.7,8.9c-0.3,1-0.2,1.9,0.4,2.8c1.1,1.6,2.7,2.6,4.4,3.4c1.2,0.6,2.7,0.8,4.1,0c1.6-1,3.2-1.9,4.7-3
		c1-0.7,1.7-1.7,2.7-2.5c0.4-0.3,0.8-1,1.4-0.2c-0.8,1.6-0.1,2.6,1.7,2.6c0.1,0,0.1,0,0.2,0c1.4,0.1,2.6-0.5,3.7-1.3
		c1.5-1.1,3.1-2.3,4.5-3.6c1.1-1,2-2.3,2.9-3.5c1.7-2,3.6-4,4.8-6.4c0.8-1.5,1.5-3,2.4-4.5c0.5-0.9,0.8-1.6-0.1-2.8
		c0.8-0.1,1.3-0.1,2.2-0.2c-0.8,1.3-0.2,1.7,0.6,2.1c1.1,0.5,2,0.3,3-0.2c1-0.5,2.1-1,3.3-0.7c-0.1,0.3,0,0.4-0.1,0.6
		c-1.4,2.5-2.7,5-4.2,7.5c-1.2,1.9-1.7,4.1-2.3,6.2c-0.4,1.5-0.2,3,0.3,4.5c0.8,2.2,2.3,3.6,4.5,3.9c1.9,0.3,3.8,0.1,5.7,0.1
		c0.3,0,0.9-0.5,1-0.8c0.3-1-0.7-2.1-1.8-1.9c-0.8,0.2-1.4-0.1-2-0.5c-2.2-1.4-2.9-3.1-2.2-5.7c0.3-1,0.5-2,0.2-3.1
		c-0.2-0.8-0.2-1.7,0.1-2.4c1.4-3.8,3.5-7.1,6.3-10c0.9-0.9,1.8-1.7,2.6-2.6c1-1,1-2.3,0.1-2.9c-0.9-0.6-2.9-0.3-3.7,0.5
		c-1.8,1.7-4.2,2.4-6.5,3.2c-0.5,0.2-1,0-1.4,0c-0.5-0.7-0.2-1.1,0.1-1.6c1.6-2.6,3.2-5.1,4.8-7.7c0.2-0.4,0.5-0.9,0.5-1.3
		c0-0.6-0.2-1.2-1-1.5c-0.8-0.3-1.4,0-1.9,0.6c-0.5,0.6-0.8,1.6-1.4,2c-1.3,0.8-2,1.9-2.7,3.1c-0.2,0.5-0.6,0.8-1,1.2
		c-3.8,4-6.9,8.6-9.9,13.3c-2,3.1-3.8,6.4-6.2,9.3c-1.6,1.9-3.3,1.7-5.3,1.5c0.8-1.7,1.4-3.2,2.2-4.7c2.4-4.2,4.8-8.3,7.2-12.4
		c0.5-0.8,0.8-1.7,1.2-2.5c0.4-0.8,0-1.3-0.7-1.8c-0.6-0.4-1.1-0.2-1.6,0.2c-0.3,0.3-0.7,0.6-1,0.9c-0.4,0.4-0.6,0.9-0.9,1.4
		c-0.2,0.3-0.3,0.7-0.5,1c-1.4,2-2.9,4-4.4,5.9c-0.7,1-1.6,1.9-2.4,2.8c-1.3,1.4-2.6,2.8-3.9,4.3c-2.8,3-5.6,6.1-8.5,9.1
		c-0.3,0.4-0.8,0.6-1.4,1.1c-0.3-0.7-0.7-1.2-0.7-1.8c-0.4-3.2,0.4-6.1,2.3-8.8c0.5-0.7,0.9-1.4,1.2-2.1c1.2-2.8,2.8-5.3,5.1-7.2
		c1.5-1.2,1.8-2.8,2.4-4.4c0.2-0.7,0-1.3-0.6-1.6c-0.7-0.4-1.2-0.2-1.8,0.3c-0.2,0.1-0.3,0.4-0.4,0.6c-1.1,1.5-2.4,2.7-3.9,3.7
		c-1.3,0.8-2.6,1.8-3.7,2.9c-2.4,2.4-5.3,4.2-8.3,5.6c-0.7-0.4-1.4-0.8-2.1-1.2c0-0.5,0-0.9,0-1.3c0-0.4-0.1-0.8-0.2-1.2
		c-0.2-0.7-0.5-1.3-1.4-1.3c-0.8,0-1.6,0.6-1.7,1.4c0,0.9-0.5,1.1-1.2,1.2c-0.2,0-0.4,0-0.5,0c-1.8,0.3-2.5,1.6-1.7,3.2
		c0.3,0.7,0.9,1.2,1.4,1.8c0.5,0.5,1,1,1.4,1.4c-0.3,1.5-0.5,2.8-0.9,4c-0.4,1.3-1,2.5-1.6,3.7c-0.7,1.2-1.7,2.3-2.3,3.5
		c-0.6,1.3-1.9,1.8-2.8,2.6c-1.1,1-2.4,1.7-3.6,2.4c-1,0.6-2.2,0.5-3.3,0.3c-1.5-0.3-1.7-1.1-1.2-2.6c1.2-3.4,2.5-6.7,4.4-9.7
		c1.1-1.8,2-3.9,3.4-5.5c1.9-2.1,3.8-4.3,6.3-5.8c0.8-0.5,1.5-1.1,2.2-1.8c0.5-0.6,0.4-1.5-0.1-2.1c-0.5-0.6-1.1-0.5-1.8-0.2
		c-0.3,0.1-0.6,0.3-0.9,0.6c-1.9,1.5-3.7,3-5.6,4.5c-0.8,0.7-1.6,1.4-2.7,1.9c-1.2,0.6-2.1,1.6-3.1,2.5c-2.5,2.6-5,5.3-7.6,7.9
		c-1.7,1.7-3.5,3.4-5.2,5.1c-0.7,0.7-1.3,1.6-1.9,2.4c-0.2-0.7-0.2-1.3,0.1-1.7c0.5-0.9,1.1-1.7,1.8-2.4c3.1-3,5.8-6.4,8.3-10
		c1.9-2.7,3.6-5.6,5.5-8.3c2.1-3.2,4.3-6.3,6.5-9.4c0.9-1.3,1.1-2.7,1.2-4.3c-1.3-0.1-1.5,0.7-1.7,1.5c-0.2,0.8-0.4,1.7-1.7,2.3
		c0.7-1.4,1.2-2.5,1.8-3.5c0.1-0.2,0.5-0.5,0.7-0.5c0.7,0,1.1-0.3,1.2-1c0.1-0.6,0.3-1.2,0.2-1.7c-0.2-1.2-0.9-1.5-2-1
		c-0.4,0.2-0.7,0.4-1,0.6c-2,1.4-3.7,3-5,5c-1.5,2.3-3.4,4.5-4.8,6.9c-1,1.6-1.7,3.4-2.9,5c-0.7,0.9-0.9,2.2-1.6,3.1
		c-2.3,3.1-4.1,6.5-7,9.2c-1.7,1.5-3,3.5-4.6,5c-2.2,2.1-4.7,4.1-7,6.2c-0.6,0.6-1.3,0.9-2,0.4c-0.9-0.5-2.1-0.8-1.9-2.2
		c0.1-1.2,0.2-2.3,0.5-3.4c1.3-4.9,3.8-9.3,6.1-13.7c2.2-4.1,4.7-7.9,7.1-11.8c0.8-1.3,1.7-2.5,2.5-3.8c1.3-1.8,2.6-3.6,3.8-5.5
		c0.4-0.6,0.9-1.4,0.3-2.1c-0.6-0.7-1.5-1-2.3-1.6c-0.6-0.5-1.1,0.3-1.5,0.8c-3.1,3.5-5.1,7.7-7.4,11.7c-1.8,3.1-3.4,6.2-5.1,9.4
		c-1,1.8-1.8,3.7-2.8,5.5c-1.5,2.8-2.1,5.9-3.1,8.9c-0.7,2.3-1.2,4.6-1.7,7c-0.2,0.8-0.2,1.8-0.1,2.6c0.2,2.2,2.6,3.2,4.4,2.6
		c1-0.3,2.2-0.7,3.2-0.5c1.7,0.3,3.1-0.1,4.4-1.1c1-0.8,2.1-1.6,3.1-2.4c0.5,0.7,0.2,1.4-0.1,2C232.1,98.3,231.6,99.3,231,100.2
		 M225.2,112.8c-0.8,2.1-1.6,4.2-2.5,6.3c-1.4,3.2-2.7,6.5-4.1,9.7c-0.7,1.5-1.3,3-2,4.5c-1,2-2.4,3.7-4,5.3c-2.2-1.2-3.2-3.6-2.5-6
		c0.6-1.9,1.4-3.7,2.6-5.4c1.3-1.8,2.5-3.8,3.7-5.7c0,0,0.1-0.1,0.1-0.1c2.7-3.4,5.4-6.9,8.1-10.3c0.3-0.4,0.6-1.1,1.4-0.6
		C225.7,111.2,225.4,112,225.2,112.8 M307.6,74.4c0.1,0.1,0.3,0.1,0.4,0.2c-0.2,0.3-0.4,0.6-0.6,0.9c-0.1,0-0.1-0.1-0.2-0.1
		C307.3,75,307.4,74.7,307.6,74.4 M293.2,77.1c-1.6,4.9-5.3,9.8-8.8,11C287.5,84.4,290.3,80.7,293.2,77.1 M251.6,99.5
		c0.9-0.2,1.8-0.6,2.9-1c-2,2.5-5.8,2.6-7.5,0.4c-0.7-1-0.7-2.6,0-3.7c0.5-0.7,0.9-1.5,1.4-2.3c0.2,1.6,0.2,1.6-1.2,2.6
		c0.1,0.4,0.2,0.7,0.2,0.9c0,0.9,0.1,1.7,1,2.2C249.4,99.4,250.4,99.8,251.6,99.5 M250.3,70.6c0.1,0.1,0.2,0.2,0.3,0.3
		c-1.7,2.4-3.5,4.9-5.4,7.6C245.4,76.3,248.7,71.5,250.3,70.6 M230.9,92.9c2.2-2.5,4.2-4.7,6.3-7C236,88.9,234.1,91.3,230.9,92.9"/>
	<path id="XMLID_49_" class="st0" d="M390.9,97.3c-0.9-0.6-1.8-0.5-2.7,0.1c-3,2-5.8,4.2-7.9,7.1c-3,4-5.9,8.2-8.8,12.3
		c-0.4,0.6-0.9,0.8-1.6,0.7c-0.9,0-1.7,0-2.6,0.1c-4.7,0.9-8.3,3.7-11.7,6.7c-3.1,2.8-5.8,6-8.4,9.4c-2.9,3.8-5.9,7.5-8.9,11.1
		c-1.7,2-3.6,3.9-5.8,5.3c-1.2,0.7-2.4,1.3-3.7,0.5c-0.2-0.8-0.2-1.5,0.6-1.9c0.4-0.2,0.6-0.7,0.8-1.1c0.3-0.6,0.4-1.2,0.8-1.7
		c1.8-2.6,3.6-5.2,5.4-7.8c2.5-3.7,6-6.5,8.2-10.5c0.1-0.2,0.3-0.3,0.5-0.5c0.2-0.3,0.5-0.7,0.6-1c0.5-1.1,0.1-1.8-1-2.1
		c-0.4-0.1-0.9-0.3-1.3-0.5c-0.9-0.4-1.7-0.2-2,0.7c-0.4,1.4-1.1,2.4-2.7,2.6c-0.3,0.1-0.7,0.6-0.8,1c0,0.3,0.5,0.6,0.7,0.8
		c-0.3,0.7-0.5,1.3-0.8,1.9c-0.1,0.2-0.4,0.4-0.6,0.6c-0.5,0.5-1.2,1-1.6,1.6c-1.5,2-2.8,4.2-4.3,6.2c-0.6,0.9-1.1,1.9-2.4,2.2
		c-0.5,0.1-0.8,0.6-1.2,1c-2.9,3-5.8,6-8.8,9c-0.5,0.5-1.2,0.9-1.9,1.2c-0.6,0.3-1.1,0.2-1.6-0.4c-0.7-0.9-1-1.9-0.6-3.1
		c0.8-2.2,2.2-4.1,3.2-6.2c1.2-2.5,2.9-4.4,5.2-5.8c0.8-0.5,1.7-1,2.2-1.7c1-1.5,2.5-2.5,4-3.3c1.4-0.8,2.8-2,4.6-2
		c0.8,0,1.5-0.6,1.7-1.4c0.2-1.4,1.3-1.7,2.3-2.1c0.5-0.2,1.1-0.4,1.6-0.7c0.7-0.4,1.1-1.1,0.9-1.9c-0.3-0.8-1-1.1-1.8-1
		c-0.2,0-0.3,0.1-0.5,0.1c-2.8,0.6-5.4,1.6-7.7,3.4c-2.5,1.9-4.9,3.8-7.3,5.7c-0.6,0.5-1.3,1.1-1.9,1.5c-0.9,0.6-1.8,1.3-2.8,1.8
		c-1.4,0.7-2.8,1.2-4.2,1.8c-0.6,0.3-1.2,0.7-2,0.2c0.3-0.5,0.7-0.9,0.8-1.3c0.4-2,0.5-4.1,0.3-6.2c0-0.3-0.2-0.6-0.4-0.8
		c-0.9-1-1.9-2-3.4-1.7c-0.4,0.1-0.8,0.1-1.2,0c-3.6-0.8-6.7,0.5-9.6,2.3c-2.1,1.3-4,2.9-5.9,4.4c-0.6,0.5-1.1,1-1.6,1.6
		c-1.2,1.4-2.3,2.8-3.5,4.2c-1.6,1.9-3.2,3.7-4.7,5.6c-1.8,2.2-2.8,4.8-2.9,7.7c0,0.8,0,1.6-0.1,2.5c-0.4,4,2,5.3,4.6,5.8
		c0.7,0.1,1.6,0,2.2,0.3c1.5,0.7,2.9,0.3,4.2-0.3c0.6-0.3,1.3-0.5,2-0.8c1.8-0.7,3.8-1.3,5.5-2.3c2.8-1.8,5.2-4.1,7.3-6.8
		c1.5-2,2.7-4.1,4.1-6.1c0.4-0.5,0.8-1,1.4-1.3c1.3-0.7,2.6-1.3,3.9-2c0,0.7-0.3,1.1-0.6,1.6c-1.5,2.3-2.8,4.7-3.3,7.5
		c-0.1,0.3-0.2,0.7-0.3,1c-0.5,1.5-1,3-1.4,4.5c-0.4,1.5,0.7,2.4,2.2,2.2c1.3-0.2,2.4-0.9,3.4-1.6c0.5-0.4,1-0.8,1.6-1.1
		c1.8-0.9,3.7-1.8,5.5-2.8c1.2-0.6,2.3-1.3,3.3-1.9c0.3,0.8,0.3,1.6,0.8,2.1c1.6,1.8,3.8,1.8,5.6,0.7c2.3-1.5,4.6-3,6.3-5.2
		c0.2-0.2,0.6-0.3,1.1-0.6c-0.3,1.1-0.7,2-0.8,2.8c-0.4,2,1.2,3.4,3,2.8c1-0.3,2-0.9,2.9-1.6c2.6-1.8,5.2-3.6,7.7-5.4
		c0.5-0.3,0.9-0.8,1.3-1.1c0.3-0.2,0.5-0.4,1.2-0.8c-0.2,0.9-0.3,1.5-0.4,2c-0.4,1.7-0.9,3.4-1.3,5.1c-0.4,1.6,0.3,2.2,2,2.1
		c0.2,0,0.3,0,0.6,0c1.3,3.7,4.2,4.8,7.8,5.1c1.1,0.1,2.1-0.1,3.1,0.2c1.1,0.3,2-0.2,2.9-0.5c0.9-0.4,1.2-1.7,0.3-2.1
		c-0.9-0.5-1-1.2-1.4-2.4c-0.6,0.4-0.9,0.7-1.3,0.9c-0.7,0.5-2.5,0.6-2.8,0.1c-0.3-0.8-1.1-1-1.7-1.4c-2.6-1.9-2.9-5.1-2.2-7.4
		c0.6-1.9,1.6-3.6,2.5-5.4c1.4-2.8,2.9-5.5,4.7-8c0.5-0.6,0.6-1.5,1.1-2.2c1.1-1.6,2.3-3.1,3.5-4.6c2.6-3.5,5.1-7,7.8-10.4
		c3.3-4.3,5.9-9.1,9.4-13.3c0.7-0.8,1.1-1.8,1.5-2.7C391.7,98.7,391.6,97.8,390.9,97.3 M301.3,136.4c-0.2,0.5-0.3,0.8-0.4,1.1
		c-0.1,0.3-0.2,0.7-0.4,1.2c0.4,0.3,0.8,0.6,1.5,1.1c-1,0.1-1.5,0.2-2,0.3C299.8,137,299.8,137,301.3,136.4 M295.2,133.6
		c0.1,0.1,0.2,0.2,0.3,0.3c-0.3,0.2-0.5,0.5-0.8,0.7l-0.2-0.2C294.7,134.1,294.9,133.8,295.2,133.6 M294.2,158
		c0.8-0.5,1.3-0.9,1.9-1.3l0.3,0.3C295.8,157.4,295.5,158.4,294.2,158 M301.6,148.9c-1.6,2.4-4.1,3.8-6.4,5.4
		c-1.2,0.9-2.6,1.5-4,2.2c-1,0.5-2,0.9-3,1.3c-0.8,0.3-1.4-0.1-1.8-0.7c-0.8-0.9-1.6-1.8-2.4-2.8c-0.7-0.8-0.8-1.6-0.2-2.6
		c1.7-3.1,4-5.7,6.2-8.4c2.2-2.6,4.7-4.9,7.2-7.1c0.2-0.2,0.4-0.3,0.7-0.6c-0.1,1.6-0.3,3-0.2,4.4c0.1,1.6,0.7,3.1,2.5,3.4
		c1.4,0.2,2.5,1.7,4.1,0.7l0.4,0.3c-0.2,0.5-0.2,1.1-0.5,1.4C303.3,146.9,302.3,147.8,301.6,148.9 M303.8,149.7
		c-0.6-1.1,0-1.5,1.1-1.6C304.7,149.1,304.7,149.1,303.8,149.7 M305.8,147.3c-0.1-0.6-0.2-1-0.3-1.5c0.5,0,0.9,0.1,1.6,0.1
		C306.6,146.5,306.2,146.9,305.8,147.3 M310.8,133.3c-0.2,1.4-0.5,2.7-0.8,4.1c-1.9,1.8-3.9,3.4-7,3.4c0.1-1.4,0.1-2.6,0.2-3.7
		c0.3-2.6,2.2-4.3,4-5.9c0.8-0.7,1.7-0.5,2.6-0.1C310.9,131.5,310.9,132.4,310.8,133.3 M311.8,155.5c1.1-0.7,1.2-2.8,3.5-1.8
		C314.2,154.7,313.3,155.6,311.8,155.5 M324.2,149.8c-0.2-0.2-0.3-0.4-0.3-0.4c0.2-0.4,0.4-0.7,0.5-1.1c0.1,0.1,0.2,0.1,0.3,0.2
		C324.6,148.9,324.4,149.3,324.2,149.8 M341.2,151c0.4-1.6,0.7-2.9,1-4.5c0.8,1,0.8,2.5,2.5,2.3C343.6,149.7,342.7,150.8,341.2,151
		 M351.9,143.2c-1.2,1.1-2.5,2.2-3.9,2.9c-1,0.6-2.3,0.6-3.2-0.4c-0.3-0.3-0.8-0.5-1.5-0.9c0.5-0.7,1-1.3,1.4-1.9
		c0.4-0.5,0.6-1.1,1-1.6c1.5-1.9,3-3.9,4.7-5.7c1.6-1.8,3.4-3.6,5.2-5.2c1.8-1.6,3.8-3,5.7-4.6c1.4-1.1,2.8-2.3,4.1-3.5
		c0.8-0.7,1.6-1,2.8-0.7c-2.3,2.3-3.7,5.1-5.3,7.8c-0.1,0.2-0.2,0.4-0.3,0.6c-0.8,2.8-2.7,4.9-4.6,6.9
		C356,139,354,141.2,351.9,143.2 M363.8,136.2c-2.2,1.9-3.2,4.6-4.4,7.1c-0.5,1-0.8,2,0.3,3c-0.5,0.4-0.8,0.6-1.1,0.8
		c-0.1-0.1-0.2-0.2-0.2-0.3c0-0.8,0.1-1.7,0-2.4c-0.2-1.4,0.2-2.5,0.9-3.6c1-1.4,1.9-2.8,3-4.1c0.4-0.5,0.9-0.8,1.7-1.5
		C363.9,135.7,364,136,363.8,136.2 M372.3,121.8c-1.2,1.4-2.6,2.8-3.9,4.2c-0.2,0.2-0.7,0.2-1.3,0.4c0.2-0.5,0.2-0.7,0.3-0.9
		c0.8-1,1.7-1.9,2.5-2.8c0.6-0.6,1.1-1.3,2-1.6c0.2-0.1,0.4-0.4,0.6-0.7C372.6,120.9,372.6,121.5,372.3,121.8 M382.2,108.4
		c-0.9,1.6-2.4,2.9-3.3,4.5c-1.3,2.3-3.3,4.1-4.6,6.4c-0.3,0.5-0.6,1.3-1.5,1.1c1.4-3.6,4-6.3,6.2-9.4c0.8-1.1,1.5-2.2,2.4-3.2
		c1.6-1.9,3.3-3.7,5.1-5.5c0.6-0.6,1.3-1.2,2.4-0.9C386.1,103.2,383.8,105.5,382.2,108.4"/>
	<path id="XMLID_39_" class="st0" d="M103.2,113c-1.8,3.6-3.6,7.2-5.3,10.9c-0.7,1.5-1.3,3-1.8,4.6c-0.4,1.1-0.1,1.8,0.7,2
		c0.8,0.2,1.2-0.1,1.6-1.2c0.6-1.4,1.2-2.8,1.8-4.2c0.3-0.7,0.8-1.2,1.2-1.8c2.3,1,2.6,1,4.3-0.9c1.8-1.9,3.4-4,5-6.1
		c0.4-0.6,0.4-1.1-0.4-1.4c-0.3,0.2-0.6,0.4-0.8,0.7c-1.8,1.9-3.6,3.8-5.5,5.7c-0.4,0.4-0.8,1-1.6,0.5c1.3-1.6,2.7-3.2,3.4-5.2
		c0.1-0.2,0.3-0.5,0.5-0.5c1,0.2,1.3-0.7,1.7-1.3c0.9-1.2,1.7-2.5,2.5-3.7c1.2-1.8,2.5-3.5,3.6-5.2c1.2,0.4,2.1,0.9,3.1,1.2
		c3.2,0.7,6.3,1.8,9.4,2.9c0.8,0.3,1.5,0.7,2.2,1c2.6,1.4,5.1,2.8,7.4,4.5c0.5,0.4,1.3,0.6,1.9,0.8c0.7,0.2,1.4,0.4,2.2,0.7
		c0.9,0.3,1.8,0.7,2.9,1.1c0.1,0.2,0.2,0.7,0.4,1c0.2,0.3,0.6,0.5,1,0.8c0.2-0.3,0.5-0.6,0.7-0.9c0.5-1.3,0.6-1.4,1.9-1.3
		c0.2,0,0.4,0.1,0.5,0.1c0.3-0.1,0.6-0.4,1-0.6c-0.2-0.3-0.4-0.8-0.7-0.9c-0.8-0.2-1.6-0.3-2.4-0.4c-0.3-0.1-0.7-0.1-0.9-0.3
		c-1.2-0.9-2.9-1.6-4.2-1.6c-0.2-0.5-0.3-1.1-0.7-1.5c-1.8-1.8-4.1-2.9-6.4-3.9c-1.8-0.8-3.7-1.5-5.5-2.2c-1.9-0.8-3.7-1.7-5.6-2.5
		c-2-0.8-4.1-1.3-6.5-0.8c0.1-0.5,0-1,0.2-1.3c0.6-0.7,1.2-1.4,1.9-2.1c0.3-0.3,0.8-0.4,1.2-0.6c2-0.6,4-1.1,6-1.8
		c2.5-0.9,5-2.1,7.6-2.7c4-1,7.7-2.4,11.3-4.2c3-1.5,5-4,7.2-6.3c0.8-0.8,0.9-1.9,0.5-3.3c-0.9-2.6-3.3-3.9-4.8-5.9
		c-0.3-0.4-0.8-0.7-1.3-0.9c-3.4-1.5-6.8-2.7-10.5-3.2c-2.3-0.3-4.5-0.2-6.8-0.4c-2.3-0.2-4.6-0.1-7,0.2c-1.4,0.2-2.9,0.2-4.4,0.4
		c-2.5,0.4-5.1,0.7-7.6,1.4c-2.8,0.8-5.5,1.8-8.1,3.2c-1.5,0.8-3.1,1.3-4.7,2c-0.9,0.3-1.8,0.6-2.7,0.8c-0.9,0.3-1.9,0.5-2.8,0.8
		c-0.5,0.2-1.1,0.6-0.8,1.3c0.3,0.6,0.6,1.2,1.4,1.1c2.5-0.4,5.2-0.4,7.4-1.9c1.6-1.1,3.4-1.6,5.2-2c0.9-0.2,1.8-0.4,2.7-0.6
		c1.7-0.3,3.4-0.6,5.2-0.9c0,0.4,0,0.7,0.1,1c1.2,0.2,1.9-0.4,2.3-1.3c0.6,0.1,1.1,0.3,1.6,0.3c1.6-0.1,3.2-0.5,4.9-0.5
		c2.7-0.1,5.4-0.7,8.2-0.2c4.5,0.8,9.1,1.4,13.7,2.2c1.7,0.3,3.4,0.8,4.4,2.6c0.2,0.3,0.8,0.4,1.1,0.6c0.1,0.1,0.2,0.2,0.3,0.4
		c-0.4,0.1-0.8,0.2-1.4,0.3c0.4,0.7,0.7,1.3,1.1,1.9c-1.2,0.9-2.3,2.1-3.7,2.9c-2.8,1.5-5.5,3.3-8.6,4.3c-0.4,0.1-0.8,0.4-1.3,0.5
		c-2.1,0.6-4.2,1.3-6.4,1.9c-2.1,0.5-4.2,0.8-6.4,1.3c-0.5,0.1-1.3,0.3-1.1,1.1c0.1,0.4,0.6,0.7,0.9,1c-1,0.5-2,0.9-3,1.4
		c0.1-0.5,0.3-0.8,0.6-1.1c0.4-0.5,1-1,1.1-1.5c0.2-1.3,0.9-2.2,1.5-3.3c0.8-1.4,1.5-2.8,1.4-4.4c0-0.4,0.2-0.9,0.4-1.3
		c1.2-2.1,2.5-4.2,3.7-6.3c0.2-0.4,0.4-0.9,0.4-1.3c0-0.4-0.1-0.9-0.3-1.1c-0.4-0.2-1-0.2-1.5-0.1c-0.3,0.1-0.6,0.4-0.8,0.7
		c-1.2,1.7-2.5,3.4-3.6,5.1c-1,1.5-2.1,2.9-2.5,4.8c-0.2,0.9-0.8,1.9-1.5,2.5c-1.9,1.6-2.3,2.1-3.7,4.4c-0.5,0.8-1.2,1.6-2.5,1.7
		c-2.3,0.1-4.7,0-7,0.5c-3.9,0.8-7.8,2-11.7,3.1c-1.7,0.5-3.5,1.1-5.2,1.4c-1.7,0.2-3.4,0.3-4,2.4c-2.9-1.1-5.5,0.4-8.4,0.4
		c0.1-0.5,0.2-0.9,0.4-1.2c0.9-1.4,1.8-2.7,2.8-4c0.3-0.4,0.8-0.9,1.4-1c2-0.4,3.5-1.9,5.6-2c0.2,0,0.5-0.1,0.6-0.3
		c0.2-0.3,0.6-0.7,0.5-1c-0.1-0.4-0.5-0.9-0.8-1C85.3,94,84.6,94,83.9,94c-0.4,0-0.9,0.1-1.7,0.1c0.3-0.7,0.5-1.3,0.7-1.7
		c1.5-2.3,3-4.6,4.4-7c0.4-0.7,0.3-1.7,0.1-2.5c-0.2-0.8-1-0.1-1.7-0.1c0.1-0.5,0.3-0.8,0.3-1.2c0.1-0.7,0.1-1.5-0.8-1.7
		c-0.7-0.2-1.4,0.2-1.7,1.1c-0.2,0.8-0.3,1.6-0.5,2.4c-0.3,1.2-0.5,2.4-1.1,3.5c-0.7,1.3-1.7,2.5-2.7,3.7c-1,1.3-2.5,2.2-3.3,3.8
		c-0.3,0.6-1.3,1.1-2,1.2c-1.8,0.4-3.7,0.7-5.5,1c-0.3,0-0.5-0.1-1-0.2c0.4-0.8,0.7-1.5,1.1-2.1c1.4-2,3-3.9,4.4-5.9
		c0.4-0.5,0.7-1.1,0.9-1.7c0.2-0.6,0.1-1.2-0.6-1.5c-0.6-0.3-1.1-0.2-1.6,0.3c-0.3,0.3-0.5,0.7-0.6,0.8c-1,0.3-1.8,0.4-2.2,0.8
		c-1.1,1.1-2.1,2.4-3,3.6c-0.4,0.5-0.5,1.5-0.9,1.8c-1.5,1-2.1,2.7-3.2,3.9c-0.5,0.6-1.3,1.1-2,1.3c-1.6,0.4-3.3,0.7-5,0.9
		c-2.4,0.3-4.9,0.4-7.3,0.6c-1,0.1-1.9,0.2-2.1,1.4c-0.1,0.3-0.2,0.5-0.4,0.9c-0.5,0-1.1-0.1-1.6,0c-0.5,0.1-1.1,0.3-1.5,0.7
		c-1,0.9-0.9,1.8,0.4,2.2c0.8,0.2,1.8,0.2,2.6,0c1.6-0.4,3.1-1.1,4.7-1.5c2.5-0.6,5-1.1,7.5-1.7c0.2,0,0.7,0.1,0.7,0.2
		c0.1,0.3,0.1,0.7,0,1c-0.7,1.2-1.5,2.4-2.3,3.5c-0.2,0.3-0.8,0.6-1.2,0.6c-3.5,0.4-7.1,0.7-10.6,1.1c-1.5,0.2-2,0.7-1.9,2.2
		c-0.8,0.4-1.5,0.8-2.3,1.2c-0.7,0.4-1.4,0.9-1.1,1.8c0.3,0.8,1.1,0.7,1.8,0.8c0.2,0,0.3,0,0.5-0.1c3.1-0.6,6.3-1.3,9.4-1.9
		c0.6-0.1,1.2-0.4,1.8,0.2c-1.1,2.4-2.2,4.7-3.3,7c-0.2,0.5-0.5,1.1-0.6,1.6c-0.1,0.4,0,1,0.3,1.2c0.3,0.2,1,0.2,1.3,0
		c0.6-0.5,1.2-1.1,1.6-1.8c1.4-2.3,2.7-4.6,4.2-6.9c1.6-2.5,1.9-2.6,4.2-2.9c1.4-0.2,2.8-0.3,4.2-0.4c0.7-0.1,1.3-0.2,2.1-0.3
		c-0.1,0.5-0.1,0.8-0.2,1c-1,1.9-2,3.8-2.9,5.8c-0.6,1.3-1.2,2.6-1.8,4c-0.2,0.6-0.2,1.2,0.3,1.6c0.5,0.4,1.1,0.4,1.6,0
		c0.5-0.3,0.9-0.8,1.3-1.2c0.3-0.3,0.5-0.7,0.8-0.9c2-1,3.2-2.9,3.8-4.8c0.6-1.8,1.6-3.3,2.6-4.9c0.3-0.5,1-1,1.6-1.2
		c0.9-0.3,2-0.2,2.9-0.4c2-0.5,4.1-0.6,5.7-2.1c0.4-0.4,0.9-0.5,1.4-0.1c1.2,0.9,2.5,0.9,3.8,0.6c1.4-0.3,2.7-0.6,4.1-1
		c4.4-1,8.8-1.2,13.2-1.6c1.1-0.1,2.3,0.2,3.6,0.3c-0.4,0.8-0.7,1.3-1,1.8C105.7,108.6,104.3,110.7,103.2,113 M115.5,74
		c0-0.1,0-0.2,0-0.3c0.9-0.1,1.8-0.1,2.8-0.2c0,0.2,0,0.3,0,0.5H115.5z M119.7,73.7c0-0.1,0-0.2,0-0.3h2.3c0,0,0,0.1,0,0.1
		C121.3,73.6,120.5,73.7,119.7,73.7 M124.3,73.5c4-0.8,7.9-0.4,11.8,0.3c0.9,0.2,2-0.5,3,1C133.9,74.3,129.2,72.7,124.3,73.5
		 M143,75c0.9,0.2,2-0.1,3,1C144.8,75.6,143.9,75.3,143,75 M72,100.9c-0.4,0.6-0.9,1.2-1.4,1.8c-0.4,0.5-0.9,1-1,1.6
		c-0.2,0.9-0.8,1.2-1.4,1.3c-2.6,0.2-5.2,0.4-7.8,0.5c-0.1-0.1-0.2-0.2-0.3-0.4c0.5-0.8,0.8-1.7,1.4-2.3c0.6-0.5,0.8-1,1.1-1.7
		c0.4-0.9,1-1.5,2.2-1.5c1.3,0,2.7-0.1,4-0.2c1-0.1,2-0.1,3.2-0.2C72,100.2,72.1,100.6,72,100.9 M92.1,102.4c0-0.1,0-0.3,0-0.4H93
		c0,0.1,0,0.1,0,0.2C92.7,102.3,92.4,102.3,92.1,102.4 M108.2,112.7c-0.1,0-0.2,0-0.3-0.1c0.1-0.4,0.2-0.8,0.3-1.2
		c0.1,0,0.2,0,0.3,0.1C108.4,111.9,108.3,112.3,108.2,112.7 M101,101.7c-1.7,0.2-3.3,0.5-5,0.7c-0.7,0.1-1.3,0-2-0.1
		c0-0.1,0-0.3,0-0.4c5.8-1.1,11.6-2.1,17.6-3.3c-0.6,1.4-1.5,2.4-2.8,2.3C106.2,100.9,103.6,101.4,101,101.7"/>
	<path id="XMLID_31_" class="st0" d="M289.6,167.4c-0.8-0.4-1.5-0.6-2.3-1c-0.2-1.7-1.2-2.1-2.8-1.2c0.3-0.5,0.5-0.7,0.7-1.1
		c-0.3-0.2-0.5-0.4-0.8-0.5c-3.7-2.2-7.8-3.3-11.5-5.5c-4.8-2.7-9.9-5-15.2-6.9c-1.6-0.6-3.2-1.1-4.8-1.6c-0.7-0.2-1.5-0.3-2.2-0.4
		c-1.4-0.3-2.8-0.5-4.2-0.8c0.2-1.5,0.8-2.2,1.7-2.1c2.2,0.2,4.3-0.2,6.4-0.8c2.7-0.7,5.3-1.7,8-2.5c1.4-0.5,2.9-1,4.2-1.6
		c1.7-0.8,3.3-1.7,5-2.5c2.5-1.2,4.7-2.8,6.7-4.7c2.3-2.3,4.4-4.7,4.8-8.1c0.1-1.1,0.1-2.1-0.2-3.1c-1-2.9-3.3-4.7-5.8-6.1
		c-3.5-2-7.5-2.6-11.4-3.4c-0.6-0.1-1.2-0.1-1.8-0.1c-1.9-0.1-3.7-0.1-5.5-0.2c-1.1-0.1-2.2-0.2-3.3-0.4c-2.5-0.4-5,0-7.5,0
		c-0.4,0-0.8,0-1.2,0.1c-4.1,0.6-7.8,2.2-11.7,3.4c-1.5,0.5-3,1-4.5,1.4c-1.1,0.3-1.7,0.9-1.6,1.7c0.1,0.9,1,1.5,2.1,1.4
		c0.3,0,0.6-0.2,0.9-0.2c1.6-0.1,3.3-0.4,4.9-0.2c4.4,0.4,8.6,0,12.8-1.3c0.8-0.3,1.7-0.4,2.1-1.7c-2.3,0.4-4.4,0.8-6.5,1
		c-2.1,0.2-4.3,0.3-6.8,0.5c0.4-0.3,0.6-0.5,0.7-0.5c2.3-0.5,4.6-1,6.8-1.5c0.8-0.2,1.6-0.3,2.4-0.5c2.7-0.6,5.4-0.9,8.2-0.5
		c1.1,0.1,2.1,0.4,3.4,0.7c-0.1,0.3-0.2,0.8-0.5,1.1c-1,1-1.5,2.2-2,3.4c-0.8,1.8-1.7,3.6-2.7,5.3c-1.8,3.3-3.7,6.5-5.6,9.7
		c-1.2,2.1-2.5,4.2-3.8,6.3c-0.5,0.8-1.2,1.2-2.1,1.3c-2.8,0.3-5.5,0.8-8.2,1.6c-2.3,0.7-2.4,0.6-2.7,3c-1.3-0.7-2.6-0.6-3.9,0
		c-0.4,0.2-0.8,0.9-0.8,1.4c0,0.4,0.4,1.1,0.7,1.2c0.8,0.3,1.8,0.6,2.7,0.6c2.2-0.1,4.3-0.4,6.4-0.7c0.9-0.1,1.6,0.1,2.4,0.6
		c-0.1,0.3-0.2,0.5-0.3,0.7c-1.8,2.8-3.6,5.6-5.4,8.4c-1.6,2.7-3.2,5.4-4.8,8.2c-1.2,2.2-2.4,4.4-3.5,6.7c-1.3,2.5-2.5,5-3.7,7.6
		c-0.5,1.1-0.2,1.9,0.6,2.2c0.8,0.3,1.6-0.1,2.1-1.1c0.1-0.3,0.2-0.6,0.3-0.8c0.3-0.7,0.7-1.5,1.1-2.3c0.5,0.2,0.9,0.4,1.3,0.6
		c1.8-0.9,2.5-2,1.6-3.9c-0.1-0.3-0.2-0.7,0-1c0.8-1.6,1.7-3.2,2.6-4.8c0.1-0.2,0.5-0.2,1-0.4c-0.3,0.7-0.5,1.1-0.7,1.5
		c-0.3,1,0,1.7,0.8,2c0.7,0.2,1.1-0.1,1.5-1c0.7-1.6,1.3-3.2,2-4.9c1-2.4,1.8-4.9,2.9-7.3c1.4-3,2.9-5.9,4.3-8.8
		c0.4-0.8,0.9-0.9,1.9-0.4c3,1.4,6,2.9,9,4.4c3.4,1.7,6.9,2.8,10.6,3.8c3.5,0.9,7.1,1.6,10.6,2.5c0.6,0.1,1.1,0.3,1.6,0.6
		c3,1.5,5.9,3,8.9,4.6c0.2,0.1,0.3,0.2,0.4,0.3c0.8,1.3,2.2,1.4,3.4,2.1c0.2-0.5,0.4-0.8,0.7-1.4c0.2,0.6,0.3,1,0.4,1.3
		c0.2,0.3,0.5,0.9,0.6,0.9c0.4-0.1,0.8-0.3,1.1-0.7c0.5-0.8,0.3-2.1-0.3-2.8C291.4,166.8,290.4,166.7,289.6,167.4 M264.3,139.9
		c-0.6,0.2-1.3,0.3-2,0.5c-0.1-1,0.2-1.6,0.8-2c1.8-1.5,3.6-2.9,5.4-4.4c1-0.9,2-1.8,3-2.7c0.3-0.3,0.8-0.2,1.5-0.4
		c-1,1.2-1.8,2.1-2.7,3c-0.4,0.4-1.1,0.6-1.6,0.9c-1.2,0.9-2.4,1.8-3.6,2.7C264.1,138,264.4,138.9,264.3,139.9 M266.7,139.3
		c0.2-0.5,0.4-1,1.2-0.8c-0.3,0.4-0.5,0.8-0.8,1.2C267,139.6,266.8,139.4,266.7,139.3 M276.6,120c-0.1-0.2-0.2-0.4-0.4-0.7
		c4.1,1.4,5.8,5.5,4,9.3c-1.1,2.2-2.8,3.8-4.7,5.2c-2,1.6-4.2,2.9-6.4,4.3c-0.3,0.2-0.8,0.3-1.2,0.4c1.3-1,2.5-2.2,3.8-3.1
		c2.3-1.6,3.1-4,3.9-6.5c0.2-0.6,0.3-1.3,0.7-1.7C278.3,124.8,278,122.4,276.6,120 M271.6,117.6c1,1,2.2,1.7,2.7,3.1
		c0.6,1.5,1.5,2.9,1.3,4.6c-0.8-0.4-0.8-0.4-0.9-0.8c-0.4-1.1-0.8-2.1-1.3-3.2c-0.3-0.7-0.8-1.4-1.3-2c-0.5-0.5-1.1-1-1.7-1.5
		C270.8,117.3,271.3,117.2,271.6,117.6 M250.3,140.8c2.4-4.6,4.9-9.2,7.4-13.7c1.1-2.1,2.4-4.1,3.6-6.2c0.5-0.8,0.9-1.6,1.3-2.5
		c0.5-0.8,2.2-1.3,2.6-0.5c0.8,1.3,1.9,1.4,2.9,1c0.6,0.7,1,1.5,1.6,1.9c1,0.7,1.6,1.5,2,2.6c0.4,1.4,1,2.7,0.8,4.2
		c-3.9,3.2-7.6,6.5-11.5,9.5c-3.3,2.6-6.1,4.1-11,4.9C250.2,141.5,250.2,141.1,250.3,140.8 M250.8,151.6c0.5,0.1,1.1,0.1,1.6,0.3
		c5.1,2,10.2,4,15.3,6c0.2,0.1,0.3,0.3,0.6,0.7C261.9,157.4,256.2,154.7,250.8,151.6"/>
	<path id="XMLID_26_" class="st0" d="M139.4,102.6c-0.4,0.3-0.9,0.6-1.2,1c-0.3,0.4-0.6,0.9-0.7,1.3c-0.1,0.3,0.2,0.7,0.5,1.3
		c1.3-0.5,2.5-0.9,3.6-1.5c2-1.2,4.6-1.7,5.5-4.3c0-0.1,0.2-0.2,0.2-0.3c1.3-1.4,2.6-2.8,4-4.2c0.5-0.5,0.8-1.3,2-1.2
		c-1.3,3.1-2.7,6.1-2.4,9.5c0.8,1.1,1.9,1.4,3.2,1.1c1.9-0.4,3.6-1.1,5.1-2.2c2-1.5,3.8-3.1,5.2-5.2c0.3-0.4,0.5-1.2,1.4-1
		c-0.1,0.7-0.2,1.3-0.3,2c-0.2,1.6,0.5,2.8,2,3.5c1.7,0.8,5.6,0.1,6.8-1.3c1.8-2,3.5-4.1,5.1-6.2c1.4-1.7,2.6-3.5,4-5.1
		c1.7-2,3.4-3.8,5.2-5.7c1-1,2.1-1.9,3-2.9c1.1-1.1,2.4-2,3.2-3.4c-0.3-0.4-0.5-0.6-0.8-1c1.1-0.5,1.6-0.4,1.7,0.5
		c0.1,0.6,0,1.3-0.1,1.9c-0.5,2.2-1.7,4.1-3.1,5.8c-2.8,3.5-5.5,7-8.2,10.5c-0.6,0.8-1,1.7-1.4,2.6c-0.5,1.3-0.3,1.7,1.1,2.2
		c0.1,0,0.3,0.1,0.5,0.2c-0.3,0.4-0.5,0.8-0.8,1.2c-0.6,1-0.4,2,0.5,2.5c0.7,0.4,1.6,0.1,2.2-0.8c1-1.6,2-3.1,3-4.7
		c2-3.2,3.7-6.6,6.2-9.5c1.5-1.8,2.9-3.7,4.4-5.5c1.5-1.9,3.3-3.6,4.4-5.9c0.2-0.4,0.7-0.7,1.1-0.8c1.1-0.2,2.3-0.2,3.6-0.3
		c0,0.7,0.1,1.2,0,1.7c-0.5,1.7-1.1,3.5-1.7,5.1c-1.5,3.8-3.9,7.2-5.3,11c-0.5,1.5-1.3,2.9-1.9,4.3c-0.4,0.7-0.5,1.6,0,2.1
		c0.7,0.7,1.6,1,2.6,0.6c0.5-0.2,0.9-0.4,1.2-0.5c1.3,1.1,2.5,2,3.6,3c0.5,0.5,1.2,0.8,1.7,0.1c0.5-0.6,0.1-1.2-0.4-1.7
		c-0.6-0.5-1.3-1.1-1.8-1.7c-0.2-0.3-0.3-0.8-0.3-1.2c0-0.5,0.2-1.1,0.1-1.5c-0.2-0.4-0.8-0.6-1.2-0.9c-0.3-2,0.1-3.9,1.1-5.8
		c1.8-3.7,3.7-7.3,5-11.2c1-3.2,0.5-6.1-0.6-9.1c-0.5-1.3-1.4-1.5-2.4-0.6c-1.2,1.1-2.9,1.6-3.7,3.1c-0.1,0.2-0.4,0.3-0.6,0.4
		c-1.8,0.5-3.2,1.5-4.5,2.8c-0.5-1.2-0.8-2.4-1.3-3.5c-0.5-1.3-1.9-1.8-3-1.1c-2.2,1.4-4.4,2.8-6.5,4.4c-2.8,2.2-5,4.9-7,7.8
		c-1.1,1.6-2.4,3.2-3.6,4.8c-1.1,1.4-2.2,2.7-3.3,4.1c-1.3,1.6-2.6,3.3-4,4.9c-1,1.2-2,1.2-3.1,0.1c0.4-0.9,0.9-1.8,1.4-2.7
		c0.9-1.8,2-3.4,2.8-5.3c1.2-2.7,2.6-5.2,4.4-7.5c1.6-2,3.1-4.1,4.7-6.1c0.3-0.4,0.6-0.8,0.7-1.2c0.2-0.6,0.2-1.3-0.4-1.7
		c-0.6-0.4-1.3-0.4-1.8,0.1c-0.7,0.7-1.5,1.3-2.1,2.1c-2.4,3.2-4.6,6.5-7.1,9.6c-2.7,3.4-5.6,6.6-8.2,10.1c-1.4,1.9-3.2,3.2-4.9,4.7
		c-1,0.9-2.2,1.6-3.8,0.9c0.3-1.1,0.5-2.2,1-3.2c1.4-3.2,2.9-6.4,4.4-9.5c0.6-1.1,1.4-2.1,2.2-3.1c1-1.3,2-2.6,3-3.9
		c1.1-1.5,2.1-3,3.1-4.5c0.4-0.6,0.4-1.4-0.2-1.9c-0.5-0.5-1.5-0.4-2.1,0.1c-0.6,0.6-1,1.3-1.5,1.9c-1.2,1.6-2.3,3.4-3.7,4.9
		c-3.1,3.7-6.4,7.2-9.6,10.9C147.1,96.7,143.4,99.9,139.4,102.6 M201.4,99.3c0.6-0.8,1-1.3,1.6-2.1c0.1,0.9,0.1,1.5,0.2,2.1H201.4z
		 M200.7,79.3c0.1,0.1,0.2,0.2,0.4,0.3c-0.3,0.4-0.6,0.7-0.8,1.1l-0.3-0.2C200.2,80.1,200.5,79.7,200.7,79.3 M190.1,79.1
		c-0.3,1.5-1.8,2-2.7,2.9C188,80.7,189,79.9,190.1,79.1"/>
	<path id="XMLID_20_" class="st0" d="M141.3,155c1.2-2.6,2.6-5.1,3.7-7.8c0.9-2.3,2.2-4.6,2.1-7.1c0.3-1.6,0-3.1-0.9-4.2
		c-1.7-2-3.9-3.4-6.4-4.1c-4.1-1-7.8,0.3-11.4,2.3c-0.7,0.4-1.3,1.1-2,1.5c-2.8,1.6-5.1,3.9-7.4,6.2c-0.6,0.6-1.2,1.3-1.8,1.9
		c-0.4,0.4-1,0.8-1.4,1.3c-0.6,0.7-1.1,1.6-1.7,2.2c-2.4,2.2-3.7,5.1-5.5,7.7c-1.5,2.1-2.8,4.5-4,6.8c-1.5,2.6-2.9,5.3-4.3,8
		c0,0.1-0.1,0.1-0.1,0.2c-1.5,4.1-3,8.2-3.6,12.6c-0.3,1.8-0.5,3.6-0.5,5.4c0,3.4,1.7,5.7,5.1,6.4c1.6,0.4,3.2,0,4.6-0.5
		c2.3-0.8,4.7-1.6,6.9-2.7c2-1,4.2-2,5.8-3.6c1.9-2,4.5-3.2,6-5.5c2.2-1.2,3.2-3.5,4.7-5.3c1.7-2,2.6-4.7,4.5-6.6
		c0.2-0.2,0.2-0.5,0.4-0.8c1.1-2,2.2-4,3.2-6c0.8-1.6,1.6-3.2,2.4-4.8C140.3,157.2,140.8,156.1,141.3,155 M128.7,138.4
		c-1.8,1.7-3.4,3.2-5.1,4.8c-1.6,1.6-3.2,3.2-4.7,4.8C120.6,142.8,125.6,137.9,128.7,138.4 M117.2,147c-0.5,1.7-1,3-1.9,4.2
		c-1.3,1.6-2.5,3.2-3.7,4.9c-0.9,1.3-1.8,2.5-2.7,3.9c-0.5,0.7-0.9,1.5-1.3,2.2c-1.8,3.6-3.7,7.2-5.5,10.8c-0.3,0.6-0.5,1.3-0.8,2
		c-0.2,0.5-0.5,0.9-0.7,1.3C100.7,171.7,113,150.3,117.2,147 M103.2,191.2c-1.3,0.2-2.6-0.2-3.5-1.2c-0.6-0.6-1-1.5-1.1-2.3
		c-0.3-2.2-0.1-4.4,0.4-6.6c1.3-0.9,0.2-2.3,0.7-3.5c0.4,0.7,0.6,1.2,0.9,1.7c-0.5,1.3-1.2,2.6-1.5,3.9c-0.2,0.8,0.2,1.7,0.1,2.6
		c-0.2,2,0.8,3.3,2.4,4.3c0.6,0.4,1.2,0.6,1.9,0.2c0.5-0.3,1.1-0.1,1.7,0C104.5,190.7,103.9,191.1,103.2,191.2 M136.9,158
		c-1.9,3.2-3.9,6.3-5.9,9.3c-1.1,1.6-2.3,3.1-3.5,4.6c-2.1,2.7-4.2,5.3-6.3,8c-0.8,1.1-1.5,2.3-2.3,3.3c-1.8,2.1-4.1,3.7-6.6,4.8
		c-0.4,0.2-0.8,0.2-1.2,0.4c-3.1,1.3-5.9,0.7-8.6-1.1c-0.4-0.3-0.8-0.9-0.8-1.3c0-2.1,0-4.3,0.4-6.3c0.5-2.1,1.3-4.2,2.3-6.2
		c2-4,4.1-8,6.4-11.9c1.4-2.3,3.2-4.4,4.9-6.6c3.1-4.2,7.2-7.5,11-11.1c2.2-2.1,4.8-3.8,7.3-5.6c0.7-0.5,1.7-0.7,2.6-0.9
		c0.9-0.2,1.8-0.3,2.7-0.5c0.2,0,0.4,0,0.6,0.1c0.6,0,1.2,0,2.1,0c0,0,0.1,0.2,0.3,0.2c2,0.7,1.8,2.4,1.7,4c0,0.2,0,0.4-0.1,0.5
		c-1.5,2.9-1.5,6.2-3.1,9C139.6,153.1,138.3,155.6,136.9,158"/>
	<path id="XMLID_17_" class="st0" d="M185.1,154.7c0.8-1.5,1.2-3.1,1.8-4.7c-0.5-0.8-1.1-1.1-2-0.8c-1.5,0.5-1.5,1.8-1.6,3
		c-0.7,0.3-1.6,0.5-1.9,1c-0.8,1.5-3.3,1.6-3.2,3.8c0,0.1-0.2,0.2-0.3,0.2c-1.3,0.4-1.6,1.7-2.2,2.6c-1.2,1.7-2.2,3.4-3.8,4.8
		c-1.4,1.2-2.9,2.5-4,3.9c-2.1,2.5-3.9,5.2-6,7.8c-1,1.2-2.2,2.4-4.3,2.2c0.1-0.8,0.2-1.4,0.3-2.3c0.4,0.6,0.7,1,0.9,1.4
		c0.2-0.1,0.4-0.2,0.4-0.3c1-2.1,2-4.2,2.9-6.3c0.2-0.4,0-1,0.2-1.2c1.3-0.7,1.4-2.1,2.2-3.1c1.3-1.6,2.8-3,4-4.6
		c1.9-2.5,3.7-5.1,5.5-7.7c0.1-0.1,0.2-0.3,0.2-0.5c0.3-0.9-1.1-3.5-2-3.6c-0.4-0.1-0.9,0-1.2,0.2c-0.5,0.3-0.9,0.8-1.2,1.2
		c-0.6,0.8-1,1.7-1.5,2.6c-1.2,1.7-2.5,3.4-3.6,5.2c-1.1,1.7-2.1,3.5-3.3,5.2c-0.8,1.2-1.5,2.5-2.6,3.6c-1.5,1.7-2.9,3.5-4,5.5
		c-1.1,1.8-2.5,3.3-4.2,4.4c-1.4,0.8-2.6,2.4-4.6,2c-0.1,0.3-0.3,0.6-0.6,1.3c-0.4-1-1.3-1.3-0.5-2.3c0.4,0.2,0.8,0.3,1.3,0.6
		c0.2-0.8,0.4-1.5,0.7-2.3c0.4,0.3,0.7,0.6,1.2,1c0.3-0.8,0.6-1.4,0.9-2c0.5-1.3,0.9-2.7,1.4-4c0.7-1.7,1.8-3.3,2-5.2
		c0-0.2,0.2-0.4,0.3-0.6c1.3-1.9,2.4-3.9,3.9-5.6c2.8-3.2,5.4-6.5,7.5-10.3c-2.2-0.7-4-0.1-5.4,1.7c-1.3,1.7-2.5,3.3-3.7,4.9
		c-0.4,0.1-0.9,0.1-1.2,0.4c-0.9,0.8-1.8,1.7-2.6,2.6c-2.3,2.7-4.5,5.5-6.8,8.2c-1.8,2.1-3.5,4.2-5.3,6.3c-0.8,0.9-0.8,1.7-0.3,2.7
		c0.9,0.1,1.8,0.2,2.7,0.3c0.9-1.1,1.8-2.2,2.8-3.3c1.4-1.6,2.5-2.4,3.6-2.6c-1,1-1,2.7-2.8,2.6c-0.1,0-0.4,0.3-0.4,0.5
		c-0.6,1.9-1.5,3.7-1.2,5.8c0.2,1.8,2.4,3.3,4,2.6c1.8-0.8,3.5-1.8,5.3-2.8c0.7-0.4,1.3-0.9,2.3-1.6c-0.2,1.7,0.4,2.6,1.5,3.2
		c1.1,0.6,2.2,0.6,3.2-0.4c0.4-0.4,1.1-0.7,1.6-1c2.7-1.3,4.8-3.3,6.8-5.4c3.6-4.1,7.2-8.3,11.1-12.2c1-1,1.7-2.3,2.5-3.6
		c0.2-0.3,0-0.9-0.1-1.4C183.7,158,184.3,156.2,185.1,154.7 M175.7,164.3c-0.1-0.1-0.2-0.1-0.3-0.2c0-0.2-0.1-0.5,0-0.6
		c1.5-1,2.2-2.5,3.2-3.8c0.6-0.7,1-0.9,2.1-1C179.6,161,177.3,162.3,175.7,164.3"/>
	<path id="XMLID_14_" class="st0" d="M204.6,153.6c1.4-1.3,2.9-2.5,4.5-3.9c0.3,0.6,0.7,1.2,0.9,1.5c-0.8,1.3-1.4,2.2-1.9,3.1
		c-0.4,0.6-0.5,1.3-1,1.9c-1.9,2.4-2.5,5.2-3.3,8c-0.6,2.4-0.7,5-0.8,7.5c-0.1,1.9,0.3,2.9,1.9,3.7c0.9,0.4,1.9,0.8,2.5,1.1
		c1-0.2,1.7-0.3,2.4-0.4c0.7-0.1,1.4-0.1,2.1-0.2c0.7-0.1,1.2-0.4,1.2-1.2c-0.1-0.9-0.7-0.9-1.4-0.8c-1.6,0.2-2.9-0.3-4-1
		c0.2-0.8,0.4-1.4,0.5-2c0.1-0.7,0-1.5,0.2-2.3c0.3-2.1,0.7-4.3,1.1-6.4c0.6-3.3,1.3-6.5,3.1-9.4c1-1.6,1.9-3.2,2.7-4.9
		c0.6-1.2,1-2.5,1.4-3.8c0.2-0.5,0.1-1.2-0.6-1.5c-0.6-0.3-1.2-0.2-1.6,0.2c-0.5,0.4-0.9,0.9-1.4,1.5c-1.3-1.1-2.6-0.6-3.8,0.1
		c-1.2,0.7-2.4,1.5-3.5,2.3c-0.9,0.6-1.7,1.4-2.7,2.2c0-0.6,0.1-1,0.1-1.4c0-1.3-0.7-2.2-1.9-2.7c-1.1-0.5-1.8,0-2.7,0.7
		c-0.9,0.8-2,1.4-3,2c-1,0.7-2.1,1.3-3.1,2c-0.3,0.2-0.8,0.6-0.8,0.8c0,0.9-0.7,1.3-1.3,1.8c-1.1,1-1.4,2.4-2,4
		c1.9-0.5,3.4-1.1,4.6-2.2c1.1-1,2.2-2,3.4-3c0.2-0.2,0.7-0.2,1-0.2c-0.6,1.2-1.1,2.3-1.6,3.3c-0.6,1.3-1.2,2.5-2,3.7
		c-1.5,2.6-3.3,5-4.7,7.6c-0.8,1.4-1.8,2.5-2.8,3.6c-0.9,1-1.8,2.2-2.6,3.3c-0.5,0.7-0.3,1.3,0.2,1.9c0.6,0.6,1.2,0.7,1.9,0.2
		c0.4-0.3,0.7-0.4,1.2-0.2c1.1,0.5,1.7,0.2,2.3-0.9c0.3-0.5,0.4-1.1,0.7-1.6c0.9-1.5,1.9-2.9,2.8-4.4c1.5-2.4,2.9-4.9,5-7
		C200.1,158.2,202.3,155.8,204.6,153.6 M208.6,147.5c-0.2,1.3-1.2,1.5-1.7,1.9c-0.7,0.5-1.3,1.1-1.9,1.6
		C205.5,149.3,207.1,148.7,208.6,147.5"/>
	<path id="XMLID_11_" class="st0" d="M418.8,54.6c-1.3,0.2-2.6,0.2-3.8,0.7c-0.9,0.3-1.7,1.2-2.5,1.8c-1.5,1.1-2.9,2.3-4.5,3.1
		c-3.1,1.5-5.9,3.3-8.7,5.3c-2.2,1.6-4.3,3.2-6.5,4.8c-4.4,3.1-9,6-13.3,9.2c-5,3.6-9.9,7.5-14.8,11.3c-2.7,2.1-5.2,4.3-7.8,6.5
		c-1.9,1.5-3.7,3-5.6,4.5c-1.3,1-2.8,1.9-4.1,2.9c-1.4,1.1-2.8,2.2-4.3,3.3c-2.2,1.7-4.5,3.4-6.7,5.1c-0.4,0.3-0.8,0.6-1,1
		c-0.2,0.4-0.2,0.9,0,1.3c0.1,0.2,0.7,0.3,1.1,0.2c0.7-0.2,1.4-0.6,2-1c1-0.6,1.9-1.4,2.8-2.1c0.7,0.8,0.2,1.2-0.1,1.7
		c-0.3,0.5-0.6,1.1,0,1.6c0.6,0.5,1.2,0.3,1.7-0.2c3.1-3,6.1-6.1,9.3-9c2.2-2.1,4.6-4,6.9-6c3.2-2.7,6.4-5.4,9.7-8.1
		c1.2-1,2.6-1.8,3.8-2.8c2.7-2.1,5.4-4.3,8.1-6.4c5.1-3.9,10.3-7.7,15.5-11.5c1.8-1.4,3.7-2.6,5.9-3.5c1.1-0.5,2-1.4,3-2.1
		c0.1-1.7,1.7-1.9,2.6-2.7c0.5-0.4,1.1-0.7,1.6-1.1c3-2.2,5.8-4.5,9.4-5.6c0.2-0.1,0.5-0.1,0.6-0.3c0.2-0.3,0.4-0.6,0.4-0.9
		C419.4,55,419,54.6,418.8,54.6 M361.3,95.6c-0.1-0.1-0.2-0.2-0.3-0.3c0.8-0.6,1.7-1.2,2.5-1.8c0.1,0.1,0.2,0.2,0.2,0.3
		C362.9,94.4,362.1,95,361.3,95.6"/>
	<path id="XMLID_8_" class="st0" d="M274.7,171.6c-0.1,0-0.2,0-0.3,0c-1.4,0.5-3,0.5-4.1,1.7c-0.7,0.8-1.6,1.3-2.4,2
		c-1.9,1.7-4.3,2.8-6.5,4.2c-3.4,2.1-6.3,4.8-9.5,7.3c-6.7,5.2-13.8,9.9-20.1,15.6c-2.8,2.6-6.1,4.4-8.8,7.2
		c-2.5,2.5-5.3,4.8-7.9,7.2c-1.7,1.6-3.5,3.1-5.3,4.6c-1.4,1.1-2.9,2.1-4.3,3.3c-2.1,1.7-4.1,3.4-6.1,5.2c-1.6,1.4-3.2,2.7-4.8,4.1
		c-0.7,0.6-0.9,1.2-0.3,2.1c2.5-0.1,3.8-2.2,5.7-3.4c0.7,0.9,0,1.4-0.2,1.9c-0.2,0.5-0.3,1.1,0.3,1.4c0.4,0.1,1-0.1,1.5-0.2
		c0.1,0,0.1-0.2,0.2-0.3c3.2-3.4,6.3-6.8,9.5-10.1c1.9-2,4-3.8,6-5.6c2.7-2.5,5.3-5,8-7.4c3.9-3.4,7.9-6.6,11.9-9.9
		c5.5-4.5,10.9-9,16.5-13.4c1.4-1.1,2.9-2.2,4.6-3.1c1.6-0.8,3-1.7,3.6-3.4c0.1-0.2,0.4-0.4,0.6-0.6c2.7-2.1,5.5-4.2,8.2-6.3
		c1.4-1,2.8-1.9,4.5-2.4c0.3-0.1,0.8-0.6,0.8-0.9C275.8,171.7,275.2,171.6,274.7,171.6 M219.3,214.7c0.8-0.6,1.5-1.3,2.3-1.9
		C221.2,213.9,220.5,214.6,219.3,214.7"/>
	<path id="XMLID_7_" class="st0" d="M79.5,137.4c-0.2-1.4-0.3-1.5-1.2-1.2c-1.6,0.5-3.2,1-4.9,1.4c-0.5,0.2-1.1,0.5-1.5-0.2
		c-0.9,0.5-1.5,1.1-2.3,1.4c-3.7,1.3-7.4,2.4-11.1,3.7c-4.6,1.5-9.3,2.7-13.6,4.9c-2.1,1.1-4.4,2-6.6,2.9c-2.2,0.9-4.3,1.8-6.5,2.5
		c-0.8,0.3-1.5,0.4-1.1,1.5c0,0.1-0.1,0.4-0.3,0.5c-0.6,0.3-0.7,0.7-0.3,1.3c0.4,0.5,0.8,0.3,1.3,0.1c0.7-0.3,1.4-0.6,2.1-0.9
		c-0.2,0.5-0.6,0.7-0.8,0.9c-0.2,0.2-0.3,0.7-0.2,0.9c0.1,0.2,0.6,0.4,0.9,0.3c0.5-0.1,1-0.4,1.4-0.7c2.5-2.2,5.5-3.7,8.5-5.1
		c3.4-1.6,6.8-3.2,10.5-3.8c1.4-0.2,2.9-0.5,4.3-0.9c0.5-0.1,0.9-0.2,1.3-0.5c0.2-0.1,0.3-0.6,0.3-0.9c0-0.1-0.5-0.3-0.7-0.3
		c-0.4,0-0.8,0.2-1.2,0.4c-0.6,0.2-1.3,0.5-1.9,0.7c1.6-1.5,3.6-2.2,5.7-2.5c3.6-0.6,7-1.6,10.4-2.8c1.3-0.5,2.6-1.1,3.9-1.4
		c1.7-0.4,3.5-0.5,5.3-0.8c0.3,0,0.6-0.1,0.8-0.3c0.3-0.2,0.5-0.6,0.7-0.9c-0.3-0.2-0.6-0.5-1-0.5C81,137.2,80.3,137.3,79.5,137.4"
		/>
	<path id="XMLID_6_" class="st0" d="M332.6,79c0.8,0.5,1.7,1,2.8,0.4c3.5-1.7,7.2-3.1,10.9-4.2c1.9-0.6,3.7-1.4,5.6-2
		c3.8-1.1,7.6-2.2,11.5-3.2c3.1-0.9,6.2-1.8,9.3-2.5c3.8-0.8,7.6-1.4,11.4-2c0.7-0.1,1.3-0.1,1.9-0.7c-0.4-0.2-0.7-0.3-0.9-0.4
		c1.3-0.6,3-0.2,3.8-1.8c-0.7-0.8-1.5-0.5-2.3-0.3c-2.6,0.5-5.2,1-7.8,1.4c-0.3,0.1-0.8,0.1-1-0.1c-0.7-0.8-1.2-0.3-1.9,0
		c-0.9,0.4-1.9,1-2.9,1.2c-6.3,1.3-12.3,3.6-18.5,5.4c-3.9,1.1-7.7,2.3-11.6,3.5c-3.4,1.1-6.8,2.2-10.2,3.3
		C331.8,77.3,331.7,78.5,332.6,79"/>
	<path id="XMLID_5_" class="st0" d="M106,79.2c-1.8,0.2-3.5,0.4-5.4,0.6C101.8,81,104.9,80.6,106,79.2"/>
	<path id="XMLID_4_" class="st0" d="M108.2,79.3c0.7-0.3,1.2-0.5,1.7-0.7l-0.1-0.4C108.6,78.2,108.6,78.2,108.2,79.3"/>
	<path id="XMLID_3_" class="st0" d="M79.7,139.6c0,0.1,0,0.2,0,0.2h1.1c0-0.2,0-0.3,0-0.5C80.4,139.5,80.1,139.5,79.7,139.6"/>
</g>
</svg>
