<svg xmlns="http://www.w3.org/2000/svg" width="217.1" height="68" viewBox="0 0 217.1 68">
  <g id="Group_166" data-name="Group 166" transform="translate(-165 -2402)">
    <g id="Group_105" data-name="Group 105" transform="translate(165 2402)">
      <path id="Path_29" data-name="Path 29" d="M909.013,1055.228a10.6,10.6,0,1,1-10.6-10.6,10.61,10.61,0,0,1,10.6,10.6" transform="translate(-878.584 -1044.627)" fill="#d11242"/>
      <path id="Path_30" data-name="Path 30" d="M917.5,1052.229h-25.1a7.282,7.282,0,0,0-7.281,7.287v34.62h39.666v-34.62a7.29,7.29,0,0,0-7.288-7.287" transform="translate(-885.126 -1026.136)" fill="#d11242"/>
      <path id="Path_31" data-name="Path 31" d="M922.069,1055.228a10.594,10.594,0,1,1-10.587-10.6,10.6,10.6,0,0,1,10.587,10.6" transform="translate(-846.795 -1044.627)" fill="#5d5c60"/>
      <path id="Path_32" data-name="Path 32" d="M930.573,1052.229h-25.1a7.283,7.283,0,0,0-7.284,7.287v34.62h39.662v-34.62a7.286,7.286,0,0,0-7.281-7.287" transform="translate(-853.342 -1026.136)" fill="#5d5c60"/>
    </g>
    <g id="Group_106" data-name="Group 106" transform="translate(253.717 2402)">
      <path id="Path_29-2" data-name="Path 29" d="M909.013,1055.228a10.6,10.6,0,1,1-10.6-10.6,10.61,10.61,0,0,1,10.6,10.6" transform="translate(-878.584 -1044.627)" fill="#5d5c60"/>
      <path id="Path_30-2" data-name="Path 30" d="M917.5,1052.229h-25.1a7.282,7.282,0,0,0-7.281,7.287v34.62h39.666v-34.62a7.29,7.29,0,0,0-7.288-7.287" transform="translate(-885.126 -1026.136)" fill="#5d5c60"/>
      <path id="Path_31-2" data-name="Path 31" d="M922.069,1055.228a10.594,10.594,0,1,1-10.587-10.6,10.6,10.6,0,0,1,10.587,10.6" transform="translate(-846.795 -1044.627)" fill="#5d5c60"/>
      <path id="Path_32-2" data-name="Path 32" d="M930.573,1052.229h-25.1a7.283,7.283,0,0,0-7.284,7.287v34.62h39.662v-34.62a7.286,7.286,0,0,0-7.281-7.287" transform="translate(-853.342 -1026.136)" fill="#5d5c60"/>
    </g>
    <g id="Group_107" data-name="Group 107" transform="translate(342.434 2402)">
      <path id="Path_29-3" data-name="Path 29" d="M909.013,1055.228a10.6,10.6,0,1,1-10.6-10.6,10.61,10.61,0,0,1,10.6,10.6" transform="translate(-878.584 -1044.627)" fill="#5d5c60"/>
      <path id="Path_30-3" data-name="Path 30" d="M917.5,1052.229h-25.1a7.282,7.282,0,0,0-7.281,7.287v34.62h39.666v-34.62a7.29,7.29,0,0,0-7.288-7.287" transform="translate(-885.126 -1026.136)" fill="#5d5c60"/>
    </g>
  </g>
</svg>
