<svg xmlns="http://www.w3.org/2000/svg" width="199.527" height="114.887" viewBox="0 0 199.527 114.887">
  <path id="Path_57" data-name="Path 57" d="M238.41,1120.938h-.468V1055.21l-3.791-1.461v67.19h-.494c-2.444.962-5.772,4.142-5.808,7.613a110.444,110.444,0,0,1-37.939,6.333c-23.52,0-44.02-6.348-55.188-15.778,11.168-9.44,31.668-15.789,55.188-15.789,15.345,0,29.4,2.722,40.434,7.213v-26.175c-11.034-4.5-25.089-7.218-40.434-7.218-26.112,0-48.536,7.814-58.563,19.014v26.169c10.026,11.194,32.45,17.634,58.563,17.634a110.514,110.514,0,0,0,37.929-6.328V1151.7h16.508v-23.087c0-3.5-3.472-6.7-5.937-7.676m49.807-46.5-46.474-17.779v28.309a51.178,51.178,0,0,1,7.917,5.9l38.315-13.128c2.274-.767,2.017-2.665.242-3.3m-46.474,42.091a37.365,37.365,0,0,1,6.734,5.792v-26.169a37.169,37.169,0,0,0-6.734-5.8ZM189.91,1072.7c-25.871,0-47.081,6.337-59.751,18.164l-38.33-13.113c-2.361-.782-2.243-2.3-.118-3.333l98.2-37.6,40.434,15.479v27.038c-11.292-4.321-25-6.63-40.434-6.63" transform="translate(-90.088 -1036.814)" fill="#d11242"/>
</svg>
