<svg id="Layer_1" data-name="Layer 1" xmlns="http://www.w3.org/2000/svg" viewBox="0 0 50 50"><defs><style>.cls-1{fill:#879cba;}.cls-2{fill:#fff;}</style></defs><title>facebook</title><circle class="cls-1" cx="25" cy="25" r="25"/><path class="cls-2" d="M31.79,11.32H28.27c-4,0-6.51,2.62-6.51,6.68v3.08H18.22a.55.55,0,0,0-.55.55v4.46a.55.55,0,0,0,.55.55h3.54V37.91a.55.55,0,0,0,.55.55h4.62a.55.55,0,0,0,.55-.55V26.65h4.14a.55.55,0,0,0,.55-.55V21.63a.56.56,0,0,0-.16-.39.55.55,0,0,0-.39-.16H27.48V18.47c0-1.25.3-1.89,1.93-1.89h2.37a.55.55,0,0,0,.55-.55V11.88a.55.55,0,0,0-.55-.55Zm0,0"/></svg>