<svg id="Layer_1" data-name="Layer 1" xmlns="http://www.w3.org/2000/svg" viewBox="0 0 50 50"><defs><style>.cls-1{fill:#879cba;}.cls-2{fill:#fff;}</style></defs><title>instagram</title><circle class="cls-1" cx="25" cy="25" r="25"/><path class="cls-2" d="M30.43,11H19.57a8,8,0,0,0-8,8V29.87a8,8,0,0,0,8,8H30.43a8,8,0,0,0,8-8V19A8,8,0,0,0,30.43,11Zm5.3,18.87a5.3,5.3,0,0,1-5.3,5.3H19.57a5.3,5.3,0,0,1-5.3-5.3V19a5.3,5.3,0,0,1,5.3-5.3H30.43a5.3,5.3,0,0,1,5.3,5.3V29.87Z"/><path class="cls-2" d="M25,17.49a7,7,0,1,0,7,7A7,7,0,0,0,25,17.49Zm0,11.2a4.25,4.25,0,1,1,4.25-4.25A4.25,4.25,0,0,1,25,28.68Z"/><circle class="cls-2" cx="31.96" cy="17.54" r="1.67"/></svg>