<svg id="Layer_1" data-name="Layer 1" xmlns="http://www.w3.org/2000/svg" viewBox="0 0 50 50"><defs><style>.cls-1{fill:#879cba;}.cls-2{fill:#f2f2f2;}</style></defs><title>linkedin</title><circle class="cls-1" cx="25" cy="25" r="25"/><path class="cls-2" d="M37.21,27.47v8.46H32.3V28c0-2-.71-3.33-2.48-3.33a2.68,2.68,0,0,0-2.52,1.79,3.36,3.36,0,0,0-.16,1.2v8.24h-4.9s.07-13.37,0-14.75h4.9v2.09l0,0h0v0a4.87,4.87,0,0,1,4.42-2.44c3.23,0,5.65,2.11,5.65,6.64Zm-20.1-13.4a2.56,2.56,0,1,0-.06,5.1h0a2.56,2.56,0,1,0,0-5.1ZM14.62,35.93h4.9V21.18h-4.9Zm0,0"/></svg>