<svg xmlns="http://www.w3.org/2000/svg" width="393.53" height="75.5" viewBox="0 0 393.53 75.5">
  <g id="Group_134" data-name="Group 134" transform="translate(0.001)">
    <g id="Group_130" data-name="Group 130" transform="translate(155.651 8.214)">
      <path id="Path_46" data-name="Path 46" d="M271.887,426.51v2h-4.3v2.366h4.034v2h-4.034v4.788h-2.1V426.51Zm58.891,0h-2.29l-3,7.084-3-7.084H320.2l4.9,11.151h.766Zm-15.511,0v6.736l-5.855-6.736h-1.044v11.151h2.1v-6.739l5.858,6.739h1.042V426.51Zm-31.687,11.151V426.51h3.538c1.957,0,6.031.567,6.031,5.575s-4.075,5.575-6.031,5.575Zm7.449-5.575c0-2.7-1.537-3.577-3.963-3.577h-1.382v7.154h1.382C289.39,435.662,291.03,434.788,291.03,432.085Zm49.546,5.575v-2h-4.76v-2.789h4.5v-2h-4.5v-2.366h4.76v-2h-6.864v11.151Zm-36.477,0v-2h-4.761v-2.789h4.5v-2h-4.5v-2.366H304.1v-2h-6.864v11.151Zm46.259-4.171a3.4,3.4,0,0,0,2.2-3.292c0-2.849-2.453-3.687-4.037-3.687H344.8v11.151h2.1v-9.153h1.578a1.706,1.706,0,0,1,1.939,1.689,1.748,1.748,0,0,1-1.939,1.688h-1.365v.14l3.435,5.635H352.9Zm-89.047-1.377a5.839,5.839,0,1,1-5.839-5.84A5.718,5.718,0,0,1,261.312,432.112Zm-2.165,0a3.677,3.677,0,1,0-3.674,3.823A3.7,3.7,0,0,0,259.148,432.112Z" transform="translate(-249.634 -370.667)" fill="#00366a"/>
      <g id="Group_129" data-name="Group 129" transform="translate(0.012)">
        <path id="Path_47" data-name="Path 47" d="M307.575,409.247v-.3a1.8,1.8,0,0,0,1.56-1.445V394.256a1.79,1.79,0,0,0-1.56-1.423v-.3H319.01l.532,3.04h-.3a3.359,3.359,0,0,0-3.248-1.89h-3.719a.273.273,0,0,0-.191.3V399.8h3.159a2.476,2.476,0,0,0,2.7-1.842h.249v4.793h-.249a2.487,2.487,0,0,0-2.7-1.82h-3.159v6.805a.275.275,0,0,0,.178.3h3.247c2.763,0,3.584-1.376,4.059-2.371h.289l-.586,3.582Zm94.045,0v-.3a1.789,1.789,0,0,0,1.563-1.445V394.256c-.042-.749-.8-1.265-1.563-1.423v-.3H413.06l.533,3.04h-.3a3.362,3.362,0,0,0-3.249-1.89h-3.72a.274.274,0,0,0-.19.3V399.8h3.162a2.464,2.464,0,0,0,2.69-1.842h.255v4.793h-.255a2.474,2.474,0,0,0-2.69-1.82h-3.162v6.805a.273.273,0,0,0,.173.3h3.249c2.765,0,3.585-1.376,4.062-2.371h.287l-.586,3.582ZM379.563,407.5a1.784,1.784,0,0,0,1.558,1.445v.3h-6.066v-.3a1.793,1.793,0,0,0,1.565-1.445V394.256a1.785,1.785,0,0,0-1.565-1.423v-.3h6.066v.3a1.776,1.776,0,0,0-1.558,1.423Zm73.516,0a1.785,1.785,0,0,0,1.562,1.445v.3H448.57v-.3a1.8,1.8,0,0,0,1.567-1.445V394.256a1.789,1.789,0,0,0-1.567-1.423v-.3h6.071v.3a1.778,1.778,0,0,0-1.562,1.423Zm-186.431,1.744v-.2a1.565,1.565,0,0,0,1.452-1.438v-13.59c-.012-.15-.107-.392-.35-.392h-2.561a3.781,3.781,0,0,0-3.378,2.335h-.2l.644-3.431H276.94l.64,3.431h-.193a3.77,3.77,0,0,0-3.367-2.335H271.43c-.241,0-.318.242-.328.392v13.59a1.563,1.563,0,0,0,1.445,1.438v.2Zm194.39,0v-.2a1.564,1.564,0,0,0,1.449-1.438v-13.59c-.01-.15-.107-.392-.349-.392h-2.568a3.786,3.786,0,0,0-3.375,2.335H456l.643-3.431h14.685l.639,3.431h-.191a3.781,3.781,0,0,0-3.372-2.335h-2.588c-.24,0-.32.242-.33.392v13.59a1.565,1.565,0,0,0,1.449,1.438v.2Zm-166.155,0v-.2a1.564,1.564,0,0,0,1.45-1.438v-13.59c-.01-.15-.107-.392-.35-.392h-2.563a3.79,3.79,0,0,0-3.381,2.335h-.192l.642-3.431h14.684l.642,3.431h-.192a3.783,3.783,0,0,0-3.372-2.335h-2.586c-.244,0-.321.242-.33.392v13.59a1.565,1.565,0,0,0,1.449,1.438v.2Zm-40.149.46a35.371,35.371,0,0,1-4.715-.757l-.368-4.04h.328a5.285,5.285,0,0,0,5.133,3.672,3.505,3.505,0,0,0,3.737-3.489c0-1.688-.687-2.7-2.855-4.248l-1.2-.881c-2.862-2.105-4.39-3.813-4.39-6.4,0-2.943,2.514-4.924,6.443-4.924a36.9,36.9,0,0,1,3.913.376l.4,3.747h-.337a4.363,4.363,0,0,0-4.326-3.045c-2.089,0-3.315,1.293-3.315,2.909,0,1.635.861,2.523,3.027,4.079l.733.5c3.13,2.282,5.105,4.1,5.105,6.62C262.044,407.627,258.614,409.707,254.733,409.707Zm184.226,0a29.449,29.449,0,0,1-3.927-.631l-.308-3.364H435a4.281,4.281,0,0,0,4.274,2.89c2.129,0,3.116-1.35,3.116-2.541,0-1.258-.391-2.158-2.371-3.576l-1.1-.806c-2.613-1.919-3.573-3.156-3.573-5.313,0-2.451,2.1-4.216,5.373-4.216a29.394,29.394,0,0,1,3.259.314l.334,3.123h-.279a3.541,3.541,0,0,0-3.6-2.421c-1.745,0-2.786.96-2.765,2.306.02,1.031.575,1.81,2.549,3.233l.672.453c2.862,2.086,4.167,3.277,4.167,5.546C445.052,407.869,442.195,409.707,438.959,409.707Zm-67.227-17.151v.3a1.826,1.826,0,0,0-1.588,1.445v15.755h-.866l-12.639-14.479V407.5a1.79,1.79,0,0,0,1.563,1.445v.3h-4.5v-.3a1.8,1.8,0,0,0,1.565-1.445V394.256a1.788,1.788,0,0,0-1.565-1.423v-.3h4.672l10.417,11.894V394.3a1.792,1.792,0,0,0-1.562-1.445v-.3ZM397.6,394.5c.446-1.032-.061-1.513-.832-1.677v-.287h3.913v.3a2.185,2.185,0,0,0-1.613,1.424l-7.155,15.8h-.418l-7.269-15.8a2.118,2.118,0,0,0-1.566-1.424v-.3h5.923v.3c-.771.158-1.371.6-.89,1.73l4.906,11Zm-46.338-5.4v.358a2.1,2.1,0,0,0-1.837,1.709v9.965c0,5.819-3.139,8.571-9.1,8.571s-9.107-2.752-9.107-8.571v-9.965a2.1,2.1,0,0,0-1.831-1.709V389.1h7.039v.358c-.921.193-1.828.812-1.884,1.709v10.379c0,4.981,2.091,6.986,5.783,6.986s5.775-2.005,5.775-6.986V391.164c-.055-.9-.963-1.516-1.884-1.709V389.1Zm-60.384,18.429-7.174-15.8h-.4l-6.543,15.8a2.064,2.064,0,0,1-1.5,1.423v.3h3.718v-.286c-.733-.163-1.22-.65-.821-1.678l1.393-3.379h6.561l1.46,3.315c.474,1.121-.09,1.569-.819,1.73v.3h5.633v-.3A2.107,2.107,0,0,1,290.877,407.526Zm-5.311-4.863h-5.5l2.66-6.448Zm201.951-10.126v.3a2.517,2.517,0,0,0-1.826,1.421l-4.187,6.789v6.467a1.79,1.79,0,0,0,1.56,1.447v.291h-6.07v-.291a1.815,1.815,0,0,0,1.571-1.447v-5.644l-4.772-7.612A2.739,2.739,0,0,0,472,392.832v-.3h6.006v.3c-.763.158-1.592.529-.89,1.73l3.538,5.869,3.761-5.935c.623-1.136-.064-1.514-.839-1.679v-.281Zm-57.381,13.534c1,1.3,1.955,2.594,3.661,2.827v.349h-2.628a4.284,4.284,0,0,1-3.372-1.54l-3.659-5.469A2.424,2.424,0,0,0,422.367,401v-.332c1.4,0,5.159-.2,5.159-3.468,0-3.154-2.473-3.624-3.851-3.624a12.565,12.565,0,0,0-1.839.1c-.161.043-.219.134-.219.317V407.5a1.778,1.778,0,0,0,1.551,1.445v.3H417.1v-.3a1.788,1.788,0,0,0,1.564-1.445V394.256a1.78,1.78,0,0,0-1.564-1.423v-.3h7.164c2.862,0,6.317.893,6.317,4.335,0,3.553-3.847,4.1-3.847,4.1Z" transform="translate(-249.649 -364.117)" fill="#00366a"/>
        <path id="Path_48" data-name="Path 48" d="M279.012,379.007v-.3a1.809,1.809,0,0,0,1.565-1.45V364.015a1.8,1.8,0,0,0-1.565-1.426v-.3h11.437l.528,3.04h-.3a3.366,3.366,0,0,0-3.253-1.893h-3.721a.284.284,0,0,0-.19.309v5.812h3.162a2.472,2.472,0,0,0,2.7-1.844h.249v4.794h-.249a2.484,2.484,0,0,0-2.7-1.819h-3.162V377.5a.278.278,0,0,0,.179.3h3.248c2.764,0,3.583-1.376,4.059-2.369h.289l-.586,3.581Zm130.659-1.748a1.791,1.791,0,0,0,1.559,1.45v.3h-6.067v-.3a1.793,1.793,0,0,0,1.561-1.45V364.015a1.783,1.783,0,0,0-1.561-1.426v-.3h6.067v.3a1.781,1.781,0,0,0-1.559,1.426Zm-111.658,1.748v-.2a1.563,1.563,0,0,0,1.455-1.438v-13.59c-.012-.15-.108-.392-.35-.392h-2.561a3.8,3.8,0,0,0-3.382,2.337h-.193l.645-3.434H308.31l.635,3.434h-.188a3.775,3.775,0,0,0-3.369-2.337H302.8c-.247,0-.318.242-.33.392v13.59a1.565,1.565,0,0,0,1.45,1.438v.2Zm120.226,0v-.2a1.569,1.569,0,0,0,1.455-1.44v-13.59c-.012-.15-.106-.392-.351-.392h-2.559a3.8,3.8,0,0,0-3.385,2.337h-.19l.645-3.434h14.679l.642,3.434h-.193a3.775,3.775,0,0,0-3.369-2.337h-2.589c-.245,0-.32.242-.333.392v13.59a1.568,1.568,0,0,0,1.449,1.44v.2Zm-79.513-17.1c-6.038,0-9.727,3.906-9.727,8.75s3.554,8.807,9.727,8.807,9.727-3.958,9.727-8.807S344.767,361.91,338.725,361.91Zm0,16.4c-4.007,0-6.351-3.5-6.351-7.653,0-4.127,2.434-7.649,6.351-7.649s6.352,3.522,6.352,7.649C345.077,374.809,342.729,378.312,338.725,378.312Zm39.113-16.4c-6.035,0-9.727,3.906-9.727,8.75s3.556,8.807,9.727,8.807,9.727-3.958,9.727-8.807S383.878,361.91,377.838,361.91Zm0,16.4c-4.009,0-6.352-3.5-6.352-7.653,0-4.127,2.432-7.649,6.352-7.649s6.349,3.522,6.349,7.649C384.188,374.809,381.844,378.312,377.838,378.312Zm14.143-14.385a1.559,1.559,0,0,0-1.449-1.438v-.2h5.9l0,.2a1.561,1.561,0,0,0-1.449,1.438v13.588c.01.154.091.394.33.394h3.733a4.461,4.461,0,0,0,4.177-3.046h.257l-.752,4.145H390.42v-.3a1.8,1.8,0,0,0,1.562-1.45ZM255.4,358.951l7.245,15.56,7.269-15.56h5.162v.354a2.148,2.148,0,0,0-1.871,1.709v15.9a2.155,2.155,0,0,0,1.871,1.741v.355H268.04v-.355a2.157,2.157,0,0,0,1.875-1.741V362.632l-8.152,17.344h-.372L253.175,362.6v14.314a2.155,2.155,0,0,0,1.873,1.741v.355h-5.4v-.355a2.157,2.157,0,0,0,1.877-1.741v-15.9a2.151,2.151,0,0,0-1.877-1.709v-.354Zm209.392,3.363v.3a1.815,1.815,0,0,0-1.581,1.45v15.753h-.865l-12.64-14.483V377.26a1.787,1.787,0,0,0,1.562,1.45v.3h-4.5v-.3a1.8,1.8,0,0,0,1.564-1.45V364.015a1.789,1.789,0,0,0-1.564-1.426v-.295h4.668l10.42,11.9V364.062a1.781,1.781,0,0,0-1.558-1.45v-.3Zm-21.245,14.968-7.172-15.8h-.4l-6.54,15.8a2.06,2.06,0,0,1-1.5,1.423v.3h3.717v-.289c-.736-.163-1.226-.645-.823-1.676l1.39-3.379h6.565l1.458,3.312c.475,1.123-.087,1.572-.816,1.73v.3h5.633v-.3A2.094,2.094,0,0,1,443.548,377.283Zm-5.309-4.862h-5.5l2.66-6.449Zm-80.9-1.354c1.4,0,5.161-.23,5.161-3.82a3.674,3.674,0,0,0-3.849-3.909,13.2,13.2,0,0,0-1.844.088c-.164.046-.218.137-.218.321V377.26a1.784,1.784,0,0,0,1.55,1.45v.3h-6.067v-.3a1.8,1.8,0,0,0,1.566-1.45V364.015a1.789,1.789,0,0,0-1.566-1.426v-.3h7.167c2.857,0,6.315,1.219,6.315,4.661,0,5.594-6.977,5.045-8.216,4.444Zm-33.134,4.767c.992,1.3,1.953,2.591,3.657,2.823v.35h-2.629a4.28,4.28,0,0,1-3.369-1.543L318.206,372a2.423,2.423,0,0,0-1.771-1.244v-.327c1.4,0,5.157-.2,5.157-3.471,0-3.153-2.467-3.624-3.844-3.624a13.1,13.1,0,0,0-1.847.094c-.165.046-.216.137-.216.321V377.26a1.782,1.782,0,0,0,1.551,1.45v.3H311.17v-.3a1.791,1.791,0,0,0,1.561-1.45V364.015a1.782,1.782,0,0,0-1.561-1.426v-.3h7.162c2.863,0,6.32.892,6.32,4.334,0,3.553-3.847,4.1-3.847,4.1Z" transform="translate(-249.649 -358.951)" fill="#c30032"/>
      </g>
    </g>
    <g id="Group_133" data-name="Group 133">
      <g id="Group_132" data-name="Group 132">
        <path id="Path_49" data-name="Path 49" d="M170.293,368.07l-20.945-18.694a1.2,1.2,0,0,0-2.029,1.158l.289,1.053c.033.087-.045.1-.086.086a25.847,25.847,0,0,0-8.809-1.591c-4.791-.021-8.935,1.244-12.94,2.47-3.367.991-6.546,1.967-9.637,1.953-3.512-.015-6.542-1.327-9.614-4.006-1.1-.959-2.437-.391-2.144,1.076a13.223,13.223,0,0,0,2.4,5.4c.057.07.022.126-.044.134a44.821,44.821,0,0,1-5.546.354,27.36,27.36,0,0,1-9.525-1.545c-1.354-.52-2.512.674-1.4,1.838a21.749,21.749,0,0,0,5.356,4.47.09.09,0,0,1-.017.168,34.235,34.235,0,0,1-7.275.692,88.166,88.166,0,0,1-8.9-.746,1.184,1.184,0,0,0-.986,2.039,19.725,19.725,0,0,0,7.213,3.811.081.081,0,0,1,.023.153C72.294,373.883,64.165,379.28,62.59,380.43c-2.563,1.8-1.411,4.094,1.847,3.421,1.683-.344,13.918-2.918,24.184-3.876.132-.013.154.04.035.081-7.628,2.47-13.805,5.335-16.6,7.573a1.155,1.155,0,0,0,1.148,2,124.344,124.344,0,0,1,18.151-3.919c.113-.016.14.047.038.1a42.528,42.528,0,0,0-10.951,7.373c-1.053,1.028-.183,2.7,1.432,1.864a80.756,80.756,0,0,1,18.715-6.7c.085-.02.142.05.089.107a22.21,22.21,0,0,0-3.395,4.207c-.939,1.511-.423,2.629,2.76,2.04,19.544-3.582,39.135,1.868,52.425,15.907,1.278,1.351,2.492.752,2.385-.54a37.689,37.689,0,0,1-.3-5.019c.263-7.726,2.048-12.576,11.982-14.572,10.394-2.043,27.559-2.739,34.3-3.06l4.452-3.016c-9.354-1.66-28.68-3.625-40.5-3.48-1.222.013-1.348-.245-.092-.4,5.816-.73,25.78-2.7,44.269,2.937l5.334-1.762C203.964,374.611,189.3,370.715,170.293,368.07Z" transform="translate(-61.189 -349.007)" fill="#fff"/>
        <g id="Group_131" data-name="Group 131" transform="translate(1.965 1.174)">
          <path id="Path_50" data-name="Path 50" d="M100.213,393.8c14.035-6.01,47.812-16.781,102.582-8.468l-1.925,1.319s-23.538.985-34.1,3.065c-7.6,1.517-12.86,4.587-12.9,15.812.015,1.571.133,3.228.323,4.958.016.134-.139.16-.194.022-1.2-3.087-5.786-12.094,3.014-20.656,1.113-1.045.9-3.69-2.581-3.818-12.086-.434-30.205,2.029-38.906,4.727-.4.121-.358.274.026.227,16.244-1.92,27.192-1.227,34.421.723.2.054.194.208-.076.189-1.323-.093-12.456-.75-19.532,1.617-.33.112-.293.322.033.308,11.72-.5,17.034,1.107,18.461,1.7.184.079.163.186-.077.178a29.5,29.5,0,0,0-9.3,1.261c-.273.086-.245.3.031.313,6.234.486,8.925,1.752,9.794,2.261.23.133.2.225-.01.249a15.857,15.857,0,0,0-4.016.923c-.2.085-.139.285.052.3,4.707.4,6.245,5.788,6.562,7.138.046.195-.078.154-.154.076-5.676-5.82-24.052-19.291-51.483-14.293C100.041,393.977,100.008,393.885,100.213,393.8Zm47.455-24.021c-2.176-.184-3.575.768-3.7,2.317-.127,1.513,1.562,2.961,3.725,3.195,1.907.2,3.517-.566,4.019-1.773l-1.878-.008s-.05.008-.036-.059c.264-1.261-.783-2.3-2.55-2.707-.088-.02-.015-.055-.015-.055l3.109.013A5.525,5.525,0,0,0,147.669,369.776Zm4.438-10.5a33.108,33.108,0,0,0-8.364-4.021c-8.185-2.093-16.942,1.125-19.2,1.8-7.329,2.181-12.1.489-13.838-.3-.3-.141-.326-.02-.122.137a16.361,16.361,0,0,0,6.3,2.956c2.433.531,5.714.283,9.542-.477,2.5-.492,8.455-2.5,12.634-1.334.1.029.1.125,0,.139-4.836.76-6.994,2.883-9.286,5.421-33.321,3.22-63.153,16.725-66.109,18.053-.087.04-.141.012-.033-.067,1.54-1.027,11.036-7.448,27-13.593.124-.048.127-.1-.043-.1a15.6,15.6,0,0,1-11-4.035c-.068-.06,0-.154.1-.138,10.186,1.46,15.328.572,20.1-.882.121-.036.23-.1-.024-.121-1.051-.094-4.124-.786-8.242-5.37-.094-.1,0-.189.143-.138,7.188,2.77,15.964,1.279,17.507.979.164-.031.141-.153.057-.238a11.737,11.737,0,0,1-3.339-6.252c-.03-.157.14-.223.287-.093,13.691,12.159,24.284-6.291,43.359,2.154.151.066.173,0,.144-.11l-.861-3.091c-.031-.139.058-.175.182-.078l21.2,18.886c17.684,2.409,32.6,6.3,42.037,12.309l-2.883.938c-21.49-6.217-42.65-3.245-52.27-1.823-6.748.957-13.857-.447-16.445-3.007-.114-.113.027-.238.2-.187,7.782,2.263,14.522-1.981,12.13-7.342l-6.4-2.34c-3.218-.46-5.819,1.015-5.934,3.625a5.019,5.019,0,0,0,3.5,5.01c.2.071.209.2,0,.18-3.04-.208-6.505-3.045-4.915-7.164.015-.04-.056-.081-.109-.06a7.346,7.346,0,0,1-4.082.432c-.125-.031-.124-.131,0-.157,2.778-.508,7.6-4.966,12.586-3.379l6.821,2.353a7.283,7.283,0,0,0,4.329.139c.121-.039.094-.1.036-.138l-10.387-4.473c-11.063-4.031-18.1,2.173-19.26,3.358-.121.121-.126,0-.1-.1,1.915-6.068,10.84-9.585,20-6.223l15.388,6.875c.1.057.153-.017.069-.1l-12.75-11.017c-.089-.089-.176-.064-.131.055l.61,2.062C152.29,359.33,152.226,359.353,152.107,359.273Zm9.7,16.886c11.859-2.678,28.062-.468,31.423.036.4.058.232-.04.036-.107-8.373-2.864-21.681-4.4-23.392-4.6a.383.383,0,0,0-.3.14c-1.656,2.3-6.894,3.977-7.882,4.3C161.43,376.014,161.367,376.259,161.811,376.159Z" transform="translate(-63.568 -350.428)" fill="#00366a"/>
          <path id="Path_51" data-name="Path 51" d="M73.475,393.146c5.1-1.6,19.29-4.733,25.045-4.485.254.013.281.183.054.255-4.139,1.277-11.609,4.392-16.708,9.53-.127.13-.061.229.1.149a92.128,92.128,0,0,1,23.263-7.727c.224-.047.279.036.049.185a23.191,23.191,0,0,0-6.431,6.665c-.106.164-.012.211.1.141A98.783,98.783,0,0,1,131.9,384.484c.316-.073.287-.252-.056-.267-9.357-.384-24.867,1.994-31.134,4.065-.254.088-.282-.046-.052-.2,7.229-4.511,22.571-7.44,27.089-8.351.534-.1.33-.238-.028-.267-7.473-.572-19.135.947-28.306,3.209-.281.071-.307-.1-.02-.248a80.446,80.446,0,0,1,25.8-7.165c.282-.02.268-.172-.034-.223-12.1-2.059-42.074,3.4-60.366,12.211-.069.032-.127.081.013.05,2.284-.486,22.1-4.629,32.638-4.246.259.007.266.162.019.227-11.047,2.88-20.678,6.813-24.064,9.683C73.173,393.159,73.318,393.192,73.475,393.146Z" transform="translate(-63.77 -354.636)" fill="#c30032"/>
        </g>
      </g>
    </g>
  </g>
</svg>