<svg xmlns="http://www.w3.org/2000/svg" width="201" height="168.964" viewBox="0 0 201 168.964">
  <g id="Group_128" data-name="Group 128" transform="translate(-157.705 -271.341)">
    <g id="Group_124" data-name="Group 124" transform="translate(157.705 271.341)">
      <g id="Group_123" data-name="Group 123">
        <path id="Path_38" data-name="Path 38" d="M300.935,296.368l-27.5-24.542a1.57,1.57,0,0,0-2.663,1.521l.379,1.382c.044.115-.058.133-.112.113a33.95,33.95,0,0,0-11.564-2.089c-6.29-.027-11.73,1.633-16.987,3.243-4.421,1.3-8.593,2.582-12.651,2.564-4.611-.02-8.588-1.743-12.622-5.259-1.438-1.258-3.2-.514-2.815,1.414a17.347,17.347,0,0,0,3.145,7.087c.075.092.029.165-.058.175a58.8,58.8,0,0,1-7.281.465,35.94,35.94,0,0,1-12.505-2.028c-1.776-.682-3.3.884-1.838,2.413a28.56,28.56,0,0,0,7.03,5.868.119.119,0,0,1-.021.22,44.87,44.87,0,0,1-9.552.908,115.847,115.847,0,0,1-11.678-.979,1.555,1.555,0,0,0-1.3,2.678,25.923,25.923,0,0,0,9.47,5,.1.1,0,0,1,.031.2c-17.567,7.275-28.24,14.359-30.307,15.869-3.365,2.364-1.852,5.375,2.424,4.492,2.209-.452,18.272-3.831,31.749-5.089.173-.017.2.053.046.106-10.014,3.243-18.124,7-21.8,9.941a1.516,1.516,0,0,0,1.507,2.626c4.7-1.624,15.4-3.946,23.827-5.144.149-.021.184.062.051.127a55.817,55.817,0,0,0-14.377,9.679c-1.382,1.349-.241,3.545,1.881,2.449a106.015,106.015,0,0,1,24.569-8.8c.111-.025.186.066.117.14a29.2,29.2,0,0,0-4.456,5.524c-1.234,1.984-.556,3.452,3.624,2.679,25.658-4.7,51.375,2.452,68.823,20.883,1.677,1.774,3.272.987,3.131-.71a49.515,49.515,0,0,1-.389-6.589c.346-10.143,2.688-16.511,15.73-19.131,13.646-2.682,36.179-3.6,45.025-4.017l5.844-3.961c-12.28-2.18-37.651-4.76-53.168-4.568-1.6.018-1.77-.322-.119-.53,7.635-.959,33.843-3.54,58.115,3.856l7-2.313C345.139,304.955,325.891,299.84,300.935,296.368Z" transform="translate(-157.705 -271.341)" fill="#fff"/>
        <g id="Group_122" data-name="Group 122" transform="translate(2.578 1.541)">
          <path id="Path_39" data-name="Path 39" d="M209.617,330.549c18.425-7.889,62.768-22.029,134.671-11.117l-2.529,1.733s-30.9,1.292-44.771,4.024c-9.982,1.992-16.883,6.022-16.937,20.759.019,2.063.175,4.238.424,6.51.021.175-.182.21-.254.029-1.581-4.053-7.6-15.877,3.956-27.118,1.462-1.372,1.181-4.846-3.389-5.013-15.868-.569-39.653,2.665-51.076,6.206-.521.159-.47.361.035.3,21.324-2.52,35.7-1.611,45.187.948.264.071.254.273-.1.248-1.736-.123-16.352-.985-25.64,2.123-.434.147-.386.424.043.4,15.385-.662,22.362,1.454,24.234,2.239.243.1.213.244-.1.233a38.7,38.7,0,0,0-12.2,1.656c-.359.113-.323.392.041.411,8.183.637,11.715,2.3,12.856,2.967.3.175.266.3-.014.327a20.851,20.851,0,0,0-5.272,1.212c-.258.112-.182.375.069.4,6.18.52,8.2,7.6,8.616,9.371.06.256-.1.2-.2.1-7.453-7.64-31.576-25.327-67.588-18.764C209.39,330.787,209.348,330.666,209.617,330.549Zm62.3-31.534c-2.856-.243-4.693,1.008-4.861,3.041-.166,1.987,2.051,3.888,4.892,4.195,2.5.268,4.617-.744,5.276-2.328l-2.466-.011s-.066.011-.046-.079c.346-1.656-1.029-3.02-3.348-3.553-.115-.026-.02-.072-.02-.072l4.082.017A7.262,7.262,0,0,0,271.917,299.016Zm5.827-13.789c-1.2-.807-6.534-4.133-10.981-5.279-10.744-2.747-22.24,1.477-25.208,2.369-9.622,2.864-15.883.641-18.167-.394-.392-.186-.429-.026-.161.18a21.454,21.454,0,0,0,8.267,3.881c3.195.7,7.5.373,12.527-.628,3.277-.646,11.1-3.281,16.587-1.751.136.039.135.163,0,.182-6.348,1-9.182,3.785-12.19,7.116-43.745,4.228-82.908,21.958-86.789,23.7-.115.054-.186.018-.044-.087,2.022-1.348,14.488-9.778,35.449-17.845.163-.064.167-.139-.056-.125-1.826.115-7.968.167-14.446-5.3-.09-.079,0-.2.13-.182,13.372,1.916,20.124.751,26.394-1.16.158-.046.3-.129-.032-.159-1.379-.123-5.414-1.031-10.821-7.05-.123-.127,0-.249.188-.182,9.435,3.638,20.957,1.68,22.982,1.286.215-.042.186-.2.075-.312a15.409,15.409,0,0,1-4.383-8.206c-.039-.207.184-.293.377-.122,17.975,15.963,31.882-8.259,56.923,2.827.2.087.228,0,.188-.144l-1.131-4.057c-.041-.182.077-.23.24-.1L301.5,298.481c23.216,3.161,42.8,8.27,55.187,16.159l-3.786,1.232c-28.212-8.162-55.991-4.261-68.62-2.393-8.861,1.256-18.193-.586-21.59-3.948-.15-.148.035-.312.264-.246,10.216,2.97,19.066-2.6,15.925-9.638l-8.4-3.073c-4.224-.6-7.639,1.332-7.79,4.76a6.586,6.586,0,0,0,4.588,6.576c.259.094.274.258,0,.238-3.99-.274-8.54-4-6.452-9.406.02-.052-.074-.106-.142-.079a9.641,9.641,0,0,1-5.359.567c-.164-.04-.163-.173.006-.205,3.647-.667,9.972-6.52,16.523-4.436l8.954,3.089a9.555,9.555,0,0,0,5.683.181c.159-.051.123-.136.048-.18L272.9,291.807c-14.523-5.293-23.76,2.852-25.285,4.408-.159.158-.166,0-.127-.129,2.515-7.967,14.231-12.584,26.25-8.17l20.2,9.026c.125.074.2-.024.091-.127L277.3,282.352c-.118-.117-.231-.084-.171.073l.8,2.707C277.984,285.3,277.9,285.331,277.744,285.226Zm12.74,22.168c15.568-3.516,36.841-.615,41.253.047.526.076.306-.053.048-.14-10.992-3.76-28.463-5.776-30.71-6.034a.505.505,0,0,0-.389.184c-2.175,3.024-9.051,5.222-10.349,5.639C289.984,307.2,289.9,307.526,290.483,307.395Z" transform="translate(-161.509 -273.615)" fill="#00366a"/>
          <path id="Path_40" data-name="Path 40" d="M174.846,336.186c6.7-2.1,25.324-6.213,32.88-5.888.333.017.369.241.07.335-5.434,1.677-15.24,5.766-21.934,12.511-.167.171-.081.3.13.2A120.951,120.951,0,0,1,216.532,333.2c.293-.062.366.046.064.242a30.468,30.468,0,0,0-8.443,8.75c-.139.216-.016.276.126.186a129.729,129.729,0,0,1,43.275-17.559c.415-.094.375-.33-.075-.35-12.283-.5-32.645,2.618-40.873,5.337-.333.115-.371-.06-.068-.258,9.49-5.922,29.631-9.768,35.562-10.964.7-.134.434-.311-.037-.35-9.81-.752-25.121,1.244-37.161,4.213-.368.094-.4-.129-.026-.325,7.254-3.767,22.641-8.6,33.874-9.407.371-.026.352-.226-.045-.292-15.886-2.7-55.234,4.461-79.25,16.03-.089.043-.167.106.018.066,3-.638,29.017-6.076,42.847-5.574.34.009.349.213.024.3-14.5,3.78-27.147,8.944-31.591,12.712C174.45,336.2,174.642,336.248,174.846,336.186Z" transform="translate(-162.105 -285.937)" fill="#c30032"/>
        </g>
      </g>
    </g>
    <g id="Group_127" data-name="Group 127" transform="translate(185.013 356.499)">
      <g id="Group_126" data-name="Group 126" transform="translate(0)">
        <g id="Group_125" data-name="Group 125">
          <path id="Path_41" data-name="Path 41" d="M304.559,444.411c-4.164,0-9.375-1.693-10.613-1.693l-.831-9.1h.745a11.88,11.88,0,0,0,11.543,8.271c5.733,0,8.4-4.228,8.4-7.849,0-3.811-1.55-6.075-6.421-9.574l-2.7-1.986c-6.446-4.73-9.888-8.567-9.888-14.4,0-6.623,5.663-11.087,14.509-11.087a81.263,81.263,0,0,1,8.809.851l.893,8.427h-.749a9.843,9.843,0,0,0-9.746-6.85c-4.7,0-7.453,2.912-7.453,6.541,0,3.69,1.935,5.681,6.806,9.186l1.65,1.126c7.059,5.14,11.485,9.23,11.485,14.9C321.006,439.726,313.28,444.411,304.559,444.411Zm70.48-46.382v.8c-2.083.435-4.005,1.836-4.133,3.852v22.425c0,13.1-7.076,19.295-20.483,19.295s-20.481-6.2-20.481-19.295V402.682c-.121-2.016-2.047-3.417-4.135-3.852v-.8H341.67v.8c-2.1.435-4.13,1.836-4.262,3.852v23.355c0,11.215,4.722,15.729,13.015,15.729s13.007-4.514,13.007-15.729V402.682c-.125-2.016-2.164-3.417-4.232-3.852v-.8Z" transform="translate(-228.655 -396.997)" fill="#00366a"/>
          <path id="Path_42" data-name="Path 42" d="M210.95,398.519l16.3,35.016,16.367-35.016h11.614v.794c-2.07.438-4.087,1.841-4.213,3.855v35.768c.127,2.076,2.143,3.485,4.213,3.918v.807H239.394v-.807c2.065-.432,4.093-1.842,4.221-3.918V406.8l-18.35,39.034h-.851l-18.484-39.11v32.209c.126,2.076,2.15,3.485,4.222,3.918v.807H198v-.807c2.076-.432,4.1-1.842,4.221-3.918V403.168c-.125-2.014-2.145-3.418-4.221-3.855v-.794Z" transform="translate(-198 -397.488)" fill="#c30032"/>
        </g>
        <path id="Path_43" data-name="Path 43" d="M297.356,487.31H292.7l-6.072,14.359-6.094-14.359h-4.629l9.951,22.6h1.547Zm-32.593,0v13.653L252.9,487.31H250.78v22.6h4.263V496.262l11.875,13.648h2.108v-22.6ZM198,509.911v-22.6h7.173c3.967,0,12.229,1.149,12.229,11.3s-8.261,11.3-12.229,11.3Zm15.109-11.3c0-5.478-3.116-7.25-8.04-7.25h-2.8v14.5h2.8C209.782,505.863,213.109,504.093,213.109,498.613Zm105.1,11.3v-4.048h-9.659v-5.653h9.127v-4.049h-9.127v-4.8H318.2V487.31H304.289v22.6Zm-77.454,0v-4.048H231.1v-5.653h9.118v-4.049H231.1v-4.8h9.648V487.31H226.837v22.6Zm98.486-8.453a6.886,6.886,0,0,0,4.457-6.674c0-5.776-4.964-7.474-8.191-7.474h-7.539v22.6h4.255V491.363h3.194c2.48,0,3.943,1.4,3.943,3.42s-1.629,3.428-3.943,3.428h-2.764v.284l6.967,11.415h4.768Z" transform="translate(-198 -426.104)" fill="#00366a"/>
      </g>
      <path id="Path_44" data-name="Path 44" d="M422.527,402.2c.013.363.058,1.043,1.268,1.043,1.094,0,1.233-.68,1.233-.942,0-.59-.474-.708-1.212-.891a4.675,4.675,0,0,1-1.428-.466,1.19,1.19,0,0,1-.548-1.036c0-1.071,1.015-1.539,2.005-1.539a2.055,2.055,0,0,1,1.481.518,1.355,1.355,0,0,1,.321.9h-.758c-.037-.656-.591-.8-1.109-.8-.729,0-1.166.329-1.166.853,0,.467.307.628.948.781a4.941,4.941,0,0,1,1.7.554,1.2,1.2,0,0,1,.525,1.05c0,.934-.729,1.641-2.078,1.641a2.12,2.12,0,0,1-1.633-.6,1.643,1.643,0,0,1-.306-1.064Zm4.352-3.727h1.292l1.488,4.339,1.523-4.339h1.2v5.265h-.714V399l-1.728,4.74h-.693l-1.663-4.711v4.711h-.708Z" transform="translate(-270.119 -397.439)" fill="#00366a"/>
    </g>
  </g>
</svg>
