<svg id="Layer_1" data-name="Layer 1" xmlns="http://www.w3.org/2000/svg" viewBox="0 0 50 50"><defs><style>.cls-1{fill:#879cba;}.cls-2{fill:#f2f2f2;}</style></defs><title>soundcloud</title><circle class="cls-1" cx="25" cy="25" r="25"/><path class="cls-2" d="M9.43,29a.13.13,0,0,1-.26,0l-.23-1.75.23-1.78a.13.13,0,0,1,.13-.13.14.14,0,0,1,.13.13l.28,1.78Zm1.19,1.06a.14.14,0,0,1-.13.13.14.14,0,0,1-.13-.13L10,27.28l.31-2.88a.14.14,0,0,1,.13-.13.14.14,0,0,1,.13.13L11,27.28Zm1.29.48a.16.16,0,0,1-.32,0l-.3-3.3.3-3.42a.16.16,0,0,1,.32,0l.34,3.42Zm1.3.1a.2.2,0,0,1-.19.19.19.19,0,0,1-.19-.19l-.28-3.4.28-3.52a.19.19,0,0,1,.19-.19.19.19,0,0,1,.19.19l.32,3.52Zm1.31,0a.22.22,0,0,1-.43,0l-.27-3.43L14.09,24a.22.22,0,0,1,.43,0l.3,3.26Zm1.32,0h0a.24.24,0,0,1-.49,0l-.25-3.43L15.36,22a.24.24,0,0,1,.49,0l.28,5.31Zm1.31,0h0a.27.27,0,0,1-.54,0l-.24-3.41.24-6.52a.27.27,0,0,1,.54,0l.26,6.52Zm1.36-.05h0a.3.3,0,0,1-.6,0l-.22-3.37.22-7.07a.3.3,0,0,1,.6,0l.25,7.07Zm1.35,0a.33.33,0,0,1-.65,0L19,27.28l.2-7.3a.33.33,0,0,1,.65,0l.23,7.3Zm1.36,0h0a.35.35,0,0,1-.7,0l-.19-3.32.18-7.11a.35.35,0,1,1,.71,0l.21,7.11Zm1.37,0h0a.38.38,0,0,1-.76,0l-.17-3.3.17-6.86a.38.38,0,0,1,.76,0l.19,6.86Zm1.4-.35,0,.32a.43.43,0,0,1-.12.29.41.41,0,0,1-.69-.27v0L23,27.28l.15-8.08v-.08a.41.41,0,0,1,.19-.34.4.4,0,0,1,.44,0,.41.41,0,0,1,.18.34l.17,8.16Zm1.36.28h0a.43.43,0,0,1-.87,0l-.09-1.59-.09-1.63.18-8.85v0a.44.44,0,0,1,.16-.34.43.43,0,0,1,.5,0,.45.45,0,0,1,.21.37l.19,8.9ZM37.11,31h-11a.47.47,0,0,1-.43-.46V18c0-.23.08-.35.38-.46a7,7,0,0,1,9.47,5.88A3.94,3.94,0,1,1,37.11,31Zm0,0"/></svg>