<svg id="Layer_1" data-name="Layer 1" xmlns="http://www.w3.org/2000/svg" viewBox="0 0 50 50"><defs><style>.cls-1{fill:#879cba;}.cls-2{fill:#fff;}</style></defs><title>twitter</title><circle class="cls-1" cx="25" cy="25" r="25"/><path class="cls-2" d="M36.94,18.6a9.79,9.79,0,0,1-2.81.77,4.93,4.93,0,0,0,2.16-2.71,9.76,9.76,0,0,1-3.12,1.19A4.9,4.9,0,0,0,24.7,21.2a5.09,5.09,0,0,0,.12,1.12,13.9,13.9,0,0,1-10.1-5.12,4.9,4.9,0,0,0,1.51,6.54A4.82,4.82,0,0,1,14,23.12v.06A4.91,4.91,0,0,0,18,28a5.05,5.05,0,0,1-1.29.17,5,5,0,0,1-.93-.09,4.91,4.91,0,0,0,4.58,3.4,9.84,9.84,0,0,1-6.08,2.09,10.51,10.51,0,0,1-1.17-.07A13.93,13.93,0,0,0,34.5,21.77v-.63a9.87,9.87,0,0,0,2.45-2.54Zm0,0"/></svg>