<svg id="Layer_1" data-name="Layer 1" xmlns="http://www.w3.org/2000/svg" viewBox="0 0 50 50"><defs><style>.cls-1{fill:#879cba;}.cls-2{fill:#fff;}</style></defs><title>youtube</title><circle class="cls-1" cx="25" cy="25" r="25"/><path class="cls-2" d="M33.42,31.76h-1.6v-.93a.76.76,0,0,1,.75-.75h.1a.76.76,0,0,1,.76.75Zm-6-2a.69.69,0,0,0-.74.61V34.9a.75.75,0,0,0,1.48,0V30.37a.69.69,0,0,0-.74-.61Zm9.76-2.53v8.61a3.89,3.89,0,0,1-4,3.76H16.81a3.89,3.89,0,0,1-4-3.76V27.23a3.89,3.89,0,0,1,4-3.76H33.19a3.89,3.89,0,0,1,4,3.76ZM17.9,36.78V27.71h2V26.36H14.52v1.32h1.69v9.1ZM24,29.06H22.3v4.85a8.84,8.84,0,0,1,0,1.17c-.14.38-.76.77-1,0a9.82,9.82,0,0,1,0-1.18V29.06H19.6v4.8c0,.74,0,1.29,0,1.54,0,.44,0,1,.43,1.25a2,2,0,0,0,2.59-.87v1H24V29.06Zm5.41,5.55v-4c0-1.54-1.15-2.46-2.71-1.21v-3H25V36.72l1.39,0,.13-.65c1.78,1.63,2.89.51,2.89-1.44Zm5.3-.54H33.43s0,.11,0,.17V35a.69.69,0,0,1-.69.69h-.25a.69.69,0,0,1-.69-.69V33.1H34.7V32a17.6,17.6,0,0,0-.09-2.06c-.21-1.45-2.24-1.68-3.26-.93a1.91,1.91,0,0,0-.71,1,5.38,5.38,0,0,0-.22,1.71v2.4c0,4,4.86,3.43,4.28,0ZM28.19,21a1.15,1.15,0,0,0,.41.51,1.17,1.17,0,0,0,.69.19,1.07,1.07,0,0,0,.65-.2,1.56,1.56,0,0,0,.47-.61l0,.66h1.89v-8H30.78V19.8a.62.62,0,0,1-1.24,0V13.56H28V19c0,.69,0,1.15,0,1.38a2.32,2.32,0,0,0,.16.67Zm-5.72-4.53a6.72,6.72,0,0,1,.19-1.81,1.93,1.93,0,0,1,2-1.44,2.34,2.34,0,0,1,1.12.25,1.85,1.85,0,0,1,.72.66,2.62,2.62,0,0,1,.35.84,6.78,6.78,0,0,1,.09,1.31v2A11.12,11.12,0,0,1,26.84,20a2.58,2.58,0,0,1-.37,1,1.75,1.75,0,0,1-.73.67,2.29,2.29,0,0,1-1,.22,2.81,2.81,0,0,1-1.09-.18,1.48,1.48,0,0,1-.7-.56,2.48,2.48,0,0,1-.35-.9,8.66,8.66,0,0,1-.1-1.58ZM24,19.67a.75.75,0,1,0,1.5,0V15.4a.75.75,0,1,0-1.5,0Zm-5.22,2.16h1.78V15.68l2.1-5.27H20.67l-1.12,3.91L18.42,10.4H16.49l2.24,5.28Zm0,0"/></svg>