<?xml version="1.0" encoding="utf-8"?>
<!-- Generator: Adobe Illustrator 23.0.4, SVG Export Plug-In . SVG Version: 6.00 Build 0)  -->
<svg version="1.1" id="Layer_1" xmlns="http://www.w3.org/2000/svg" xmlns:xlink="http://www.w3.org/1999/xlink" x="0px" y="0px"
	 viewBox="0 0 302.58 155.98" style="enable-background:new 0 0 302.58 155.98;" xml:space="preserve">
<style type="text/css">
	.st0{fill:none;}
	.st1{fill:#00447C;}
	.st2{fill:#D11242;}
	.st3{fill:#FFFFFF;}
</style>
<path class="st0" d="M314.64,179.9V-10.73H-21.9V179.9H314.64z"/>
<g>
	<path class="st1" d="M293.49,112.12c0.01,0.33,0.05,0.96,1.17,0.96c1.01,0,1.14-0.63,1.14-0.87c0-0.54-0.44-0.65-1.12-0.82
		c-0.74-0.18-1.07-0.26-1.32-0.43c-0.4-0.27-0.5-0.63-0.5-0.96c0-0.99,0.94-1.42,1.85-1.42c0.32,0,0.98,0.05,1.37,0.48
		c0.27,0.3,0.28,0.63,0.3,0.83h-0.7c-0.03-0.6-0.54-0.74-1.02-0.74c-0.67,0-1.08,0.3-1.08,0.79c0,0.43,0.28,0.58,0.88,0.72
		c1.16,0.3,1.28,0.32,1.57,0.51c0.45,0.29,0.48,0.77,0.48,0.97c0,0.86-0.67,1.51-1.92,1.51c-0.37,0-1.12-0.06-1.51-0.55
		c-0.28-0.36-0.28-0.75-0.28-0.98H293.49z M297.5,108.68h1.19l1.37,4l1.41-4h1.11v4.86h-0.66v-4.37l-1.59,4.37h-0.64l-1.53-4.34
		v4.34h-0.65V108.68z"/>
	<g>
		<g>
			<path class="st1" d="M72.51,128.91v-0.36c0.92-0.19,1.83-0.82,1.89-1.75v-16.04c-0.06-0.91-0.97-1.53-1.89-1.72v-0.36h13.84
				l0.64,3.68h-0.37c-0.35-0.75-1.39-2.29-3.93-2.29h-4.5c-0.17,0.06-0.23,0.16-0.23,0.37v7.04h3.82c2.23,0,3.15-1.39,3.27-2.23h0.3
				v5.8h-0.3c-0.12-0.81-1.04-2.2-3.27-2.2h-3.82v8.24c0,0.19,0.06,0.3,0.21,0.36h3.93c3.34,0,4.34-1.67,4.91-2.87h0.35l-0.71,4.34
				H72.51z M186.37,128.91v-0.36c0.93-0.19,1.84-0.82,1.89-1.75v-16.04c-0.05-0.91-0.96-1.53-1.89-1.72v-0.36h13.85l0.64,3.68h-0.36
				c-0.35-0.75-1.39-2.29-3.93-2.29h-4.5c-0.17,0.06-0.23,0.16-0.23,0.37v7.04h3.83c2.23,0,3.15-1.39,3.26-2.23h0.31v5.8h-0.31
				c-0.11-0.81-1.03-2.2-3.26-2.2h-3.83v8.24c0,0.19,0.06,0.3,0.21,0.36h3.93c3.35,0,4.34-1.67,4.92-2.87h0.35l-0.71,4.34H186.37z
				 M159.66,126.8c0.05,0.93,0.96,1.56,1.89,1.75v0.36h-7.34v-0.36c0.93-0.19,1.84-0.82,1.89-1.75v-16.04
				c-0.05-0.91-0.96-1.53-1.89-1.72v-0.36h7.34v0.36c-0.93,0.19-1.83,0.82-1.89,1.72V126.8z M248.67,126.8
				c0.06,0.93,0.96,1.56,1.89,1.75v0.36h-7.35v-0.36c0.93-0.19,1.84-0.82,1.9-1.75v-16.04c-0.06-0.91-0.96-1.53-1.9-1.72v-0.36h7.35
				v0.36c-0.93,0.19-1.84,0.82-1.89,1.72V126.8z M22.96,128.91v-0.24c0.76-0.13,1.76-0.64,1.76-1.74v-16.45
				c-0.01-0.18-0.13-0.47-0.42-0.47h-3.1c-2.48,0-3.67,1.94-4.09,2.83h-0.24l0.78-4.15h17.77l0.78,4.15h-0.23
				c-0.42-0.88-1.61-2.83-4.08-2.83h-3.14c-0.29,0-0.38,0.29-0.4,0.47v16.45c0,1.1,1,1.61,1.75,1.74v0.24H22.96z M258.3,128.91
				v-0.24c0.76-0.13,1.75-0.64,1.75-1.74v-16.45c-0.01-0.18-0.13-0.47-0.42-0.47h-3.11c-2.47,0-3.67,1.94-4.09,2.83h-0.23l0.78-4.15
				h17.78l0.77,4.15h-0.23c-0.42-0.88-1.61-2.83-4.08-2.83h-3.13c-0.29,0-0.39,0.29-0.4,0.47v16.45c0,1.1,1,1.61,1.75,1.74v0.24
				H258.3z M57.14,128.91v-0.24c0.76-0.13,1.75-0.64,1.75-1.74v-16.45c-0.01-0.18-0.13-0.47-0.42-0.47h-3.1
				c-2.47,0-3.67,1.94-4.09,2.83h-0.23l0.78-4.15H69.6l0.78,4.15h-0.23c-0.43-0.88-1.61-2.83-4.08-2.83h-3.13
				c-0.29,0-0.39,0.29-0.4,0.47v16.45c0,1.1,1,1.61,1.75,1.74v0.24H57.14z M8.53,129.47c-2.24,0-5.05-0.92-5.71-0.92l-0.45-4.89h0.4
				c0.73,2.06,2.63,4.45,6.21,4.45c3.09,0,4.52-2.27,4.52-4.22c0-2.04-0.83-3.27-3.46-5.14l-1.45-1.07
				c-3.46-2.55-5.31-4.62-5.31-7.75c0-3.56,3.04-5.96,7.8-5.96c1.87,0,3.89,0.39,4.74,0.46l0.49,4.54H15.9
				c-0.69-2.17-2.63-3.69-5.24-3.69c-2.53,0-4.01,1.56-4.01,3.52c0,1.98,1.04,3.05,3.66,4.94l0.89,0.61
				c3.79,2.76,6.18,4.97,6.18,8.02C17.38,126.95,13.23,129.47,8.53,129.47z M231.57,129.47c-1.87,0-4.2-0.76-4.75-0.76l-0.37-4.07
				h0.33c0.6,1.71,2.19,3.5,5.17,3.5c2.58,0,3.77-1.63,3.77-3.08c0-1.52-0.47-2.61-2.87-4.33l-1.33-0.98
				c-3.17-2.32-4.33-3.82-4.33-6.43c0-2.97,2.54-5.1,6.5-5.1c1.56,0,3.24,0.32,3.95,0.38l0.4,3.78h-0.34
				c-0.57-1.81-2.2-2.93-4.36-2.93c-2.11,0-3.37,1.16-3.35,2.79c0.02,1.25,0.7,2.19,3.09,3.91l0.81,0.55
				c3.47,2.53,5.05,3.97,5.05,6.72C238.95,127.25,235.49,129.47,231.57,129.47z M150.18,108.71v0.36c-0.93,0.2-1.86,0.83-1.92,1.75
				v19.08h-1.05l-15.3-17.53v14.44c0.05,0.93,0.96,1.56,1.89,1.75v0.36h-5.45v-0.36c0.93-0.19,1.84-0.82,1.9-1.75v-16.04
				c-0.06-0.91-0.97-1.53-1.9-1.72v-0.36h5.66l12.61,14.4v-12.26c-0.05-0.92-0.96-1.55-1.89-1.75v-0.36H150.18z M181.5,111.05
				c0.54-1.25-0.07-1.83-1.01-2.03v-0.35h4.74v0.36c-0.93,0.19-1.53,0.77-1.95,1.72l-8.66,19.13h-0.51l-8.8-19.13
				c-0.42-0.96-0.97-1.53-1.9-1.72v-0.36h7.17v0.36c-0.93,0.19-1.66,0.73-1.08,2.09l5.94,13.32L181.5,111.05z M125.4,104.52v0.43
				c-1.12,0.23-2.16,0.98-2.22,2.07v12.06c0,7.05-3.8,10.38-11.01,10.38c-7.22,0-11.02-3.33-11.02-10.38v-12.06
				c-0.07-1.09-1.1-1.83-2.22-2.07v-0.43h8.52v0.43c-1.11,0.23-2.21,0.98-2.28,2.07v12.57c0,6.03,2.53,8.46,7,8.46
				c4.46,0,6.99-2.43,6.99-8.46v-12.57c-0.07-1.09-1.17-1.83-2.28-2.07v-0.43H125.4z M52.29,126.83l-8.69-19.13h-0.48l-7.92,19.13
				c-0.38,0.95-0.94,1.53-1.82,1.72v0.36h4.5v-0.35c-0.89-0.2-1.48-0.79-0.99-2.03l1.69-4.09h7.94l1.77,4.01
				c0.57,1.36-0.11,1.9-0.99,2.09v0.36h6.82v-0.36C53.23,128.36,52.7,127.78,52.29,126.83z M45.86,120.94H39.2l3.22-7.81
				L45.86,120.94z M290.36,108.68v0.36c-0.93,0.19-1.49,0.55-2.21,1.72l-5.07,8.22v7.83c0.06,0.93,0.96,1.55,1.89,1.75v0.35h-7.35
				v-0.35c0.93-0.2,1.84-0.82,1.9-1.75v-6.83l-5.78-9.22c-0.65-0.99-1.23-1.53-2.17-1.72v-0.36h7.27v0.36
				c-0.92,0.19-1.93,0.64-1.08,2.09l4.28,7.11l4.55-7.18c0.75-1.38-0.08-1.83-1.02-2.03v-0.34H290.36z M220.89,125.07
				c1.21,1.57,2.37,3.14,4.43,3.42v0.42h-3.18c-1.99,0-3.13-0.85-4.08-1.87l-4.43-6.62c-0.64-1.02-1.25-1.3-2.15-1.5v-0.4
				c1.69,0,6.25-0.24,6.25-4.2c0-3.82-2.99-4.39-4.66-4.39c-0.71,0-1.95,0.03-2.23,0.12c-0.2,0.05-0.27,0.16-0.27,0.38v16.36
				c0.06,0.93,0.95,1.56,1.88,1.75v0.36h-7.35v-0.36c0.93-0.19,1.84-0.82,1.9-1.75v-16.04c-0.06-0.91-0.96-1.53-1.9-1.72v-0.36h8.67
				c3.47,0,7.65,1.08,7.65,5.25c0,4.3-4.66,4.97-4.66,4.97L220.89,125.07z"/>
			<path class="st2" d="M37.93,98.56V98.2c0.92-0.2,1.84-0.83,1.9-1.75V80.41c-0.06-0.91-0.97-1.53-1.9-1.73v-0.36h13.85L52.41,82
				h-0.36c-0.35-0.75-1.39-2.29-3.94-2.29h-4.5c-0.16,0.06-0.23,0.17-0.23,0.37v7.04h3.83c2.23,0,3.15-1.39,3.26-2.23h0.3v5.8h-0.3
				c-0.11-0.81-1.03-2.2-3.26-2.2h-3.83v8.24c0,0.19,0.06,0.3,0.22,0.36h3.93c3.35,0,4.34-1.67,4.92-2.87h0.35l-0.71,4.33H37.93z
				 M196.11,96.44c0.05,0.93,0.96,1.56,1.89,1.75v0.36h-7.35V98.2c0.93-0.2,1.84-0.83,1.89-1.75V80.41
				c-0.05-0.91-0.96-1.53-1.89-1.73v-0.36H198v0.36c-0.93,0.19-1.83,0.82-1.89,1.73V96.44z M60.93,98.56v-0.24
				c0.76-0.13,1.76-0.64,1.76-1.74V80.12c-0.01-0.18-0.13-0.48-0.42-0.48h-3.1c-2.47,0-3.67,1.94-4.09,2.83h-0.23l0.78-4.16H73.4
				l0.77,4.16h-0.23c-0.42-0.89-1.61-2.83-4.08-2.83h-3.13c-0.3,0-0.39,0.29-0.4,0.48v16.45c0,1.1,1,1.61,1.75,1.74v0.24H60.93z
				 M206.49,98.56v-0.24c0.76-0.13,1.76-0.64,1.76-1.74V80.12c-0.02-0.18-0.13-0.48-0.43-0.48h-3.1c-2.48,0-3.67,1.94-4.1,2.83
				h-0.23l0.78-4.16h17.77l0.78,4.16h-0.23c-0.42-0.89-1.61-2.83-4.08-2.83h-3.13c-0.3,0-0.39,0.29-0.4,0.48v16.45
				c0,1.1,1,1.61,1.75,1.74v0.24H206.49z M110.22,77.86c-7.31,0-11.78,4.73-11.78,10.59c0,5.87,4.3,10.66,11.78,10.66
				c7.47,0,11.78-4.79,11.78-10.66C122,82.59,117.53,77.86,110.22,77.86z M110.22,97.71c-4.85,0-7.69-4.24-7.69-9.27
				c0-5,2.95-9.26,7.69-9.26c4.74,0,7.69,4.26,7.69,9.26C117.91,93.47,115.07,97.71,110.22,97.71z M157.57,77.86
				c-7.31,0-11.78,4.73-11.78,10.59c0,5.87,4.3,10.66,11.78,10.66c7.47,0,11.78-4.79,11.78-10.66
				C169.35,82.59,164.89,77.86,157.57,77.86z M157.57,97.71c-4.85,0-7.69-4.24-7.69-9.27c0-5,2.95-9.26,7.69-9.26
				c4.75,0,7.69,4.26,7.69,9.26C165.26,93.47,162.42,97.71,157.57,97.71z M174.7,80.3c0-1.1-0.99-1.61-1.75-1.74v-0.24h7.14l0,0.24
				c-0.76,0.13-1.75,0.64-1.75,1.74v16.45c0.01,0.19,0.11,0.48,0.4,0.48h4.52c3.5,0,4.63-2.8,5.06-3.69h0.31l-0.91,5.02h-14.9V98.2
				c0.93-0.2,1.84-0.83,1.89-1.75V80.3z M9.34,74.27l8.77,18.84l8.8-18.84l0,0h6.25v0.43c-1.12,0.24-2.2,0.98-2.27,2.07v19.25
				c0.07,1.11,1.15,1.87,2.27,2.11v0.43h-8.52v-0.43c1.12-0.23,2.2-1,2.27-2.11V78.73l-9.87,21h-0.45L6.65,78.69v17.33
				c0.06,1.11,1.16,1.87,2.27,2.11v0.43H2.38v-0.43c1.12-0.23,2.21-1,2.27-2.11V76.77c-0.07-1.08-1.16-1.83-2.27-2.07v-0.43H9.34z
				 M262.85,78.35v0.36c-0.93,0.19-1.86,0.83-1.91,1.75v19.07h-1.05L244.58,82v14.44c0.05,0.93,0.96,1.56,1.89,1.75v0.36h-5.45V98.2
				c0.93-0.2,1.84-0.83,1.89-1.75V80.41c-0.06-0.91-0.96-1.53-1.89-1.73v-0.36h5.65l12.62,14.4V80.46
				c-0.05-0.93-0.96-1.56-1.89-1.75v-0.36H262.85z M237.13,96.47l-8.68-19.13h-0.48l-7.92,19.13c-0.38,0.96-0.94,1.53-1.82,1.72
				v0.37h4.5v-0.35c-0.89-0.2-1.49-0.78-1-2.03l1.68-4.09h7.95l1.76,4.01c0.58,1.36-0.11,1.9-0.99,2.09v0.37h6.82v-0.37
				C238.07,98,237.54,97.43,237.13,96.47z M230.7,90.58h-6.66l3.22-7.81L230.7,90.58z M132.76,88.94c1.69,0,6.25-0.28,6.25-4.63
				c0-3.82-2.99-4.73-4.66-4.73c-0.71,0-1.95,0.02-2.23,0.11c-0.2,0.06-0.26,0.17-0.26,0.39v16.36c0.06,0.93,0.95,1.56,1.88,1.75
				v0.36h-7.35V98.2c0.93-0.2,1.84-0.83,1.9-1.75V80.41c-0.06-0.91-0.96-1.53-1.9-1.73v-0.36h8.68c3.46,0,7.65,1.48,7.65,5.64
				c0,6.77-8.45,6.11-9.95,5.38V88.94z M92.64,94.71c1.2,1.57,2.36,3.14,4.43,3.42v0.42h-3.18c-1.98,0-3.13-0.85-4.08-1.87
				l-4.43-6.62c-0.64-1.02-1.24-1.3-2.14-1.51v-0.4c1.69,0,6.24-0.24,6.24-4.2c0-3.82-2.99-4.39-4.65-4.39
				c-0.71,0-1.95,0.03-2.23,0.11c-0.2,0.06-0.26,0.17-0.26,0.39v16.36c0.06,0.93,0.95,1.56,1.88,1.75v0.36h-7.35V98.2
				c0.93-0.2,1.83-0.83,1.89-1.75V80.41c-0.06-0.91-0.96-1.53-1.89-1.73v-0.36h8.67c3.47,0,7.65,1.08,7.65,5.25
				c0,4.3-4.66,4.96-4.66,4.96L92.64,94.71z"/>
			<path class="st1" d="M29.3,142.12v2.42h-5.2v2.86h4.88v2.42H24.1v5.8h-2.55v-13.5H29.3z M100.6,142.12h-2.77l-3.63,8.58
				l-3.63-8.58H87.8l5.94,13.5h0.93L100.6,142.12z M81.82,142.12v8.16l-7.09-8.16h-1.26v13.5h2.55v-8.16l7.09,8.16h1.26v-13.5H81.82
				z M43.46,155.62v-13.5h4.28c2.37,0,7.3,0.69,7.3,6.75s-4.93,6.75-7.3,6.75H43.46z M52.48,148.87c0-3.27-1.86-4.33-4.8-4.33h-1.67
				v8.66h1.67C50.49,153.2,52.48,152.14,52.48,148.87z M112.46,155.62v-2.42h-5.76v-3.38h5.45v-2.42h-5.45v-2.86h5.76v-2.42h-8.31
				v13.5H112.46z M68.3,155.62v-2.42h-5.76v-3.38h5.45v-2.42h-5.45v-2.86h5.76v-2.42h-8.31v13.5H68.3z M124.31,150.57
				c1.38-0.59,2.67-1.79,2.67-3.99c0-3.45-2.97-4.46-4.89-4.46h-4.51v13.5h2.55v-11.08h1.91c1.47,0,2.35,0.84,2.35,2.04
				c0,1.21-0.97,2.04-2.35,2.04h-1.65v0.17l4.16,6.82h2.85L124.31,150.57z M16.5,148.91c0,4.03-3.05,7.07-7.07,7.07
				c-4.02,0-7.07-3.05-7.07-7.07c0-4.02,3.05-7.07,7.07-7.07C13.45,141.84,16.5,144.88,16.5,148.91z M13.88,148.91
				c0-2.58-1.92-4.63-4.45-4.63c-2.53,0-4.45,2.05-4.45,4.63c0,2.58,1.92,4.63,4.45,4.63C11.96,153.53,13.88,151.49,13.88,148.91z"
				/>
		</g>
		<g>
			<path class="st3" d="M132.09,23.08L106.73,0.45c-1.13-0.99-2.81-0.25-2.46,1.4l0.35,1.27c0.04,0.11-0.05,0.12-0.1,0.1
				c-3.51-1.28-7.05-1.91-10.67-1.93c-5.8-0.03-10.82,1.51-15.67,2.99c-4.08,1.2-7.92,2.38-11.67,2.36
				c-4.25-0.02-7.92-1.61-11.64-4.85c-1.33-1.16-2.95-0.47-2.6,1.3c0.51,2.35,1.39,4.59,2.9,6.54c0.07,0.08,0.03,0.15-0.05,0.16
				c-1.68,0.2-4.01,0.44-6.71,0.43c-4.43-0.02-8.3-0.65-11.53-1.87c-1.64-0.63-3.04,0.82-1.7,2.22c2.47,2.73,4.66,4.39,6.48,5.41
				c0.09,0.05,0.08,0.19-0.02,0.2c-2.44,0.51-5.24,0.85-8.81,0.84c-3.16-0.01-9.29-0.67-10.77-0.9c-1.48-0.23-2.21,1.65-1.19,2.47
				c3.16,2.54,6.19,3.94,8.73,4.61c0.1,0.03,0.12,0.15,0.03,0.18C13.45,30.12,3.6,36.65,1.7,38.04c-3.1,2.18-1.71,4.96,2.24,4.14
				c2.04-0.42,16.85-3.53,29.28-4.69c0.16-0.02,0.19,0.05,0.04,0.1c-9.23,2.99-16.71,6.46-20.1,9.17c-1.41,1.16-0.28,3.01,1.39,2.42
				c4.34-1.5,14.21-3.64,21.97-4.74c0.14-0.02,0.17,0.06,0.05,0.12c-4.25,2-9.18,5.03-13.26,8.93c-1.27,1.24-0.22,3.27,1.73,2.26
				c8.63-4.47,17.26-6.87,22.66-8.11c0.1-0.02,0.17,0.06,0.11,0.13c-1.27,1.27-2.79,2.92-4.11,5.09c-1.14,1.83-0.51,3.18,3.34,2.47
				c23.66-4.34,47.38,2.26,63.47,19.26c1.55,1.64,3.02,0.91,2.89-0.65c-0.12-1.38-0.44-3.59-0.36-6.08
				c0.32-9.35,2.48-15.23,14.51-17.64c12.58-2.47,33.37-3.32,41.52-3.7l5.39-3.65c-11.33-2.01-34.72-4.39-49.03-4.21
				c-1.48,0.02-1.63-0.3-0.11-0.49c7.04-0.88,31.21-3.26,53.6,3.56l6.46-2.13C172.86,31,155.11,26.28,132.09,23.08z"/>
			<g>
				<path class="st1" d="M46.75,53.93c16.99-7.27,57.89-20.32,124.2-10.25l-2.33,1.6c0,0-28.5,1.19-41.29,3.71
					c-9.21,1.84-15.57,5.55-15.62,19.14c0.02,1.9,0.16,3.91,0.39,6c0.02,0.16-0.17,0.19-0.23,0.03c-1.46-3.74-7-14.64,3.65-25.01
					c1.35-1.27,1.09-4.47-3.12-4.62c-14.63-0.53-36.57,2.46-47.1,5.72c-0.48,0.15-0.43,0.33,0.03,0.28
					c19.67-2.32,32.92-1.49,41.67,0.88c0.24,0.07,0.23,0.25-0.09,0.23c-1.6-0.11-15.08-0.91-23.65,1.96
					c-0.4,0.14-0.36,0.39,0.04,0.37c14.19-0.61,20.62,1.34,22.35,2.07c0.22,0.09,0.2,0.22-0.09,0.21c-1.64-0.06-6.53,0-11.26,1.53
					c-0.33,0.1-0.3,0.36,0.04,0.38c7.55,0.59,10.8,2.12,11.86,2.74c0.28,0.16,0.25,0.27-0.01,0.3c-0.95,0.11-3.33,0.43-4.86,1.12
					c-0.24,0.1-0.17,0.35,0.06,0.37c5.7,0.48,7.56,7.01,7.95,8.64c0.06,0.24-0.1,0.19-0.19,0.09c-6.87-7.05-29.12-23.36-62.33-17.3
					C46.54,54.15,46.5,54.03,46.75,53.93z M104.2,24.85c-2.63-0.22-4.33,0.93-4.48,2.8c-0.15,1.83,1.89,3.59,4.51,3.87
					c2.31,0.25,4.26-0.69,4.87-2.15l-2.27-0.01c0,0-0.06,0.01-0.04-0.07c0.32-1.53-0.95-2.78-3.09-3.28
					c-0.11-0.02-0.02-0.07-0.02-0.07l3.76,0.02C106.91,25.41,105.18,24.93,104.2,24.85z M109.57,12.13
					c-1.1-0.74-6.03-3.81-10.13-4.87C89.54,4.73,78.94,8.62,76.2,9.45c-8.87,2.64-14.65,0.59-16.75-0.36
					c-0.36-0.17-0.4-0.02-0.15,0.17c1.24,0.89,3.84,2.77,7.62,3.58c2.95,0.64,6.92,0.34,11.55-0.58c3.02-0.6,10.24-3.03,15.3-1.62
					c0.13,0.04,0.12,0.15,0,0.17c-5.86,0.92-8.47,3.49-11.24,6.56C42.19,21.26,6.07,37.61,2.49,39.22
					c-0.11,0.05-0.17,0.02-0.04-0.08c1.86-1.24,13.36-9.02,32.69-16.46c0.15-0.06,0.15-0.13-0.05-0.12
					c-1.68,0.11-7.35,0.15-13.32-4.89c-0.08-0.07,0-0.19,0.12-0.17c12.33,1.77,18.56,0.69,24.34-1.07c0.15-0.04,0.28-0.12-0.03-0.15
					c-1.27-0.11-4.99-0.95-9.98-6.5c-0.11-0.12,0-0.23,0.17-0.17c8.7,3.35,19.33,1.55,21.19,1.19c0.2-0.04,0.17-0.19,0.07-0.29
					c-1.12-1.13-3.35-3.63-4.04-7.57c-0.04-0.19,0.17-0.27,0.35-0.11c16.58,14.72,29.4-7.62,52.5,2.61c0.18,0.08,0.21,0,0.17-0.13
					l-1.04-3.74c-0.04-0.17,0.07-0.21,0.22-0.1l25.67,22.87c21.41,2.92,39.47,7.63,50.89,14.9l-3.49,1.14
					c-26.02-7.53-51.64-3.93-63.28-2.21c-8.17,1.16-16.78-0.54-19.91-3.64c-0.14-0.14,0.03-0.29,0.24-0.23
					c9.42,2.74,17.58-2.4,14.69-8.89l-7.75-2.83c-3.9-0.56-7.04,1.23-7.18,4.39c-0.11,2.68,1.42,5.04,4.23,6.06
					c0.24,0.09,0.25,0.24,0,0.22c-3.68-0.25-7.88-3.69-5.95-8.67c0.02-0.05-0.07-0.1-0.13-0.07c-1.55,0.58-3.46,0.9-4.94,0.52
					c-0.15-0.04-0.15-0.16,0.01-0.19c3.36-0.62,9.2-6.01,15.24-4.09l8.26,2.85c2.48,0.85,4.61,0.37,5.24,0.17
					c0.15-0.05,0.11-0.13,0.04-0.17l-12.58-5.42c-13.39-4.88-21.91,2.63-23.32,4.07c-0.15,0.14-0.15,0-0.12-0.12
					c2.32-7.35,13.12-11.6,24.21-7.53l18.63,8.32c0.12,0.07,0.19-0.02,0.08-0.12L109.16,9.48c-0.11-0.11-0.21-0.08-0.16,0.07
					l0.74,2.5C109.79,12.2,109.72,12.23,109.57,12.13z M121.32,32.57c14.36-3.24,33.97-0.57,38.04,0.04
					c0.48,0.07,0.28-0.05,0.04-0.13c-10.14-3.47-26.25-5.33-28.32-5.56c-0.15-0.02-0.31,0.1-0.36,0.17
					c-2.01,2.79-8.35,4.82-9.54,5.2C120.86,32.4,120.78,32.69,121.32,32.57z"/>
				<path class="st2" d="M14.13,48.05c6.17-1.94,23.35-5.73,30.32-5.43c0.31,0.02,0.34,0.22,0.06,0.31
					c-5.01,1.55-14.05,5.32-20.23,11.54c-0.15,0.16-0.07,0.28,0.12,0.18c12.82-6.49,25.4-8.76,28.16-9.36
					c0.27-0.06,0.34,0.04,0.06,0.22c-1.23,0.83-4.62,3.24-7.79,8.07c-0.13,0.2-0.01,0.25,0.12,0.17
					c14.26-9.06,27.19-13.36,39.91-16.19c0.38-0.09,0.35-0.3-0.07-0.32c-11.33-0.46-30.11,2.41-37.69,4.92
					c-0.31,0.11-0.34-0.06-0.06-0.24c8.75-5.46,27.33-9.01,32.8-10.11c0.65-0.12,0.4-0.29-0.03-0.32
					c-9.05-0.69-23.17,1.15-34.27,3.88c-0.34,0.09-0.37-0.12-0.02-0.3c6.69-3.47,20.88-7.93,31.24-8.67
					c0.34-0.02,0.33-0.21-0.04-0.27c-14.65-2.49-50.94,4.11-73.08,14.78c-0.08,0.04-0.15,0.1,0.02,0.06
					c2.77-0.59,26.76-5.6,39.51-5.14c0.31,0.01,0.32,0.2,0.02,0.28c-13.37,3.49-25.04,8.25-29.13,11.72
					C13.76,48.06,13.94,48.1,14.13,48.05z"/>
			</g>
		</g>
	</g>
</g>
<rect x="-204.16" y="197.06" class="st0" width="324" height="153"/>
</svg>
