<svg xmlns="http://www.w3.org/2000/svg" xmlns:xlink="http://www.w3.org/1999/xlink" width="139.305" height="111.8" viewBox="0 0 139.305 111.8">
  <defs>
    <clipPath id="clip-path">
      <rect id="Rectangle_348" data-name="Rectangle 348" width="57.729" height="98.741" fill="#002855"/>
    </clipPath>
  </defs>
  <g id="Group_167" data-name="Group 167" transform="translate(-272.447 -1039.392)">
    <path id="Path_25" data-name="Path 25" d="M291.258,1043.295v13.98c-6.124-1.829-7.639-3.968-7.639-7.232v-.157c0-3.489,2.629-6.2,7.639-6.591" transform="translate(56.507 19.738)" fill="#002855"/>
    <path id="Path_26" data-name="Path 26" d="M334.262,1110.432a36.769,36.769,0,0,1-18.742-7.856l5.088-7.215c4.531,3.647,8.814,6.034,13.987,6.814v-15.549c-11.612-3.022-17-7.39-17-16.276v-.176c0-8.565,6.754-14.362,16.67-15.156v-10.067c-20.329-5.149-39.779-10.092-59.211,1.7v75.518c19.432-11.8,38.883-6.863,59.211-1.7Z" transform="translate(13.17 0)" fill="#002855"/>
    <path id="Path_27" data-name="Path 27" d="M272.447,1142.333l6.96-5.561c25.635-20.432,45.419-14.974,68.3-8.65l.048.012.012-8.881c-20.486-5.633-41.687-10.691-66.729,5.743v-83.853c-2.768,1.623-5.609,3.477-8.589,5.549v95.641" transform="translate(0 8.859)" fill="#002855"/>
    <g id="Group_103" data-name="Group 103" transform="translate(354.023 1044.688)" opacity="0.4">
      <g id="Group_102" data-name="Group 102">
        <g id="Group_101" data-name="Group 101" clip-path="url(#clip-path)">
          <path id="Path_28" data-name="Path 28" d="M293.776,1091.319v-.145c0-3.5-1.666-5.646-7.863-7.463v14.369c5.016-.4,7.863-2.944,7.863-6.76m-7.511-49.052v8.48a30.335,30.335,0,0,1,14.907,6.057l-4.44,7.445a27.551,27.551,0,0,0-10.819-5.082v15.09c12.085,3.016,17.233,7.856,17.233,16.349v.169c0,8.644-6.826,14.447-16.882,15.307v11.7c18.142,4.41,37.065,7.542,57.382-2.01v-75.507c-20.317,9.534-39.24,6.4-57.382,2m57.382,82.484v9.262c-22.128,8.3-40.924,4.724-57.733.26v-8.892c17.5,4.755,35.745,8.668,57.733-.63" transform="translate(-285.92 -1040.264)" fill="#002855"/>
        </g>
      </g>
    </g>
  </g>
</svg>
