<svg xmlns="http://www.w3.org/2000/svg" width="121.076" height="102" viewBox="0 0 121.076 102">
  <path id="Path_60" data-name="Path 60" d="M594.817,567.334a1.193,1.193,0,0,0,.37-.952v.716A1.918,1.918,0,0,1,594.817,567.334Zm0,0a5.367,5.367,0,0,1-.817.336A1.456,1.456,0,0,0,594.817,567.334Zm.37-.952v.716C595.45,566.87,595.5,566.634,595.187,566.382Zm119.889.565v-.565C714.834,566.58,714.857,566.769,715.076,566.947Zm0-22.372v20.388H595.187V544.575a8.56,8.56,0,0,1,8.569-8.559h23.6V523.073a7.252,7.252,0,0,1,7.234-7.238h41.1a7.246,7.246,0,0,1,7.224,7.238v12.942h23.61A8.557,8.557,0,0,1,715.076,544.575ZM675.3,523.457H634.961v12.558H675.3Zm-71.539,94.379h102.76a8.557,8.557,0,0,0,8.559-8.559V568.82H595.187v40.456A8.56,8.56,0,0,0,603.757,617.836Z" transform="translate(-594 -515.836)" fill="#002855"/>
</svg>
