<svg xmlns="http://www.w3.org/2000/svg" width="101.563" height="95" viewBox="0 0 101.563 95">
  <path id="Path_59" data-name="Path 59" d="M472.2,214.438V200.205l-6.139,9.307h-.133l-6.071-9.228v14.154h-4.706V192.631h5.174l5.735,9.217,5.73-9.217h5.168v21.808Zm-5.027-41.759,1.873,12.472,5.425-12.472Zm-41.522-10.833c0,4.243-2.6,7.679-5.831,7.679h88.032c3.211,0,5.806-3.436,5.806-7.679s-2.6-7.682-5.806-7.682H419.814C423.042,154.164,425.646,157.6,425.646,161.846Zm33.225,10.833,5.434,12.472,1.865-12.472ZM507.846,233.8h-.426c-16.848-19.269,22.888-41.846,1.811-61.123h-34.06l-1.549,13.7,9.939-12.486-5.834,14.856,12.819-9.493-9.482,12.842,14.856-5.84-12.481,9.933,15.863-1.783-14.645,6.376,15.8,2.367-15.8,2.37,14.653,6.365L483.44,210.1l12.481,9.953-14.865-5.86,9.49,12.856-12.836-9.5,5.845,14.859L473.6,219.911l1.58,13.891h-.629l-5.507-12.676L467.125,233.8h-.942L464.3,221.127,458.772,233.8h-.635l1.577-13.891L449.772,232.4l5.837-14.865-12.845,9.493,9.493-12.842L437.4,220.033l12.5-9.953-15.861,1.8,14.628-6.382-15.782-2.364,15.787-2.364L434.033,194.4l15.869,1.789-12.5-9.939,14.853,5.845-9.488-12.842,12.848,9.493-5.837-14.856,9.939,12.486-1.554-13.7H421.324c21.074,19.277-18.67,41.855-1.811,61.123h.3c3.227,0,5.831,3.436,5.831,7.679s-2.6,7.682-5.831,7.682h88.032c3.211,0,5.806-3.445,5.806-7.682S511.057,233.8,507.846,233.8Zm-85.422,7.713c0-2.9-1.887-5.225-4.206-5.225-2.336,0-4.218,2.327-4.218,5.225,0,2.875,1.882,5.214,4.218,5.214C420.537,246.729,422.424,244.391,422.424,241.516ZM418.218,167.1c2.319,0,4.206-2.347,4.206-5.225s-1.887-5.222-4.206-5.222c-2.336,0-4.218,2.342-4.218,5.222S415.882,167.1,418.218,167.1Z" transform="translate(-414 -154.164)" fill="#d11242"/>
</svg>
