<svg xmlns="http://www.w3.org/2000/svg" width="132.189" height="70" viewBox="0 0 132.189 70">
  <path id="Path_58" data-name="Path 58" d="M693.275,267.431a10.911,10.911,0,1,0-10.9-10.911A10.913,10.913,0,0,0,693.275,267.431ZM713.7,279.975V315.61H672.86V279.975a7.5,7.5,0,0,1,7.5-7.506H706.2A7.5,7.5,0,0,1,713.7,279.975Zm25.253-12.544a10.911,10.911,0,1,0-10.9-10.911A10.918,10.918,0,0,0,738.949,267.431Zm20.424,12.544V315.61H718.535V279.975a7.5,7.5,0,0,1,7.5-7.506h25.831A7.5,7.5,0,0,1,759.373,279.975Zm25.253-12.544a10.911,10.911,0,1,0-10.9-10.911A10.912,10.912,0,0,0,784.626,267.431Zm20.424,12.544V315.61H764.212V279.975a7.5,7.5,0,0,1,7.5-7.506h25.829A7.5,7.5,0,0,1,805.05,279.975Z" transform="translate(-672.86 -245.61)" fill="#5a5b5e"/>
</svg>
