<?xml version="1.0" encoding="utf-8"?>
<!-- Generator: Adobe Illustrator 21.1.0, SVG Export Plug-In . SVG Version: 6.00 Build 0)  -->
<svg version="1.1" id="Layer_1" xmlns="http://www.w3.org/2000/svg" xmlns:xlink="http://www.w3.org/1999/xlink" x="0px" y="0px"
	 viewBox="0 0 296.6 249.3" style="enable-background:new 0 0 296.6 249.3;" xml:space="preserve">
<style type="text/css">
	.st0{fill:#FFFFFF;}
	.st1{fill:#00457C;}
	.st2{fill:#D11242;}
</style>
<g>
	<g>
		<g>
			<path class="st0" d="M211.3,36.9L170.8,0.7c-1.8-1.6-4.5-0.4-3.9,2.2l0.6,2c0.1,0.2-0.1,0.2-0.2,0.2c-5.6-2-11.3-3.1-17.1-3.1
				c-9.3,0-17.3,2.4-25.1,4.8c-6.5,1.9-12.7,3.8-18.7,3.8c-6.8,0-12.7-2.6-18.6-7.8C85.7,1,83.1,2.1,83.7,5
				c0.8,3.8,2.2,7.3,4.6,10.5c0.1,0.1,0,0.2-0.1,0.3c-2.7,0.3-6.4,0.7-10.7,0.7c-7.1,0-13.3-1-18.5-3c-2.6-1-4.9,1.3-2.7,3.6
				c4,4.4,7.5,7,10.4,8.7c0.1,0.1,0.1,0.3,0,0.3c-3.9,0.8-8.4,1.4-14.1,1.3c-5.1,0-14.9-1.1-17.2-1.4c-2.4-0.4-3.5,2.6-1.9,4
				c5.1,4.1,9.9,6.3,14,7.4c0.2,0,0.2,0.2,0,0.3C21.5,48.2,5.8,58.6,2.7,60.9c-5,3.5-2.7,7.9,3.6,6.6c3.3-0.7,27-5.7,46.8-7.5
				c0.3,0,0.3,0.1,0.1,0.2C38.4,64.9,26.5,70.5,21,74.8c-2.3,1.9-0.5,4.8,2.2,3.9c6.9-2.4,22.7-5.8,35.2-7.6c0.2,0,0.3,0.1,0.1,0.2
				c-6.8,3.2-14.7,8.1-21.2,14.3c-2,2-0.4,5.2,2.8,3.6c13.8-7.2,27.6-11,36.3-13c0.2,0,0.3,0.1,0.2,0.2c-2,2-4.5,4.7-6.6,8.2
				c-1.8,2.9-0.8,5.1,5.3,4c37.9-6.9,75.8,3.6,101.6,30.8c2.5,2.6,4.8,1.5,4.6-1c-0.2-2.2-0.7-5.7-0.6-9.7c0.5-15,4-24.4,23.2-28.2
				c20.1-4,53.4-5.3,66.4-5.9l8.6-5.8c-18.1-3.2-55.6-7-78.5-6.7c-2.4,0-2.6-0.5-0.2-0.8c11.3-1.4,49.9-5.2,85.8,5.7l10.3-3.4
				C276.6,49.6,248.2,42.1,211.3,36.9z"/>
			<g>
				<path class="st1" d="M74.8,86.3c27.2-11.6,92.6-32.5,198.7-16.4l-3.7,2.6c0,0-45.6,1.9-66.1,5.9c-14.7,2.9-24.9,8.9-25,30.6
					c0,3,0.3,6.3,0.6,9.6c0,0.3-0.3,0.3-0.4,0c-2.3-6-11.2-23.4,5.8-40c2.2-2,1.7-7.2-5-7.4c-23.4-0.8-58.5,3.9-75.4,9.2
					c-0.8,0.2-0.7,0.5,0.1,0.4c31.5-3.7,52.7-2.4,66.7,1.4c0.4,0.1,0.4,0.4-0.1,0.4c-2.6-0.2-24.1-1.5-37.8,3.1
					c-0.6,0.2-0.6,0.6,0.1,0.6c22.7-1,33,2.1,35.8,3.3c0.4,0.2,0.3,0.4-0.1,0.3c-2.6-0.1-10.4,0-18,2.4c-0.5,0.2-0.5,0.6,0.1,0.6
					c12.1,0.9,17.3,3.4,19,4.4c0.4,0.3,0.4,0.4,0,0.5c-1.5,0.2-5.3,0.7-7.8,1.8c-0.4,0.2-0.3,0.6,0.1,0.6
					c9.1,0.8,12.1,11.2,12.7,13.8c0.1,0.4-0.2,0.3-0.3,0.1c-11-11.3-46.6-37.4-99.7-27.7C74.5,86.6,74.4,86.5,74.8,86.3z
					 M166.7,39.8c-4.2-0.4-6.9,1.5-7.2,4.5c-0.2,2.9,3,5.7,7.2,6.2c3.7,0.4,6.8-1.1,7.8-3.4l-3.6,0c0,0-0.1,0-0.1-0.1
					c0.5-2.4-1.5-4.5-4.9-5.2c-0.2,0,0-0.1,0-0.1l6,0C171,40.7,168.3,39.9,166.7,39.8z M175.3,19.4c-1.8-1.2-9.6-6.1-16.2-7.8
					c-15.9-4.1-32.8,2.2-37.2,3.5c-14.2,4.2-23.4,0.9-26.8-0.6c-0.6-0.3-0.6,0-0.2,0.3c2,1.4,6.1,4.4,12.2,5.7
					c4.7,1,11.1,0.5,18.5-0.9c4.8-1,16.4-4.8,24.5-2.6c0.2,0.1,0.2,0.2,0,0.3c-9.4,1.5-13.5,5.6-18,10.5C67.5,34,9.7,60.2,4,62.8
					c-0.2,0.1-0.3,0-0.1-0.1c3-2,21.4-14.4,52.3-26.3c0.2-0.1,0.2-0.2-0.1-0.2c-2.7,0.2-11.8,0.2-21.3-7.8c-0.1-0.1,0-0.3,0.2-0.3
					c19.7,2.8,29.7,1.1,38.9-1.7c0.2-0.1,0.4-0.2,0-0.2c-2-0.2-8-1.5-16-10.4c-0.2-0.2,0-0.4,0.3-0.3c13.9,5.4,30.9,2.5,33.9,1.9
					c0.3-0.1,0.3-0.3,0.1-0.5C90.5,15,86.9,11,85.8,4.7c-0.1-0.3,0.3-0.4,0.6-0.2c26.5,23.6,47-12.2,84,4.2c0.3,0.1,0.3,0,0.3-0.2
					l-1.7-6c-0.1-0.3,0.1-0.3,0.4-0.2L210.4,39c34.3,4.7,63.2,12.2,81.4,23.8l-5.6,1.8c-41.6-12-82.6-6.3-101.3-3.5
					c-13.1,1.9-26.8-0.9-31.9-5.8c-0.2-0.2,0.1-0.5,0.4-0.4c15.1,4.4,28.1-3.8,23.5-14.2l-12.4-4.5c-6.2-0.9-11.3,2-11.5,7
					c-0.2,4.3,2.3,8.1,6.8,9.7c0.4,0.1,0.4,0.4,0,0.4c-5.9-0.4-12.6-5.9-9.5-13.9c0-0.1-0.1-0.2-0.2-0.1c-2.5,0.9-5.5,1.4-7.9,0.8
					c-0.2-0.1-0.2-0.3,0-0.3c5.4-1,14.7-9.6,24.4-6.5l13.2,4.6c4,1.4,7.4,0.6,8.4,0.3c0.2-0.1,0.2-0.2,0.1-0.3l-20.1-8.7
					c-21.4-7.8-35.1,4.2-37.3,6.5c-0.2,0.2-0.2,0-0.2-0.2c3.7-11.8,21-18.6,38.7-12.1l29.8,13.3c0.2,0.1,0.3,0,0.1-0.2l-24.7-21.3
					c-0.2-0.2-0.3-0.1-0.3,0.1l1.2,4C175.7,19.5,175.5,19.6,175.3,19.4z M194.1,52.1c23-5.2,54.4-0.9,60.9,0.1
					c0.8,0.1,0.5-0.1,0.1-0.2c-16.2-5.5-42-8.5-45.3-8.9c-0.2,0-0.5,0.2-0.6,0.3c-3.2,4.5-13.4,7.7-15.3,8.3
					C193.4,51.8,193.3,52.3,194.1,52.1z"/>
				<path class="st2" d="M22.6,76.4c9.9-3.1,37.4-9.2,48.5-8.7c0.5,0,0.5,0.4,0.1,0.5c-8,2.5-22.5,8.5-32.4,18.5
					c-0.2,0.3-0.1,0.4,0.2,0.3c20.5-10.4,40.6-14,45.1-15c0.4-0.1,0.5,0.1,0.1,0.4c-2,1.3-7.4,5.2-12.5,12.9c-0.2,0.3,0,0.4,0.2,0.3
					c22.8-14.5,43.5-21.4,63.9-25.9c0.6-0.1,0.6-0.5-0.1-0.5C117.6,58.4,87.5,63,75.4,67c-0.5,0.2-0.5-0.1-0.1-0.4
					c14-8.7,43.7-14.4,52.5-16.2c1-0.2,0.6-0.5-0.1-0.5c-14.5-1.1-37.1,1.8-54.8,6.2c-0.5,0.1-0.6-0.2,0-0.5
					c10.7-5.6,33.4-12.7,50-13.9c0.5,0,0.5-0.3-0.1-0.4C99.3,37.4,41.2,47.9,5.8,65c-0.1,0.1-0.2,0.2,0,0.1c4.4-0.9,42.8-9,63.2-8.2
					c0.5,0,0.5,0.3,0,0.4C47.7,62.9,29,70.5,22.5,76.1C22,76.4,22.3,76.5,22.6,76.4z"/>
			</g>
		</g>
	</g>
	<g>
		<g>
			<g>
				<path class="st0" d="M152.3,195.6c-6.1,0-13.8-2.5-15.7-2.5l-1.2-13.4h1.1c2,5.6,7.2,12.2,17,12.2c8.5,0,12.4-6.2,12.4-11.6
					c0-5.6-2.3-9-9.5-14.1l-4-2.9c-9.5-7-14.6-12.6-14.6-21.2c0-9.8,8.4-16.4,21.4-16.4c5.1,0,10.7,1.1,13,1.3l1.3,12.4h-1.1
					c-1.9-5.9-7.2-10.1-14.4-10.1c-6.9,0-11,4.3-11,9.7c0,5.4,2.9,8.4,10,13.6l2.4,1.7c10.4,7.6,16.9,13.6,16.9,22
					C176.6,188.7,165.2,195.6,152.3,195.6z M256.3,127.2v1.2c-3.1,0.6-5.9,2.7-6.1,5.7v33.1c0,19.3-10.4,28.5-30.2,28.5
					c-19.8,0-30.2-9.1-30.2-28.5V134c-0.2-3-3-5-6.1-5.7v-1.2h23.4v1.2c-3.1,0.6-6.1,2.7-6.3,5.7v34.5c0,16.5,7,23.2,19.2,23.2
					c12.3,0,19.2-6.7,19.2-23.2V134c-0.2-3-3.2-5-6.2-5.7v-1.2H256.3z"/>
				<path class="st0" d="M59.4,127.2l24,51.7l24.2-51.7l0,0h17.1v1.2c-3.1,0.6-6,2.7-6.2,5.7v52.8c0.2,3.1,3.2,5.1,6.2,5.8v1.2
					h-23.4v-1.2c3-0.6,6-2.7,6.2-5.8v-47.4L80.5,197h-1.3L52,139.3v47.5c0.2,3.1,3.2,5.1,6.2,5.8v1.2H40.3v-1.2
					c3.1-0.6,6-2.7,6.2-5.8V134c-0.2-3-3.2-5-6.2-5.7v-1.2H59.4z"/>
			</g>
			<path class="st0" d="M186.9,216H180l-9,21.2l-9-21.2h-6.8l14.7,33.3h2.3L186.9,216z M138.8,216v20.1L121.3,216h-3.1v33.3h6.3
				v-20.1l17.5,20.1h3.1V216H138.8z M40.3,249.3V216h10.6c5.9,0,18,1.7,18,16.7c0,15-12.2,16.7-18,16.7H40.3z M62.6,232.6
				c0-8.1-4.6-10.7-11.9-10.7h-4.1v21.4h4.1C57.7,243.3,62.6,240.7,62.6,232.6z M217.7,249.3v-6h-14.3V235h13.5v-6h-13.5v-7.1h14.3
				v-6h-20.5v33.3H217.7z M103.4,249.3v-6H89.1V235h13.5v-6H89.1v-7.1h14.2v-6H82.8v33.3H103.4z M248.7,236.8
				c3.4-1.5,6.6-4.4,6.6-9.8c0-8.5-7.3-11-12.1-11h-11.1v33.3h6.3v-27.4h4.7c3.7,0,5.8,2.1,5.8,5c0,3-2.4,5.1-5.8,5.1H239v0.4
				l10.3,16.8h7L248.7,236.8z"/>
		</g>
		<path class="st0" d="M265.2,132.7c0,0.5,0.1,1.5,1.9,1.5c1.6,0,1.8-1,1.8-1.4c0-0.9-0.7-1-1.8-1.3c-1.2-0.3-1.7-0.4-2.1-0.7
			c-0.6-0.4-0.8-1-0.8-1.5c0-1.6,1.5-2.3,3-2.3c0.5,0,1.6,0.1,2.2,0.8c0.4,0.5,0.5,1,0.5,1.3h-1.1c-0.1-1-0.9-1.2-1.6-1.2
			c-1.1,0-1.7,0.5-1.7,1.3c0,0.7,0.5,0.9,1.4,1.2c1.9,0.5,2.1,0.5,2.5,0.8c0.7,0.5,0.8,1.2,0.8,1.5c0,1.4-1.1,2.4-3.1,2.4
			c-0.6,0-1.8-0.1-2.4-0.9c-0.4-0.6-0.5-1.2-0.5-1.6H265.2z M271.6,127.2h1.9l2.2,6.4l2.2-6.4h1.8v7.8h-1.1v-7l-2.5,7h-1l-2.5-7v7
			h-1V127.2z"/>
	</g>
</g>
</svg>
