<?xml version="1.0" encoding="utf-8"?>
<!-- Generator: Adobe Illustrator 21.1.0, SVG Export Plug-In . SVG Version: 6.00 Build 0)  -->
<svg version="1.1" id="Layer_1" xmlns="http://www.w3.org/2000/svg" xmlns:xlink="http://www.w3.org/1999/xlink" x="0px" y="0px"
	 viewBox="0 0 348.7 348.7" style="enable-background:new 0 0 348.7 348.7;" xml:space="preserve">
<style type="text/css">
	.st0{fill:#C6093B;}
	.st1{opacity:0.5;fill:#FFFFFF;}
	.st2{opacity:0.85;}
	.st3{opacity:0.8;fill:#FFFFFF;}
	.st4{fill:url(#SVGID_1_);}
	.st5{fill:#FFFFFF;}
</style>
<g>
	<polygon class="st0" points="232.2,58.1 58.1,58.1 58.1,290.6 290.6,290.6 290.6,116.5 232.2,116.5 	"/>
	<polygon class="st1" points="290.6,58.1 290.6,58.4 348.7,116.5 348.7,0 232.2,0 290.3,58.1 	"/>
	<g class="st2">
		<polygon class="st3" points="290.6,116.5 290.6,290.6 58.1,290.6 58.1,58.1 232.2,58.1 232.2,0 0,0 0,348.7 348.7,348.7 
			348.7,116.5 		"/>
	</g>
	<linearGradient id="SVGID_1_" gradientUnits="userSpaceOnUse" x1="232.17" y1="58.2387" x2="348.659" y2="58.2387">
		<stop  offset="0" style="stop-color:#FFFFFF"/>
		<stop  offset="0.7546" style="stop-color:#FFFFFF"/>
	</linearGradient>
	<polygon class="st4" points="348.7,116.5 232.2,116.5 232.2,0 	"/>
	<path class="st5" d="M148.9,163.4c0-5.2-1.7-9.6-4.8-12.8c-3.7-3.7-9.3-5.7-16.2-5.7h-25.3v55.1h13.2v-17.2h8.2l11.5,17.2h15.5
		l-13.4-19.5C144.9,177.6,148.9,171.6,148.9,163.4z M115.9,157.1h11c3.2,0,8.6,0.9,8.6,7.1c0,4.2-3.2,6.9-8.3,6.9h-11.3V157.1z
		 M168.9,188.2h29.2v11.9h-42.3V145h41.9v11.9h-28.8v9.5h25.3v11.9h-25.3V188.2z M226.5,145h-21.7v55.1h21.7
		c17,0,29.3-11.6,29.3-27.7C255.8,156.5,243.5,145,226.5,145z M218.1,157.1h8.4c9.3,0,15.5,6.2,15.5,15.6c0,9.2-6.2,15.3-15.5,15.3
		h-8.4V157.1z"/>
</g>
</svg>
