<svg xmlns="http://www.w3.org/2000/svg" xmlns:xlink="http://www.w3.org/1999/xlink" width="162.997" height="163" viewBox="0 0 162.997 163">
  <defs>
    <linearGradient id="linear-gradient" y1="0.5" x2="1" y2="0.5" gradientUnits="objectBoundingBox">
      <stop offset="0" stop-color="#fff"/>
      <stop offset="0.755" stop-color="#fff"/>
    </linearGradient>
  </defs>
  <g id="Group_121" data-name="Group 121" transform="translate(-103.219 -295.109)">
    <path id="Path_33" data-name="Path 33" d="M194.565,305.085H113.193V413.75H221.858V332.367H194.565Z" transform="translate(17.19 17.194)" fill="#c30032"/>
    <path id="Path_34" data-name="Path 34" d="M170.363,322.277v.117l27.167,27.165V295.11H143.073l27.17,27.167Z" transform="translate(68.686 0.002)" fill="#fff" opacity="0.5"/>
    <g id="Group_115" data-name="Group 115" transform="translate(103.218 295.112)" opacity="0.85">
      <path id="Path_35" data-name="Path 35" d="M239.048,349.559v81.383H130.383V322.277h81.372V295.11H103.218v163h163V349.559Z" transform="translate(-103.218 -295.11)" fill="#fff"/>
    </g>
    <path id="Path_36" data-name="Path 36" d="M197.529,349.561H143.072V295.109Z" transform="translate(68.684 0)" fill="url(#linear-gradient)"/>
    <path id="Path_37" data-name="Path 37" d="M142.447,328.613a8.216,8.216,0,0,0-2.25-5.975c-1.732-1.727-4.344-2.642-7.552-2.642H120.834v25.769h6.188v-8.031h3.837l5.379,8.031H143.5l-6.261-9.137A8.149,8.149,0,0,0,142.447,328.613Zm-15.425-2.969h5.155c1.5,0,4.012.425,4.012,3.328,0,1.985-1.5,3.219-3.9,3.219h-5.267Zm24.816,14.548h13.633v5.572H145.688V320h19.6v5.578H151.837V330h11.839v5.575H151.837ZM178.758,320H168.635v25.769h10.123c7.925,0,13.674-5.42,13.674-12.955C192.432,325.383,186.683,320,178.758,320Zm-3.935,5.648h3.935c4.33,0,7.233,2.909,7.233,7.307a6.812,6.812,0,0,1-7.233,7.165h-3.935Z" transform="translate(30.359 42.891)" fill="#fff"/>
  </g>
</svg>